<mxfile host="65bd71144e">
    <diagram id="Hi5RoGqq7u5vUpFwuGVE" name="Page-1">
        <mxGraphModel dx="1098" dy="810" grid="0" gridSize="10" guides="1" tooltips="1" connect="1" arrows="1" fold="1" page="1" pageScale="1" pageWidth="1169" pageHeight="827" background="#FFFFFF" math="0" shadow="0">
            <root>
                <mxCell id="0"/>
                <mxCell id="1" parent="0"/>
                <mxCell id="2" value="&lt;font style=&quot;font-size: 22px&quot;&gt;Kubernetes Cluster&lt;/font&gt;" style="points=[[0,0],[0.25,0],[0.5,0],[0.75,0],[1,0],[1,0.25],[1,0.5],[1,0.75],[1,1],[0.75,1],[0.5,1],[0.25,1],[0,1],[0,0.75],[0,0.5],[0,0.25]];outlineConnect=0;gradientColor=none;html=1;whiteSpace=wrap;fontSize=12;fontStyle=0;container=1;pointerEvents=0;collapsible=0;recursiveResize=0;shape=mxgraph.aws4.groupCenter;grIcon=mxgraph.aws4.group_auto_scaling_group;grStroke=1;strokeColor=#D86613;fillColor=none;verticalAlign=top;align=center;fontColor=#D86613;dashed=1;spacingTop=25;" parent="1" vertex="1">
                    <mxGeometry x="253" y="122" width="723" height="593" as="geometry"/>
                </mxCell>
                <mxCell id="3" value="EC2 instance contents" style="points=[[0,0],[0.25,0],[0.5,0],[0.75,0],[1,0],[1,0.25],[1,0.5],[1,0.75],[1,1],[0.75,1],[0.5,1],[0.25,1],[0,1],[0,0.75],[0,0.5],[0,0.25]];outlineConnect=0;gradientColor=none;html=1;whiteSpace=wrap;fontSize=12;fontStyle=0;container=1;pointerEvents=0;collapsible=0;recursiveResize=0;shape=mxgraph.aws4.group;grIcon=mxgraph.aws4.group_ec2_instance_contents;strokeColor=#D86613;fillColor=none;verticalAlign=top;align=left;spacingLeft=30;fontColor=#D86613;dashed=0;" parent="2" vertex="1">
                    <mxGeometry x="62" y="182" width="202" height="382" as="geometry"/>
                </mxCell>
                <mxCell id="9" value="" style="sketch=0;html=1;dashed=0;whitespace=wrap;fillColor=#2875E2;strokeColor=#ffffff;points=[[0.005,0.63,0],[0.1,0.2,0],[0.9,0.2,0],[0.5,0,0],[0.995,0.63,0],[0.72,0.99,0],[0.5,1,0],[0.28,0.99,0]];shape=mxgraph.kubernetes.icon;prIcon=pod;fontSize=22;" parent="3" vertex="1">
                    <mxGeometry x="55" y="124" width="58" height="56" as="geometry"/>
                </mxCell>
                <mxCell id="25" value="&lt;font color=&quot;#000000&quot;&gt;Application&lt;br&gt;Pod&lt;br&gt;&lt;/font&gt;" style="text;html=1;strokeColor=none;fillColor=none;align=center;verticalAlign=middle;whiteSpace=wrap;rounded=0;fontSize=22;" parent="3" vertex="1">
                    <mxGeometry x="-8" y="193" width="188" height="30" as="geometry"/>
                </mxCell>
                <mxCell id="34" value="Security Agent" style="shape=image;imageAspect=0;aspect=fixed;verticalLabelPosition=bottom;verticalAlign=top;fontSize=22;fontColor=#000000;image=data:image/png,iVBORw0KGgoAAAANSUhEUgAABYoAAALvCAMAAAD8qAHUAAAAM1BMVEX///8AtMgAtMgAtMgAtMgAtMgAtMgAtMgAtMgAtMgAtMgAtMgAtMgAtMgAtMgAtMgAtMiOkNW4AAAAEHRSTlMAECAwQFBgcICQoLDA0ODwVOCoyAAAHyZJREFUaN7s2213m7iigNGAMebNwP//tSe990xPp51JhA2SEHt/61pNggE/CCE+PgAAAAAAAAAAAAAAAAAAAAAAAAAAAAAAAAAAAAAAAAAAAAAAAAAAAAAAAAAAAAAAAAAAAAAAAAAAAAAAAAAAAAAAAAAAAAAAAAAAAAAAAAAAAAAAAAAAAAAAAAAAAAAAAAAAAAAAAAAAAAAAAAAAAAAAAAAAAAAAAAAAAAAAAAAAAAAAAAAAAAAAAAAAAAAAAAAAAAAAAAAAAAAAAAAAAAAAAAAAAAAAAAAAAAAAAAAAAAAAAAAAAAAAAAAAAAAAAAAAAMhGde+maerb2q4ASBTibln/axBjgBRuz/UXnR0CEH9M/LcSr+uzsk8AIhvW38w3OwUgqnr9w6LFAFE9Vi0GSGxatRggsXXVYoAsU6zFAOlTrMUA6VOsxQDRPLUYILV+1WKAxOpViwFSG7QYILVq0WKA1O6rFgOk1msxQHKDFgNoMQBaDKDFAGgxgBYDoMUAWgyAFgNoMQBaDKDFAGgxgBYD8KvqqcUAWgyAFgNoMQBaDKDFAGgxgBYDoMUAWgyAFgNoMQBaDKDFAGgxgBYDoMUAWgyAFgNoMQBaDKDFAGgxgBYDoMUAWgyAFgNoMQBaDKDFAGgxgBYDoMUAWgyAFgNoMQBaDKDFAGgxgBYDoMUA6TXD/FnTsdVigFTD3eGvnM53LQZIPvEwVFoMEL/E8996+tRigOh+j6sWA8T2+KOnWgwQ2fJnT5+1FgNEdN/eUy0G2Fe3ajFAYuOqxQCJTasWA2Q5QaHFABG1qxYDJFavWgyQ2qjFAKk1qxYDZDws1mKAOKpFiwFynqLQYoA4Wi0GSG7QYgAtBkCLAbQYAC0G0GIAtBhAiwHQYgAtBkCLAbQYAC0G0GIAtBhAiwHQYgAtBkCLAbQYAC0G0GIAtBhAiwHQYgAtBkCLAbQYAC0G0GIAtBhAiwHQYoDcvdNTLQbQYgAt1mIALQbQYi0G0GIALdZiAC0G0GItBtDiIM3wXJ9Tf3eIAS1Opf25GaMaA1qcuMSf5q5ymAEtTlriHxsixoAWJy6xGANanEGJf2zKw4EGtDhtiX/MGTeONKDFaUv8YzVF7VADWpy2xGYpAC1OX+JPk7cAAS1OXOJPnWNdsKbtXG3R4sQtDinxuj7NGJd4+jaPflr+7wB7PIsWJ21xWInNGJcb4VWKyVv9GKdpGtqq5BaHlvjHUgovfBQZYSkm7zN2+HmWDnWxLd5Q4s/t8XUtMcJSTM5u86/n6VCV2eJNJfb07rw3eF9FWIrJucS/nbfLvcQWby3x57I2kxSny/AwhRxZKSbLW7nnpgHhSVu8vcSfL0Jb9HQyTdiBlWJy1P3DuTqU1uJXSvypdXpIMcQZFP/jtFphLX6xxF/vB6QYjq5UUS1+ucRWtUkxxNGvxbf4jRJ/vnqnxVIMx5vW0lv8VonjPryru0xJMaRKcSktHtY3zdmlJD4phoN1rz2zqsaTtPitEk9D19T5pUSKpZji3F9dPzCcosWvlvg5dvdbrimRYimmPMurz6zO0OIXSjxPXdvknRIplmIuNUNx+hZvLPHUP5rqBCmRYimmPNVcbIvDS/yMPCksxVIMm87fE7c4qMRzkklhKZZi+F1fZou/K/GScFJYiqUY/vAsscVfl3hoqvOmRIqlmCJVS3kt/qbEp06JFEsxZbqtpbX4lCWWYinm4trCWnzOEkuxFHN1j6JafNISS7EUc3lDQS0+a4mlWIqhnBYPr38QKZZi0OJdWnzeEkuxFEOuLa52/RRZl1iKpRhybfHGeJ65xFIsxZBti4f9PkHmJZZiKYZ8W3y/SomlWIoh3xbP1T5bn32JpViKIeMWPy5SYimWYsi4xfNFSizFUgw5t7i+RomlWIoh5xbf397qU5RYiqUYcm5xd40SS7EUQ84tbq9RYimWYsi5xbdrlFiKpRgybvH83taepsRSLMWQcYu7i5RYiqUYMmnxP/zs8yollmIphmxb/M1/L6jEwSmeu8ikGK7X4jZeieu2G4eurc6VknVyckoxWnx4i2+/TBjPB5a4mf76f2NzppRIsRSjxTFa/NHO//2PfXVYiavx1/86VudJiRRLMVocp8UfTTdOw6N+a/u+3LxmyW9SWYqlGDJr8ftb9+XGtZsXakixFIMW71vi4YXly1IsxaDFR5f4+5f6pFiKQYsPLvG63k6SEimWYrQ4lxbvX+L1IcVSDFqcuMTpJ4ulWIrhVC0+osRSLMWgxclLbIJCikGLk5fYYzspBi1OXmKL2aQYtDh1iddWiqUYtDhxiafTpESKpRgtPiCCX/5krBIvtRRLMVy6xX36Eq/386REiqUYLT4khKFfjup5VInbE6VEiqUYLT4khYFtKbzEUizFkLbFQRO1pZdYiqUY0rY45EW34kssxVIMaVs8KrEUSzGkbvH3cblAiaVYiiFti7+NyxVKLMVSDGlb/N3K4kuUWIqlGNK2+K7EUizFkLjFixJLsRRD1BY//vz/nRJLsRRD3Ba3y++D4kqJpViKIXKLb88NM8XXKbEUSzFEbfFHt4Qm8UIlLiPFt6bpum6Yfvj1QH3+c+y6R9Mk338xU1w1964bPz/7zxN++bFjPvdQ01RxD8wfm/JjS4YfGyJmV25x9TPGizFxESm+fRb4b/H9YvuHrqlLT3HVfF6PvtmS59S1Mbbm1vbT8sV2LFPf3hTtoi3+/OL8uET3XxfxUiU+a4rrezc+162WsWvS7L/j41e3wxy+J+b998TfvmZT4AGZOuPji7Y4YGTx9Td8LqvEJ0zxZ4W/HG59m+O2jr//Dg7OvZ9f2BVTf99/wqJqx80HpNI1Ld5a4uVWVolPluLmrQr/7yR5VJH335Epvg9v7JPpsecsQdVOL22FGmvx1Ut8nhRX9/657me8l5Hiun/72jT3O9W4Gd7YisFMhRZfucQnSfHtMa17m3cZiaVN8X2n3bJDjat2zuKAUESLr1fiU6S4n9dDLF116hS3e+6X+fHOFHrVLZkcEEpo8QVLfIoUH1TiH4f0cd4Ut7vvlrFOGmIx1uILl/gUKZ7W48zNOVPcHnB9WlKHWIy1+LIlPkWKu/VIY3W+FDeH3CiMr81X770tS6tvBbV4VOJyUvw4NMXfvHuZYYrr8Zgd8cpsTX3ELcvkNbyCWjwocTEpbtaDDdWZUvxYDtoNLwSwO2hbOoErp8W9EpeS4uroFK/P+jQpvj0PuzvYPiR+HndEDIzLafFdiQtJ8cfhKf76COeU4sOGxNtvJD/a5chD8lC4Ulq8VEpcSIqnCC2+nyHF1XjgLth4rlbDwYdktJSilBb3SlxIioc1gjb/FN/mI3fAtkmaAycnTFKU1uLQYfGVS3yOFHcxUrzec0/xsRMC87arwhLhiLy1toWMWtwqcRkpvkdJ8UvzxRFT3B+8jGTTVWGNwxLjMlo8KnEZKb7F+d4vdc4pHjK6KYhVYqvaCmnxU4nLSPFHpO/9Cy9pxkpxdfijyyqfq8Jb6zrIscVKXEiK52y/95FSXB3+kOyZZ4m1uIwWK3EhKZ5ife/veab4+BJveCUqbom1uIQWP5W4kBT3sb72S5VjiiOUOPwi1K+x9RJ39haPSlxIih/RvvZjjimOUOI1dFvaNT7rKM6jfeUIKvFpUtzE+9o3+aU4xozAlHGJX1zyTTYt/uZmU4nPk+I63rd+zi7FUWYEurBtifJmx05LvsmmxZ0Sl5Lij4hf+zazFMcZh4ZtYJWmxJ8XyEriztvirxeJpivxvZ+mqW+keIsp12Hx4SmO83rLks+kdZbnH5vO2eUMJW7/WiI73aQ43JjrsPjoFEcah4Y9rezXdDqFO4/616HTmGWJ/7aJrRQH69ZMh8VHpzjS7cAjZFvua0qNwp1pkuKvwo5fH7dbohLfl+zWS54kxVErcM8nxbEuQSG3aPWSNMWmi082Mr53XddUm6YyopW4zfAB30lS/O1mPj8n4Kfup89/xJmXPDbFt0iZC5oqnta0RnkrfFI5Won71wYjUvzDv4yUpr5rm3/rXNP2rz1nqjNJcTW/F9jPx8M/L07jNM1vVe6N12ye0/BzK974SFYXK/EuJR6yfC58lhT//g2ex+4eciGr2hee+D0ySfHrj8mmf947VdN20/LSk8oXpyfmof19Q5rH8OLvMkWhxAeVOINh8VlSPP1a4cemstXd1m/+nEeKX5yeeHbNd7N4v98tBNwGvLKGZX782y++9a+Mjnv5UuKDSpx+ic5ZUvzfAeLc3+vtP1xtjXGdRYpfmV2Zu7Btr+6/xHDe7zz5xfD1h76/MPfspTslPqjE6yDFYX7MVI5t/eqPV9vu9R85pPiFydlp04Pg+vEMPgs3D2KH749VsznGXvRQ4oNKnP7cOkuKb8ObD22a5ZCv/HEp3v5yx7T9r/x/jb8P+NbLwjNsU+5bC29xsRIfU2ITFPFUW+73M0jx1md2y4tLI2/D8u3jsK2XheDTeuPdysa30lHi4J9NvrK4CR7mHKvOq8VN8hTXW1fdHrm8YNubJsuWKd37tsq3MqbER5R4rc6S4qPFuD3Y0OIueYqHbfU7dM3ttkHxc9tJfZsNi5U4eYmTP7W7VIo3tHhKneJtg+LnsUsLukOH55tmjgyLlfiIEq+1FEedNL8FD+9Sp3g4cBx66KD4hdHFphYbFivxASXuPqQ47q4IXglwS5viTYPi4eBpri2D4pce725qsdeflXj3EuewKuFiKf4IXcrapk3xcHT9tpgPH59veava2mIl3rvEcyXF0VNc77w9x6S4ymd24uOj3fD08NUZty3veHvlTon3LfGSxSl1tRSHjjenpCneMCVw/AV9wztxr7+BseEdkkHQlLi8El8vxYHD4jlpisOnBI4/jW5xDuIY/pErSVPi4kp8vRSHDvJSpvie09qu8Gnr5zt/ZsMyDevZlLi8El8wxe2u8TwkxeEjxPH4/RWeyPfO6Xuc5KPEeT56uF6Kq+xTHP7QLsK9engh+2hz0rWsKfFOJc7nFut6KQ4cc3bpUhz+CKvNZW/tcVmoo0UfJc5vsuuCKX7knuL9X88+/B5ilyMYPCvtjTslLq7EV0xx2Ecek6U4fHTYHL+zghcV77CoLvyDW1qsxKWV+Iop/thzxHlAih8ZDYrDR6rd2f4YSvwhxWm/XM+8U/zMaFAcvH5ilweIwcNiayiUuLQSXzLFQU+i5lQprnIaFAefHvs8SQteROEtDyUurMSXTHG34zse+6c4eHb2ns2u2m19WfDKOW95KHFhJb5kih9Zpzh0wjTKMoJn5BF66HzIIHBKXFaJL5niJusULxntsSr2KLW3nE2Jr1liKc4txbecXjkLPjv2mrvN6tOjxFJ83RSHLmWLsoggdKp43O0vzhlNlKPEUnysHcddu6c4dKr4EWNHTdE3JvTje/dZicsqsRS/Wc/dUxw6LIzywlnovPV+0wWhaygmmVPiokosxZmlOPRBWZTnVnX8jQl+UKhzSlxUiaU4sxSHHo8hp5Njz415Rh+Io8RSLMW/C31QFuWESrExocvZPLdT4qJKXE6K6+bedcM0Tb+eAMvnv4eua5rqLCkechoUhm7MnvPW9xyv3SixFH8/u9g8+un7h13PsWtv+ac4cM3CEuXkCF1AkWJ+2vt2SlxUic+d4ureTcumPzMNP3qccYqzWkCQZGMsoVDiK5b4vCmu7v3ztT+1TPmmuD7yynVUFfcdoGZ1X4AS55biH7OuR9q2l+rHePjFIUmKQw9Hm9O5se91IXSCWu+UuKQSB3/dMrofrNoxxjg9SYrbdd/fF+Xc2HdjQpdt3BRPibf8bPchxbuqh2Vdi01xl9OQME0Um5yuRrzgm/FEohJn/5z3ZClupjWWJCnuz5jiNGekhcVKXFKJz5XiiCFOlOIpp6OR5roQ+upzJ3pKXFCJz5TiW8wQS3GyjZFiJb5gic+T4qpf1/JTPIf9ukGKpViJiyrxaVJ8X9YrpDirDCVK8XSa+zSU+GoprsZ1leLYKQ58haaXYpT4Gim+zasUZ/uyXSfFKPElUtyuqxQnWFMrxSixFP9Pv14mxbUUf3yMUqzE1yvxCVI8rNdJcSPFwW+WSLESv/uzUnyGEkuxFKPEUpy8xFIsxSixFCcvsRRLMUosxUFHWIqlGCUuosR5p7hZpfh6Ke6lWImvV+KsU1wtUmxdsRQr8RVKnHWKp/VqKfaKhxQr8TVLnHOKH6sUR6rfP1ukGCWW4nqR4rQpDmziIMVKrMQFp3hcpfgUKd771HimuQKgxFL8zob9m+f001xcivuSU5zV5QglvnqKX3xmN0991zTVH7Mdzb0bpiX7FD9zOhqB9yWzFCuxEheb4lcGxc/uzwb/XuRuXHJOcVbzpIHvWqz7/tVaipX4jRIvJy1xtinePCie2irwV98ep0/xmlWKqyRnZCOFSrzxr0rxdrdtHV76evdb4CQp7nNKcZskiq0UK/EFS5xriodNIe42jsvyTXGXU4dCz417krF4LYZKXFCJc03xlgds4+YvZb4pDh0SRpkPSzNrO+Z0Y0BuJe5LLXGmKf5P+/a2riiOAGBUlJMIst//aceqnp6a7qotSYQQdK2L7pv6tijwE0JoIkrcxf/5clNc71K/l36nx7Vw1Q8NXERyV8NPLHH7tiUuNMXh8xNJv365Kb4UtTsCF2RPe/Tfy3afWOLnr+Ae+/FBmSmeNy1xwSkODdGcZTfssZ4j9GJ01cPPK/HzI7I7SfHawtdPpN2RFJzi0DcDszy02uMhYuhseS+In1fi+p3vk4pMcRda4sTrYMEpDh2ItgWccpsMR4Yd8s8xSvz8ke5ZivebKk59XlRwikMHokNJB8eaz+1CbwsqSfy4Ele7nxEfl+Jp47v0glMcOhDNs4Ag/8z1Of9HcpASP19Y1UjxfgUYTu+X4uBp8iy3Y6HXxEuuE90Cig8u8fNbxpMUr++ydY0KTnHoZSjP4+LQmaL+wJ/IUUosxdlTHLhN6ctZS05x6HO7qYATb4ONCV3G2Kjix5X4eYorKV5ft/XAqOQUX0uaocg+XRL8mqWndp9X4ucpNle8gX7tvB0pxaED0Ty36KGD1LWmS4aS7gkoq8TPP3+U4t1SnP4BJac4dAlBnjUUt7wbU4Wmf9DFzyvxwrlRS/FO5//8nikOXlib5Y4seIx+yftxpoo/sMQLZbhXUry2cestKjrFoffoWXZJ8Bh9nWFq6OI5U8UfWeKFs+0mxVK8ZoqDR4ZZHtxljWPowWiq+DNLvJSGQYqleMUUBw9Esxx5wQs6+hU+LPiGoJPGjyzx6Ty/b4ulOEuKY0IVPBBd8SW3bwUvZ5tfHxafS/riFFjixQ25VVIsxaulOHggmmWn3PMNi0OXa+RZPMIvfSklXrxzmiopluK17pyCB6JZ1u8EXxjmc6ZD8evrKo5ZDeWU+I1bfNwUfx0pxVE/X/BANMf6nfALw5Bnt5uf+OgSL7f4IsVSvNIi6PAZihzjwynTGL0L/hzrJz65xK9tkBSv+VMf8cXnqIVnETMUGaYoujxj9PMc/DnWT3x0id+1xQd+8bk9UoqjNjZ8hmKNhQsLqjxj9PDpCe93fHiJ37TFB07xcKQUR21sFzEsHvc+Gdd5HzniKw/6+OElfs8Wl5jiwNPyXkKKQ8eMUZPF54gUb1+mOmKMft7+M3IsG6HsEr9li0tMcb31ObnmXw8NSNShd4tpcb/1/oiYO0hcSnQJnyi2qFiJ37PFJab4svV4cI8Uj1vslTwtbiO2JWl1QzVFfEKrkEr8ji0uMcXBeTsXkOLgR2xR86j3qBZvPUdx33Zboko8K6QSv2WLi0zxfeMErZni4Lv3qKVebVSKv8ZtFxVEbc2t2rLE20/HcIwSv12Li0xxcN7q/VN822a8GDcs/pq3fZYVtTWR88WXqD8+W8mWybX0Er9bi4tMcb/JSHObFPfhGYl5NSFyWPxY0/tio87ValtzjzkFmvnLoLhAbfklfrMWF5niZuMn9mumOKZSMS2+x7Z4fuUltPb2fOMityZ4U6pr5Jc0KFbiN21xkSmuvrZt8ZopjlrsMFRrnQt/HI2mHeVVM8xL8ydN5KaMYedAHXvBsXxCid+1xUWm+BTxIGe67JviKq6WzRa/wa8j7xq7qOTS3YL28Bi7KcPylpyj/6g1xUr8ti0uM8VRt619tWeKY+/dx2blPfPvS1N3jsjw/2/8838bvyULMa6H+D/pRTsljmzxvZLiPJPFPw+N2Bivetrfood218s2f/jXBzRLOb601zFulfY15bLQfrdjzt094e/dVFKJY1s8VVL8irjH6rE35qumuE9oynzrlnN8nr/SzeO1q3//jKqu+36cEr5wdU8bpPf1v0+Fc3Od0r7TWSaV+G1bXGiKh4RzPnRWqKpXTXGdWstx6Oun29x9vW4ef7m/tE6seWEbhr7v27p7/Pc2pn+XTiaV+H1bXGiK67RTvm+eHSh13fbDGDrWDJ6XfCmVTw/P8SunpVdQbl/7GmVSid+4xYWm+HR/ZRz4YxD2y/BjRBh/Sxyc4peCWW82RbF66qr7riU2PaHEqS0epXizQyKD4BS/NI+w4Z9eeVtemIpZhSXFGTTHLPFiiwcpTlbNh0nx+YUPWVoom3VSYHHY2e+4Owad3N5lPmiJl1tcSXGq/jApPk3pH7I4KTAV9Y3H3fbG5I1nJX7v+eJiU7zzzGRMil+YRuhfPDtW1Ze7U470AqsS7zO5tPSux0WKDzpbHJ7iKv1Dlo/RJt83Hl4+WzfTCKUSv9ji0hdDlpviHe+GI1OcsAo64kPyPbqbXn+u45GdEu+395bOw6mW4rRj4zApTn9wt23ot9iaPW5WPLLLMCE4Hb7EAafK2Ehxiv4oKU6u5f1UVIuDZtM6JVbiMksccqrMQ3OW4mjTUVKcOiweT0W1uCnryqDEhyhxV9LcUtjBOY3/07dnKQ4o3HyQFKcO4PtTUS3uTwW2WIl3H/Q8LXFb1ix/wsFZyKxF0Sne6SFRQooTV3m1p6JafAvcmqsSv5chvcTPn/a1pX2Xb+pWSXF5E5NpKU58xng5FdXiKXRrWiV+J116iZ+Pp9vyrivfHPmVFJc2MZma4rSLRsTfz1K/U2kt7nQyw0TxnF7ivsA1iCnNuEpxuS2ut9/QKWpPZZg4Dx+lZ3nXY7aeOIc+vcRPK94eqRlnKS62xbEpruLXe9yiPuC8/YKSpqituXvbOYt7comf3h3teB1NaEYnxcuux0hxQov7yA/Y/JeI2aBq62tkEc9SPsAlvcSnW5ElTlkGe5PigiYmX0xxfIujF9E0G08LxB2P7VzKZYFtErBU4icD6n3nluKHRaMUB12374dIcfRAMf4GvLptOyUQuV+2m6QwOVHAVPFiiU+FljilxVJcQoHWSnHsqx4pn9Bselna9vtGPNA2ObF/ApZLfJoLLXFCi6W4kFvzlVJ8qiNKOaUdY31JX/oybrG+2ZA4o3N6iU9jqSWObvEkxcG/7PUQKY7ZztQnBeftHpglnEOrzxjPFhPn9efRQ9BbD12xJY5tsbnivQdgq6f48ZOGbmdf3k+RsklVv2qMe3MTmbXJJf7zuuJSVoNXMWfJVYo3iVze1x1+P7bDZimaV36KoZgUrzpMH87SmN2YvpKwKbfEp6j1xRcpjhwOZnnhY7y2L+6ZNuSi8Vp1zsPaMwP3/rzzxgjxPsPH33bekFy7uah5/uDZswL6drAUPw6bbsslBPdb36xzLF2W41TUTzEPzWsb8/I0xd3UxG4jnH/uu6gXzoein7gGrrcs4QJyuBT/+HmvG9T4PvZtve52trfNf9LLdZXR6P3FDkfcCnz7a7SKuJ9/vMY+xt2bDGUvQgwZIhQxlD9iin8cOt16K43H1UbCf5hKu35/VR7W+ojXLkzzrVvt25/7tG2ZOjMTO+v+LtYY/w7o3zt9rEv8ZstPMsYijr6Dpvjnpne31yI0jX1Xb74XqqYf53UXUPw2Nu5uaYPjaWjXvghd+kmHD6npb+M1bV+0wziOfbGrwZ+OEKZrIdt94BT/7FzdXcd77FTE2PdNnfVW6lz313FaabXcNzke4tZRDt1WY5iqHUJ3yXRtTBCzvcdo5a/TY35cNMb//r9/zEmWc/gdPMV//9B12/eP3/abxeo/fv2h//HD1ztfAeu6eWzH9ccGbXFXdGkfI5vnA+THIZjpXmDhnmW69bUMw1ulmH9dmepH8B9V/qX/60p0zr0hP7di/uc9ya3va682AwAAAAAAAAAAAAAAAAAAAAAAAAAAAAAAAAAAAAAAAAAAAAAAAAAAAAAAAAAAAAAAAAAAAAAAAAAAAAAAAAAAAAAAAAAAAAAAAAAAAAAAAAAAAAAAAAAAAAAAAAAAAAAAAAAAAAAAAAAAAAAAAAAAAAAAAAAAAAAAAAAAAAAAAAAAAAAAAAAAAAAAAAAAAAAAAAAAAAAAAAAAAAAAAAAAAAAAAAAAAAAAAAAAAAAAAAAAAAAAAAAAAAAAAAAAAAAAAAAAAAAAAAAAAAAAAAAAAAAAAAAAAAAAAAAAAAAAAAAAAAAAAAAAAAAAAAAAAAAAAAAAAAAAAAAAAAAAAAAAAAAAAAAAAAAAAAAAAAAAAAAAAAAAAAAAAAAAAAAAAAAAAAAAAADb+w+mfezYNzpodAAAAABJRU5ErkJggg==;" vertex="1" parent="3">
                    <mxGeometry x="31" y="274" width="124.8" height="66" as="geometry"/>
                </mxCell>
                <mxCell id="5" value="EC2 instance contents" style="points=[[0,0],[0.25,0],[0.5,0],[0.75,0],[1,0],[1,0.25],[1,0.5],[1,0.75],[1,1],[0.75,1],[0.5,1],[0.25,1],[0,1],[0,0.75],[0,0.5],[0,0.25]];outlineConnect=0;gradientColor=none;html=1;whiteSpace=wrap;fontSize=12;fontStyle=0;container=1;pointerEvents=0;collapsible=0;recursiveResize=0;shape=mxgraph.aws4.group;grIcon=mxgraph.aws4.group_ec2_instance_contents;strokeColor=#D86613;fillColor=none;verticalAlign=top;align=left;spacingLeft=30;fontColor=#D86613;dashed=0;" parent="2" vertex="1">
                    <mxGeometry x="288" y="182" width="180" height="382" as="geometry"/>
                </mxCell>
                <mxCell id="17" style="edgeStyle=none;html=1;exitX=0.5;exitY=1;exitDx=0;exitDy=0;exitPerimeter=0;entryX=0.5;entryY=0;entryDx=0;entryDy=0;entryPerimeter=0;fontSize=22;fontColor=#000000;strokeColor=#000000;strokeWidth=2;" parent="5" source="8" target="13" edge="1">
                    <mxGeometry relative="1" as="geometry"/>
                </mxCell>
                <mxCell id="8" value="" style="sketch=0;html=1;dashed=0;whitespace=wrap;fillColor=#2875E2;strokeColor=#ffffff;points=[[0.005,0.63,0],[0.1,0.2,0],[0.9,0.2,0],[0.5,0,0],[0.995,0.63,0],[0.72,0.99,0],[0.5,1,0],[0.28,0.99,0]];shape=mxgraph.kubernetes.icon;prIcon=deploy;fontSize=22;" parent="5" vertex="1">
                    <mxGeometry x="54" y="24" width="62" height="58" as="geometry"/>
                </mxCell>
                <mxCell id="12" value="&lt;font color=&quot;#000000&quot;&gt;K8s Deployment&lt;/font&gt;" style="text;html=1;strokeColor=none;fillColor=none;align=center;verticalAlign=middle;whiteSpace=wrap;rounded=0;fontSize=22;" parent="5" vertex="1">
                    <mxGeometry x="-4" y="84" width="188" height="30" as="geometry"/>
                </mxCell>
                <mxCell id="13" value="" style="sketch=0;html=1;dashed=0;whitespace=wrap;fillColor=#2875E2;strokeColor=#ffffff;points=[[0.005,0.63,0],[0.1,0.2,0],[0.9,0.2,0],[0.5,0,0],[0.995,0.63,0],[0.72,0.99,0],[0.5,1,0],[0.28,0.99,0]];shape=mxgraph.kubernetes.icon;prIcon=pod;fontSize=22;" parent="5" vertex="1">
                    <mxGeometry x="58" y="132" width="58" height="56" as="geometry"/>
                </mxCell>
                <mxCell id="35" value="Security Agent" style="shape=image;imageAspect=0;aspect=fixed;verticalLabelPosition=bottom;verticalAlign=top;fontSize=22;fontColor=#000000;image=data:image/png,iVBORw0KGgoAAAANSUhEUgAABYoAAALvCAMAAAD8qAHUAAAAM1BMVEX///8AtMgAtMgAtMgAtMgAtMgAtMgAtMgAtMgAtMgAtMgAtMgAtMgAtMgAtMgAtMgAtMiOkNW4AAAAEHRSTlMAECAwQFBgcICQoLDA0ODwVOCoyAAAHyZJREFUaN7s2213m7iigNGAMebNwP//tSe990xPp51JhA2SEHt/61pNggE/CCE+PgAAAAAAAAAAAAAAAAAAAAAAAAAAAAAAAAAAAAAAAAAAAAAAAAAAAAAAAAAAAAAAAAAAAAAAAAAAAAAAAAAAAAAAAAAAAAAAAAAAAAAAAAAAAAAAAAAAAAAAAAAAAAAAAAAAAAAAAAAAAAAAAAAAAAAAAAAAAAAAAAAAAAAAAAAAAAAAAAAAAAAAAAAAAAAAAAAAAAAAAAAAAAAAAAAAAAAAAAAAAAAAAAAAAAAAAAAAAAAAAAAAAAAAAAAAAAAAAAAAAMhGde+maerb2q4ASBTibln/axBjgBRuz/UXnR0CEH9M/LcSr+uzsk8AIhvW38w3OwUgqnr9w6LFAFE9Vi0GSGxatRggsXXVYoAsU6zFAOlTrMUA6VOsxQDRPLUYILV+1WKAxOpViwFSG7QYILVq0WKA1O6rFgOk1msxQHKDFgNoMQBaDKDFAGgxgBYDoMUAWgyAFgNoMQBaDKDFAGgxgBYD8KvqqcUAWgyAFgNoMQBaDKDFAGgxgBYDoMUAWgyAFgNoMQBaDKDFAGgxgBYDoMUAWgyAFgNoMQBaDKDFAGgxgBYDoMUAWgyAFgNoMQBaDKDFAGgxgBYDoMUAWgyAFgNoMQBaDKDFAGgxgBYDoMUA6TXD/FnTsdVigFTD3eGvnM53LQZIPvEwVFoMEL/E8996+tRigOh+j6sWA8T2+KOnWgwQ2fJnT5+1FgNEdN/eUy0G2Fe3ajFAYuOqxQCJTasWA2Q5QaHFABG1qxYDJFavWgyQ2qjFAKk1qxYDZDws1mKAOKpFiwFynqLQYoA4Wi0GSG7QYgAtBkCLAbQYAC0G0GIAtBhAiwHQYgAtBkCLAbQYAC0G0GIAtBhAiwHQYgAtBkCLAbQYAC0G0GIAtBhAiwHQYgAtBkCLAbQYAC0G0GIAtBhAiwHQYoDcvdNTLQbQYgAt1mIALQbQYi0G0GIALdZiAC0G0GItBtDiIM3wXJ9Tf3eIAS1Opf25GaMaA1qcuMSf5q5ymAEtTlriHxsixoAWJy6xGANanEGJf2zKw4EGtDhtiX/MGTeONKDFaUv8YzVF7VADWpy2xGYpAC1OX+JPk7cAAS1OXOJPnWNdsKbtXG3R4sQtDinxuj7NGJd4+jaPflr+7wB7PIsWJ21xWInNGJcb4VWKyVv9GKdpGtqq5BaHlvjHUgovfBQZYSkm7zN2+HmWDnWxLd5Q4s/t8XUtMcJSTM5u86/n6VCV2eJNJfb07rw3eF9FWIrJucS/nbfLvcQWby3x57I2kxSny/AwhRxZKSbLW7nnpgHhSVu8vcSfL0Jb9HQyTdiBlWJy1P3DuTqU1uJXSvypdXpIMcQZFP/jtFphLX6xxF/vB6QYjq5UUS1+ucRWtUkxxNGvxbf4jRJ/vnqnxVIMx5vW0lv8VonjPryru0xJMaRKcSktHtY3zdmlJD4phoN1rz2zqsaTtPitEk9D19T5pUSKpZji3F9dPzCcosWvlvg5dvdbrimRYimmPMurz6zO0OIXSjxPXdvknRIplmIuNUNx+hZvLPHUP5rqBCmRYimmPNVcbIvDS/yMPCksxVIMm87fE7c4qMRzkklhKZZi+F1fZou/K/GScFJYiqUY/vAsscVfl3hoqvOmRIqlmCJVS3kt/qbEp06JFEsxZbqtpbX4lCWWYinm4trCWnzOEkuxFHN1j6JafNISS7EUc3lDQS0+a4mlWIqhnBYPr38QKZZi0OJdWnzeEkuxFEOuLa52/RRZl1iKpRhybfHGeJ65xFIsxZBti4f9PkHmJZZiKYZ8W3y/SomlWIoh3xbP1T5bn32JpViKIeMWPy5SYimWYsi4xfNFSizFUgw5t7i+RomlWIoh5xbf397qU5RYiqUYcm5xd40SS7EUQ84tbq9RYimWYsi5xbdrlFiKpRgybvH83taepsRSLMWQcYu7i5RYiqUYMmnxP/zs8yollmIphmxb/M1/L6jEwSmeu8ikGK7X4jZeieu2G4eurc6VknVyckoxWnx4i2+/TBjPB5a4mf76f2NzppRIsRSjxTFa/NHO//2PfXVYiavx1/86VudJiRRLMVocp8UfTTdOw6N+a/u+3LxmyW9SWYqlGDJr8ftb9+XGtZsXakixFIMW71vi4YXly1IsxaDFR5f4+5f6pFiKQYsPLvG63k6SEimWYrQ4lxbvX+L1IcVSDFqcuMTpJ4ulWIrhVC0+osRSLMWgxclLbIJCikGLk5fYYzspBi1OXmKL2aQYtDh1iddWiqUYtDhxiafTpESKpRgtPiCCX/5krBIvtRRLMVy6xX36Eq/386REiqUYLT4khKFfjup5VInbE6VEiqUYLT4khYFtKbzEUizFkLbFQRO1pZdYiqUY0rY45EW34kssxVIMaVs8KrEUSzGkbvH3cblAiaVYiiFti7+NyxVKLMVSDGlb/N3K4kuUWIqlGNK2+K7EUizFkLjFixJLsRRD1BY//vz/nRJLsRRD3Ba3y++D4kqJpViKIXKLb88NM8XXKbEUSzFEbfFHt4Qm8UIlLiPFt6bpum6Yfvj1QH3+c+y6R9Mk338xU1w1964bPz/7zxN++bFjPvdQ01RxD8wfm/JjS4YfGyJmV25x9TPGizFxESm+fRb4b/H9YvuHrqlLT3HVfF6PvtmS59S1Mbbm1vbT8sV2LFPf3hTtoi3+/OL8uET3XxfxUiU+a4rrezc+162WsWvS7L/j41e3wxy+J+b998TfvmZT4AGZOuPji7Y4YGTx9Td8LqvEJ0zxZ4W/HG59m+O2jr//Dg7OvZ9f2BVTf99/wqJqx80HpNI1Ld5a4uVWVolPluLmrQr/7yR5VJH335Epvg9v7JPpsecsQdVOL22FGmvx1Ut8nhRX9/657me8l5Hiun/72jT3O9W4Gd7YisFMhRZfucQnSfHtMa17m3cZiaVN8X2n3bJDjat2zuKAUESLr1fiU6S4n9dDLF116hS3e+6X+fHOFHrVLZkcEEpo8QVLfIoUH1TiH4f0cd4Ut7vvlrFOGmIx1uILl/gUKZ7W48zNOVPcHnB9WlKHWIy1+LIlPkWKu/VIY3W+FDeH3CiMr81X770tS6tvBbV4VOJyUvw4NMXfvHuZYYrr8Zgd8cpsTX3ELcvkNbyCWjwocTEpbtaDDdWZUvxYDtoNLwSwO2hbOoErp8W9EpeS4uroFK/P+jQpvj0PuzvYPiR+HndEDIzLafFdiQtJ8cfhKf76COeU4sOGxNtvJD/a5chD8lC4Ulq8VEpcSIqnCC2+nyHF1XjgLth4rlbDwYdktJSilBb3SlxIioc1gjb/FN/mI3fAtkmaAycnTFKU1uLQYfGVS3yOFHcxUrzec0/xsRMC87arwhLhiLy1toWMWtwqcRkpvkdJ8UvzxRFT3B+8jGTTVWGNwxLjMlo8KnEZKb7F+d4vdc4pHjK6KYhVYqvaCmnxU4nLSPFHpO/9Cy9pxkpxdfijyyqfq8Jb6zrIscVKXEiK52y/95FSXB3+kOyZZ4m1uIwWK3EhKZ5ife/veab4+BJveCUqbom1uIQWP5W4kBT3sb72S5VjiiOUOPwi1K+x9RJ39haPSlxIih/RvvZjjimOUOI1dFvaNT7rKM6jfeUIKvFpUtzE+9o3+aU4xozAlHGJX1zyTTYt/uZmU4nPk+I63rd+zi7FUWYEurBtifJmx05LvsmmxZ0Sl5Lij4hf+zazFMcZh4ZtYJWmxJ8XyEriztvirxeJpivxvZ+mqW+keIsp12Hx4SmO83rLks+kdZbnH5vO2eUMJW7/WiI73aQ43JjrsPjoFEcah4Y9rezXdDqFO4/616HTmGWJ/7aJrRQH69ZMh8VHpzjS7cAjZFvua0qNwp1pkuKvwo5fH7dbohLfl+zWS54kxVErcM8nxbEuQSG3aPWSNMWmi082Mr53XddUm6YyopW4zfAB30lS/O1mPj8n4Kfup89/xJmXPDbFt0iZC5oqnta0RnkrfFI5Won71wYjUvzDv4yUpr5rm3/rXNP2rz1nqjNJcTW/F9jPx8M/L07jNM1vVe6N12ye0/BzK974SFYXK/EuJR6yfC58lhT//g2ex+4eciGr2hee+D0ySfHrj8mmf947VdN20/LSk8oXpyfmof19Q5rH8OLvMkWhxAeVOINh8VlSPP1a4cemstXd1m/+nEeKX5yeeHbNd7N4v98tBNwGvLKGZX782y++9a+Mjnv5UuKDSpx+ic5ZUvzfAeLc3+vtP1xtjXGdRYpfmV2Zu7Btr+6/xHDe7zz5xfD1h76/MPfspTslPqjE6yDFYX7MVI5t/eqPV9vu9R85pPiFydlp04Pg+vEMPgs3D2KH749VsznGXvRQ4oNKnP7cOkuKb8ObD22a5ZCv/HEp3v5yx7T9r/x/jb8P+NbLwjNsU+5bC29xsRIfU2ITFPFUW+73M0jx1md2y4tLI2/D8u3jsK2XheDTeuPdysa30lHi4J9NvrK4CR7mHKvOq8VN8hTXW1fdHrm8YNubJsuWKd37tsq3MqbER5R4rc6S4qPFuD3Y0OIueYqHbfU7dM3ttkHxc9tJfZsNi5U4eYmTP7W7VIo3tHhKneJtg+LnsUsLukOH55tmjgyLlfiIEq+1FEedNL8FD+9Sp3g4cBx66KD4hdHFphYbFivxASXuPqQ47q4IXglwS5viTYPi4eBpri2D4pce725qsdeflXj3EuewKuFiKf4IXcrapk3xcHT9tpgPH59veava2mIl3rvEcyXF0VNc77w9x6S4ymd24uOj3fD08NUZty3veHvlTon3LfGSxSl1tRSHjjenpCneMCVw/AV9wztxr7+BseEdkkHQlLi8El8vxYHD4jlpisOnBI4/jW5xDuIY/pErSVPi4kp8vRSHDvJSpvie09qu8Gnr5zt/ZsMyDevZlLi8El8wxe2u8TwkxeEjxPH4/RWeyPfO6Xuc5KPEeT56uF6Kq+xTHP7QLsK9engh+2hz0rWsKfFOJc7nFut6KQ4cc3bpUhz+CKvNZW/tcVmoo0UfJc5vsuuCKX7knuL9X88+/B5ilyMYPCvtjTslLq7EV0xx2Ecek6U4fHTYHL+zghcV77CoLvyDW1qsxKWV+Iop/thzxHlAih8ZDYrDR6rd2f4YSvwhxWm/XM+8U/zMaFAcvH5ilweIwcNiayiUuLQSXzLFQU+i5lQprnIaFAefHvs8SQteROEtDyUurMSXTHG34zse+6c4eHb2ns2u2m19WfDKOW95KHFhJb5kih9Zpzh0wjTKMoJn5BF66HzIIHBKXFaJL5niJusULxntsSr2KLW3nE2Jr1liKc4txbecXjkLPjv2mrvN6tOjxFJ83RSHLmWLsoggdKp43O0vzhlNlKPEUnysHcddu6c4dKr4EWNHTdE3JvTje/dZicsqsRS/Wc/dUxw6LIzywlnovPV+0wWhaygmmVPiokosxZmlOPRBWZTnVnX8jQl+UKhzSlxUiaU4sxSHHo8hp5Njz415Rh+Io8RSLMW/C31QFuWESrExocvZPLdT4qJKXE6K6+bedcM0Tb+eAMvnv4eua5rqLCkechoUhm7MnvPW9xyv3SixFH8/u9g8+un7h13PsWtv+ac4cM3CEuXkCF1AkWJ+2vt2SlxUic+d4ureTcumPzMNP3qccYqzWkCQZGMsoVDiK5b4vCmu7v3ztT+1TPmmuD7yynVUFfcdoGZ1X4AS55biH7OuR9q2l+rHePjFIUmKQw9Hm9O5se91IXSCWu+UuKQSB3/dMrofrNoxxjg9SYrbdd/fF+Xc2HdjQpdt3BRPibf8bPchxbuqh2Vdi01xl9OQME0Um5yuRrzgm/FEohJn/5z3ZClupjWWJCnuz5jiNGekhcVKXFKJz5XiiCFOlOIpp6OR5roQ+upzJ3pKXFCJz5TiW8wQS3GyjZFiJb5gic+T4qpf1/JTPIf9ukGKpViJiyrxaVJ8X9YrpDirDCVK8XSa+zSU+GoprsZ1leLYKQ58haaXYpT4Gim+zasUZ/uyXSfFKPElUtyuqxQnWFMrxSixFP9Pv14mxbUUf3yMUqzE1yvxCVI8rNdJcSPFwW+WSLESv/uzUnyGEkuxFKPEUpy8xFIsxSixFCcvsRRLMUosxUFHWIqlGCUuosR5p7hZpfh6Ke6lWImvV+KsU1wtUmxdsRQr8RVKnHWKp/VqKfaKhxQr8TVLnHOKH6sUR6rfP1ukGCWW4nqR4rQpDmziIMVKrMQFp3hcpfgUKd771HimuQKgxFL8zob9m+f001xcivuSU5zV5QglvnqKX3xmN0991zTVH7Mdzb0bpiX7FD9zOhqB9yWzFCuxEheb4lcGxc/uzwb/XuRuXHJOcVbzpIHvWqz7/tVaipX4jRIvJy1xtinePCie2irwV98ep0/xmlWKqyRnZCOFSrzxr0rxdrdtHV76evdb4CQp7nNKcZskiq0UK/EFS5xriodNIe42jsvyTXGXU4dCz417krF4LYZKXFCJc03xlgds4+YvZb4pDh0SRpkPSzNrO+Z0Y0BuJe5LLXGmKf5P+/a2riiOAGBUlJMIst//aceqnp6a7qotSYQQdK2L7pv6tijwE0JoIkrcxf/5clNc71K/l36nx7Vw1Q8NXERyV8NPLHH7tiUuNMXh8xNJv365Kb4UtTsCF2RPe/Tfy3afWOLnr+Ae+/FBmSmeNy1xwSkODdGcZTfssZ4j9GJ01cPPK/HzI7I7SfHawtdPpN2RFJzi0DcDszy02uMhYuhseS+In1fi+p3vk4pMcRda4sTrYMEpDh2ItgWccpsMR4Yd8s8xSvz8ke5ZivebKk59XlRwikMHokNJB8eaz+1CbwsqSfy4Ele7nxEfl+Jp47v0glMcOhDNs4Ag/8z1Of9HcpASP19Y1UjxfgUYTu+X4uBp8iy3Y6HXxEuuE90Cig8u8fNbxpMUr++ydY0KTnHoZSjP4+LQmaL+wJ/IUUosxdlTHLhN6ctZS05x6HO7qYATb4ONCV3G2Kjix5X4eYorKV5ft/XAqOQUX0uaocg+XRL8mqWndp9X4ucpNle8gX7tvB0pxaED0Ty36KGD1LWmS4aS7gkoq8TPP3+U4t1SnP4BJac4dAlBnjUUt7wbU4Wmf9DFzyvxwrlRS/FO5//8nikOXlib5Y4seIx+yftxpoo/sMQLZbhXUry2cestKjrFoffoWXZJ8Bh9nWFq6OI5U8UfWeKFs+0mxVK8ZoqDR4ZZHtxljWPowWiq+DNLvJSGQYqleMUUBw9Esxx5wQs6+hU+LPiGoJPGjyzx6Ty/b4ulOEuKY0IVPBBd8SW3bwUvZ5tfHxafS/riFFjixQ25VVIsxaulOHggmmWn3PMNi0OXa+RZPMIvfSklXrxzmiopluK17pyCB6JZ1u8EXxjmc6ZD8evrKo5ZDeWU+I1bfNwUfx0pxVE/X/BANMf6nfALw5Bnt5uf+OgSL7f4IsVSvNIi6PAZihzjwynTGL0L/hzrJz65xK9tkBSv+VMf8cXnqIVnETMUGaYoujxj9PMc/DnWT3x0id+1xQd+8bk9UoqjNjZ8hmKNhQsLqjxj9PDpCe93fHiJ37TFB07xcKQUR21sFzEsHvc+Gdd5HzniKw/6+OElfs8Wl5jiwNPyXkKKQ8eMUZPF54gUb1+mOmKMft7+M3IsG6HsEr9li0tMcb31ObnmXw8NSNShd4tpcb/1/oiYO0hcSnQJnyi2qFiJ37PFJab4svV4cI8Uj1vslTwtbiO2JWl1QzVFfEKrkEr8ji0uMcXBeTsXkOLgR2xR86j3qBZvPUdx33Zboko8K6QSv2WLi0zxfeMErZni4Lv3qKVebVSKv8ZtFxVEbc2t2rLE20/HcIwSv12Li0xxcN7q/VN822a8GDcs/pq3fZYVtTWR88WXqD8+W8mWybX0Er9bi4tMcb/JSHObFPfhGYl5NSFyWPxY0/tio87ValtzjzkFmvnLoLhAbfklfrMWF5niZuMn9mumOKZSMS2+x7Z4fuUltPb2fOMityZ4U6pr5Jc0KFbiN21xkSmuvrZt8ZopjlrsMFRrnQt/HI2mHeVVM8xL8ydN5KaMYedAHXvBsXxCid+1xUWm+BTxIGe67JviKq6WzRa/wa8j7xq7qOTS3YL28Bi7KcPylpyj/6g1xUr8ti0uM8VRt619tWeKY+/dx2blPfPvS1N3jsjw/2/8838bvyULMa6H+D/pRTsljmzxvZLiPJPFPw+N2Bivetrfood218s2f/jXBzRLOb601zFulfY15bLQfrdjzt094e/dVFKJY1s8VVL8irjH6rE35qumuE9oynzrlnN8nr/SzeO1q3//jKqu+36cEr5wdU8bpPf1v0+Fc3Od0r7TWSaV+G1bXGiKh4RzPnRWqKpXTXGdWstx6Oun29x9vW4ef7m/tE6seWEbhr7v27p7/Pc2pn+XTiaV+H1bXGiK67RTvm+eHSh13fbDGDrWDJ6XfCmVTw/P8SunpVdQbl/7GmVSid+4xYWm+HR/ZRz4YxD2y/BjRBh/Sxyc4peCWW82RbF66qr7riU2PaHEqS0epXizQyKD4BS/NI+w4Z9eeVtemIpZhSXFGTTHLPFiiwcpTlbNh0nx+YUPWVoom3VSYHHY2e+4Owad3N5lPmiJl1tcSXGq/jApPk3pH7I4KTAV9Y3H3fbG5I1nJX7v+eJiU7zzzGRMil+YRuhfPDtW1Ze7U470AqsS7zO5tPSux0WKDzpbHJ7iKv1Dlo/RJt83Hl4+WzfTCKUSv9ji0hdDlpviHe+GI1OcsAo64kPyPbqbXn+u45GdEu+395bOw6mW4rRj4zApTn9wt23ot9iaPW5WPLLLMCE4Hb7EAafK2Ehxiv4oKU6u5f1UVIuDZtM6JVbiMksccqrMQ3OW4mjTUVKcOiweT0W1uCnryqDEhyhxV9LcUtjBOY3/07dnKQ4o3HyQFKcO4PtTUS3uTwW2WIl3H/Q8LXFb1ix/wsFZyKxF0Sne6SFRQooTV3m1p6JafAvcmqsSv5chvcTPn/a1pX2Xb+pWSXF5E5NpKU58xng5FdXiKXRrWiV+J116iZ+Pp9vyrivfHPmVFJc2MZma4rSLRsTfz1K/U2kt7nQyw0TxnF7ivsA1iCnNuEpxuS2ut9/QKWpPZZg4Dx+lZ3nXY7aeOIc+vcRPK94eqRlnKS62xbEpruLXe9yiPuC8/YKSpqituXvbOYt7comf3h3teB1NaEYnxcuux0hxQov7yA/Y/JeI2aBq62tkEc9SPsAlvcSnW5ElTlkGe5PigiYmX0xxfIujF9E0G08LxB2P7VzKZYFtErBU4icD6n3nluKHRaMUB12374dIcfRAMf4GvLptOyUQuV+2m6QwOVHAVPFiiU+FljilxVJcQoHWSnHsqx4pn9Bselna9vtGPNA2ObF/ApZLfJoLLXFCi6W4kFvzlVJ8qiNKOaUdY31JX/oybrG+2ZA4o3N6iU9jqSWObvEkxcG/7PUQKY7ZztQnBeftHpglnEOrzxjPFhPn9efRQ9BbD12xJY5tsbnivQdgq6f48ZOGbmdf3k+RsklVv2qMe3MTmbXJJf7zuuJSVoNXMWfJVYo3iVze1x1+P7bDZimaV36KoZgUrzpMH87SmN2YvpKwKbfEp6j1xRcpjhwOZnnhY7y2L+6ZNuSi8Vp1zsPaMwP3/rzzxgjxPsPH33bekFy7uah5/uDZswL6drAUPw6bbsslBPdb36xzLF2W41TUTzEPzWsb8/I0xd3UxG4jnH/uu6gXzoein7gGrrcs4QJyuBT/+HmvG9T4PvZtve52trfNf9LLdZXR6P3FDkfcCnz7a7SKuJ9/vMY+xt2bDGUvQgwZIhQxlD9iin8cOt16K43H1UbCf5hKu35/VR7W+ojXLkzzrVvt25/7tG2ZOjMTO+v+LtYY/w7o3zt9rEv8ZstPMsYijr6Dpvjnpne31yI0jX1Xb74XqqYf53UXUPw2Nu5uaYPjaWjXvghd+kmHD6npb+M1bV+0wziOfbGrwZ+OEKZrIdt94BT/7FzdXcd77FTE2PdNnfVW6lz313FaabXcNzke4tZRDt1WY5iqHUJ3yXRtTBCzvcdo5a/TY35cNMb//r9/zEmWc/gdPMV//9B12/eP3/abxeo/fv2h//HD1ztfAeu6eWzH9ccGbXFXdGkfI5vnA+THIZjpXmDhnmW69bUMw1ulmH9dmepH8B9V/qX/60p0zr0hP7di/uc9ya3va682AwAAAAAAAAAAAAAAAAAAAAAAAAAAAAAAAAAAAAAAAAAAAAAAAAAAAAAAAAAAAAAAAAAAAAAAAAAAAAAAAAAAAAAAAAAAAAAAAAAAAAAAAAAAAAAAAAAAAAAAAAAAAAAAAAAAAAAAAAAAAAAAAAAAAAAAAAAAAAAAAAAAAAAAAAAAAAAAAAAAAAAAAAAAAAAAAAAAAAAAAAAAAAAAAAAAAAAAAAAAAAAAAAAAAAAAAAAAAAAAAAAAAAAAAAAAAAAAAAAAAAAAAAAAAAAAAAAAAAAAAAAAAAAAAAAAAAAAAAAAAAAAAAAAAAAAAAAAAAAAAAAAAAAAAAAAAAAAAAAAAAAAAAAAAAAAAAAAAAAAAAAAAAAAAAAAAAAAAAAAAAAAAAAAAADb+w+mfezYNzpodAAAAABJRU5ErkJggg==;" vertex="1" parent="5">
                    <mxGeometry x="24.600000000000023" y="277" width="124.8" height="66" as="geometry"/>
                </mxCell>
                <mxCell id="4" value="EC2 instance contents" style="points=[[0,0],[0.25,0],[0.5,0],[0.75,0],[1,0],[1,0.25],[1,0.5],[1,0.75],[1,1],[0.75,1],[0.5,1],[0.25,1],[0,1],[0,0.75],[0,0.5],[0,0.25]];outlineConnect=0;gradientColor=none;html=1;whiteSpace=wrap;fontSize=12;fontStyle=0;container=1;pointerEvents=0;collapsible=0;recursiveResize=0;shape=mxgraph.aws4.group;grIcon=mxgraph.aws4.group_ec2_instance_contents;strokeColor=#D86613;fillColor=none;verticalAlign=top;align=left;spacingLeft=30;fontColor=#D86613;dashed=0;" parent="2" vertex="1">
                    <mxGeometry x="514" y="182" width="180" height="382" as="geometry"/>
                </mxCell>
                <mxCell id="14" value="" style="sketch=0;html=1;dashed=0;whitespace=wrap;fillColor=#2875E2;strokeColor=#ffffff;points=[[0.005,0.63,0],[0.1,0.2,0],[0.9,0.2,0],[0.5,0,0],[0.995,0.63,0],[0.72,0.99,0],[0.5,1,0],[0.28,0.99,0]];shape=mxgraph.kubernetes.icon;prIcon=pod;fontSize=22;" parent="4" vertex="1">
                    <mxGeometry x="61" y="124" width="58" height="56" as="geometry"/>
                </mxCell>
                <mxCell id="36" value="Security Agent" style="shape=image;imageAspect=0;aspect=fixed;verticalLabelPosition=bottom;verticalAlign=top;fontSize=22;fontColor=#000000;image=data:image/png,iVBORw0KGgoAAAANSUhEUgAABYoAAALvCAMAAAD8qAHUAAAAM1BMVEX///8AtMgAtMgAtMgAtMgAtMgAtMgAtMgAtMgAtMgAtMgAtMgAtMgAtMgAtMgAtMgAtMiOkNW4AAAAEHRSTlMAECAwQFBgcICQoLDA0ODwVOCoyAAAHyZJREFUaN7s2213m7iigNGAMebNwP//tSe990xPp51JhA2SEHt/61pNggE/CCE+PgAAAAAAAAAAAAAAAAAAAAAAAAAAAAAAAAAAAAAAAAAAAAAAAAAAAAAAAAAAAAAAAAAAAAAAAAAAAAAAAAAAAAAAAAAAAAAAAAAAAAAAAAAAAAAAAAAAAAAAAAAAAAAAAAAAAAAAAAAAAAAAAAAAAAAAAAAAAAAAAAAAAAAAAAAAAAAAAAAAAAAAAAAAAAAAAAAAAAAAAAAAAAAAAAAAAAAAAAAAAAAAAAAAAAAAAAAAAAAAAAAAAAAAAAAAAAAAAAAAAMhGde+maerb2q4ASBTibln/axBjgBRuz/UXnR0CEH9M/LcSr+uzsk8AIhvW38w3OwUgqnr9w6LFAFE9Vi0GSGxatRggsXXVYoAsU6zFAOlTrMUA6VOsxQDRPLUYILV+1WKAxOpViwFSG7QYILVq0WKA1O6rFgOk1msxQHKDFgNoMQBaDKDFAGgxgBYDoMUAWgyAFgNoMQBaDKDFAGgxgBYD8KvqqcUAWgyAFgNoMQBaDKDFAGgxgBYDoMUAWgyAFgNoMQBaDKDFAGgxgBYDoMUAWgyAFgNoMQBaDKDFAGgxgBYDoMUAWgyAFgNoMQBaDKDFAGgxgBYDoMUAWgyAFgNoMQBaDKDFAGgxgBYDoMUA6TXD/FnTsdVigFTD3eGvnM53LQZIPvEwVFoMEL/E8996+tRigOh+j6sWA8T2+KOnWgwQ2fJnT5+1FgNEdN/eUy0G2Fe3ajFAYuOqxQCJTasWA2Q5QaHFABG1qxYDJFavWgyQ2qjFAKk1qxYDZDws1mKAOKpFiwFynqLQYoA4Wi0GSG7QYgAtBkCLAbQYAC0G0GIAtBhAiwHQYgAtBkCLAbQYAC0G0GIAtBhAiwHQYgAtBkCLAbQYAC0G0GIAtBhAiwHQYgAtBkCLAbQYAC0G0GIAtBhAiwHQYoDcvdNTLQbQYgAt1mIALQbQYi0G0GIALdZiAC0G0GItBtDiIM3wXJ9Tf3eIAS1Opf25GaMaA1qcuMSf5q5ymAEtTlriHxsixoAWJy6xGANanEGJf2zKw4EGtDhtiX/MGTeONKDFaUv8YzVF7VADWpy2xGYpAC1OX+JPk7cAAS1OXOJPnWNdsKbtXG3R4sQtDinxuj7NGJd4+jaPflr+7wB7PIsWJ21xWInNGJcb4VWKyVv9GKdpGtqq5BaHlvjHUgovfBQZYSkm7zN2+HmWDnWxLd5Q4s/t8XUtMcJSTM5u86/n6VCV2eJNJfb07rw3eF9FWIrJucS/nbfLvcQWby3x57I2kxSny/AwhRxZKSbLW7nnpgHhSVu8vcSfL0Jb9HQyTdiBlWJy1P3DuTqU1uJXSvypdXpIMcQZFP/jtFphLX6xxF/vB6QYjq5UUS1+ucRWtUkxxNGvxbf4jRJ/vnqnxVIMx5vW0lv8VonjPryru0xJMaRKcSktHtY3zdmlJD4phoN1rz2zqsaTtPitEk9D19T5pUSKpZji3F9dPzCcosWvlvg5dvdbrimRYimmPMurz6zO0OIXSjxPXdvknRIplmIuNUNx+hZvLPHUP5rqBCmRYimmPNVcbIvDS/yMPCksxVIMm87fE7c4qMRzkklhKZZi+F1fZou/K/GScFJYiqUY/vAsscVfl3hoqvOmRIqlmCJVS3kt/qbEp06JFEsxZbqtpbX4lCWWYinm4trCWnzOEkuxFHN1j6JafNISS7EUc3lDQS0+a4mlWIqhnBYPr38QKZZi0OJdWnzeEkuxFEOuLa52/RRZl1iKpRhybfHGeJ65xFIsxZBti4f9PkHmJZZiKYZ8W3y/SomlWIoh3xbP1T5bn32JpViKIeMWPy5SYimWYsi4xfNFSizFUgw5t7i+RomlWIoh5xbf397qU5RYiqUYcm5xd40SS7EUQ84tbq9RYimWYsi5xbdrlFiKpRgybvH83taepsRSLMWQcYu7i5RYiqUYMmnxP/zs8yollmIphmxb/M1/L6jEwSmeu8ikGK7X4jZeieu2G4eurc6VknVyckoxWnx4i2+/TBjPB5a4mf76f2NzppRIsRSjxTFa/NHO//2PfXVYiavx1/86VudJiRRLMVocp8UfTTdOw6N+a/u+3LxmyW9SWYqlGDJr8ftb9+XGtZsXakixFIMW71vi4YXly1IsxaDFR5f4+5f6pFiKQYsPLvG63k6SEimWYrQ4lxbvX+L1IcVSDFqcuMTpJ4ulWIrhVC0+osRSLMWgxclLbIJCikGLk5fYYzspBi1OXmKL2aQYtDh1iddWiqUYtDhxiafTpESKpRgtPiCCX/5krBIvtRRLMVy6xX36Eq/386REiqUYLT4khKFfjup5VInbE6VEiqUYLT4khYFtKbzEUizFkLbFQRO1pZdYiqUY0rY45EW34kssxVIMaVs8KrEUSzGkbvH3cblAiaVYiiFti7+NyxVKLMVSDGlb/N3K4kuUWIqlGNK2+K7EUizFkLjFixJLsRRD1BY//vz/nRJLsRRD3Ba3y++D4kqJpViKIXKLb88NM8XXKbEUSzFEbfFHt4Qm8UIlLiPFt6bpum6Yfvj1QH3+c+y6R9Mk338xU1w1964bPz/7zxN++bFjPvdQ01RxD8wfm/JjS4YfGyJmV25x9TPGizFxESm+fRb4b/H9YvuHrqlLT3HVfF6PvtmS59S1Mbbm1vbT8sV2LFPf3hTtoi3+/OL8uET3XxfxUiU+a4rrezc+162WsWvS7L/j41e3wxy+J+b998TfvmZT4AGZOuPji7Y4YGTx9Td8LqvEJ0zxZ4W/HG59m+O2jr//Dg7OvZ9f2BVTf99/wqJqx80HpNI1Ld5a4uVWVolPluLmrQr/7yR5VJH335Epvg9v7JPpsecsQdVOL22FGmvx1Ut8nhRX9/657me8l5Hiun/72jT3O9W4Gd7YisFMhRZfucQnSfHtMa17m3cZiaVN8X2n3bJDjat2zuKAUESLr1fiU6S4n9dDLF116hS3e+6X+fHOFHrVLZkcEEpo8QVLfIoUH1TiH4f0cd4Ut7vvlrFOGmIx1uILl/gUKZ7W48zNOVPcHnB9WlKHWIy1+LIlPkWKu/VIY3W+FDeH3CiMr81X770tS6tvBbV4VOJyUvw4NMXfvHuZYYrr8Zgd8cpsTX3ELcvkNbyCWjwocTEpbtaDDdWZUvxYDtoNLwSwO2hbOoErp8W9EpeS4uroFK/P+jQpvj0PuzvYPiR+HndEDIzLafFdiQtJ8cfhKf76COeU4sOGxNtvJD/a5chD8lC4Ulq8VEpcSIqnCC2+nyHF1XjgLth4rlbDwYdktJSilBb3SlxIioc1gjb/FN/mI3fAtkmaAycnTFKU1uLQYfGVS3yOFHcxUrzec0/xsRMC87arwhLhiLy1toWMWtwqcRkpvkdJ8UvzxRFT3B+8jGTTVWGNwxLjMlo8KnEZKb7F+d4vdc4pHjK6KYhVYqvaCmnxU4nLSPFHpO/9Cy9pxkpxdfijyyqfq8Jb6zrIscVKXEiK52y/95FSXB3+kOyZZ4m1uIwWK3EhKZ5ife/veab4+BJveCUqbom1uIQWP5W4kBT3sb72S5VjiiOUOPwi1K+x9RJ39haPSlxIih/RvvZjjimOUOI1dFvaNT7rKM6jfeUIKvFpUtzE+9o3+aU4xozAlHGJX1zyTTYt/uZmU4nPk+I63rd+zi7FUWYEurBtifJmx05LvsmmxZ0Sl5Lij4hf+zazFMcZh4ZtYJWmxJ8XyEriztvirxeJpivxvZ+mqW+keIsp12Hx4SmO83rLks+kdZbnH5vO2eUMJW7/WiI73aQ43JjrsPjoFEcah4Y9rezXdDqFO4/616HTmGWJ/7aJrRQH69ZMh8VHpzjS7cAjZFvua0qNwp1pkuKvwo5fH7dbohLfl+zWS54kxVErcM8nxbEuQSG3aPWSNMWmi082Mr53XddUm6YyopW4zfAB30lS/O1mPj8n4Kfup89/xJmXPDbFt0iZC5oqnta0RnkrfFI5Won71wYjUvzDv4yUpr5rm3/rXNP2rz1nqjNJcTW/F9jPx8M/L07jNM1vVe6N12ye0/BzK974SFYXK/EuJR6yfC58lhT//g2ex+4eciGr2hee+D0ySfHrj8mmf947VdN20/LSk8oXpyfmof19Q5rH8OLvMkWhxAeVOINh8VlSPP1a4cemstXd1m/+nEeKX5yeeHbNd7N4v98tBNwGvLKGZX782y++9a+Mjnv5UuKDSpx+ic5ZUvzfAeLc3+vtP1xtjXGdRYpfmV2Zu7Btr+6/xHDe7zz5xfD1h76/MPfspTslPqjE6yDFYX7MVI5t/eqPV9vu9R85pPiFydlp04Pg+vEMPgs3D2KH749VsznGXvRQ4oNKnP7cOkuKb8ObD22a5ZCv/HEp3v5yx7T9r/x/jb8P+NbLwjNsU+5bC29xsRIfU2ITFPFUW+73M0jx1md2y4tLI2/D8u3jsK2XheDTeuPdysa30lHi4J9NvrK4CR7mHKvOq8VN8hTXW1fdHrm8YNubJsuWKd37tsq3MqbER5R4rc6S4qPFuD3Y0OIueYqHbfU7dM3ttkHxc9tJfZsNi5U4eYmTP7W7VIo3tHhKneJtg+LnsUsLukOH55tmjgyLlfiIEq+1FEedNL8FD+9Sp3g4cBx66KD4hdHFphYbFivxASXuPqQ47q4IXglwS5viTYPi4eBpri2D4pce725qsdeflXj3EuewKuFiKf4IXcrapk3xcHT9tpgPH59veava2mIl3rvEcyXF0VNc77w9x6S4ymd24uOj3fD08NUZty3veHvlTon3LfGSxSl1tRSHjjenpCneMCVw/AV9wztxr7+BseEdkkHQlLi8El8vxYHD4jlpisOnBI4/jW5xDuIY/pErSVPi4kp8vRSHDvJSpvie09qu8Gnr5zt/ZsMyDevZlLi8El8wxe2u8TwkxeEjxPH4/RWeyPfO6Xuc5KPEeT56uF6Kq+xTHP7QLsK9engh+2hz0rWsKfFOJc7nFut6KQ4cc3bpUhz+CKvNZW/tcVmoo0UfJc5vsuuCKX7knuL9X88+/B5ilyMYPCvtjTslLq7EV0xx2Ecek6U4fHTYHL+zghcV77CoLvyDW1qsxKWV+Iop/thzxHlAih8ZDYrDR6rd2f4YSvwhxWm/XM+8U/zMaFAcvH5ilweIwcNiayiUuLQSXzLFQU+i5lQprnIaFAefHvs8SQteROEtDyUurMSXTHG34zse+6c4eHb2ns2u2m19WfDKOW95KHFhJb5kih9Zpzh0wjTKMoJn5BF66HzIIHBKXFaJL5niJusULxntsSr2KLW3nE2Jr1liKc4txbecXjkLPjv2mrvN6tOjxFJ83RSHLmWLsoggdKp43O0vzhlNlKPEUnysHcddu6c4dKr4EWNHTdE3JvTje/dZicsqsRS/Wc/dUxw6LIzywlnovPV+0wWhaygmmVPiokosxZmlOPRBWZTnVnX8jQl+UKhzSlxUiaU4sxSHHo8hp5Njz415Rh+Io8RSLMW/C31QFuWESrExocvZPLdT4qJKXE6K6+bedcM0Tb+eAMvnv4eua5rqLCkechoUhm7MnvPW9xyv3SixFH8/u9g8+un7h13PsWtv+ac4cM3CEuXkCF1AkWJ+2vt2SlxUic+d4ureTcumPzMNP3qccYqzWkCQZGMsoVDiK5b4vCmu7v3ztT+1TPmmuD7yynVUFfcdoGZ1X4AS55biH7OuR9q2l+rHePjFIUmKQw9Hm9O5se91IXSCWu+UuKQSB3/dMrofrNoxxjg9SYrbdd/fF+Xc2HdjQpdt3BRPibf8bPchxbuqh2Vdi01xl9OQME0Um5yuRrzgm/FEohJn/5z3ZClupjWWJCnuz5jiNGekhcVKXFKJz5XiiCFOlOIpp6OR5roQ+upzJ3pKXFCJz5TiW8wQS3GyjZFiJb5gic+T4qpf1/JTPIf9ukGKpViJiyrxaVJ8X9YrpDirDCVK8XSa+zSU+GoprsZ1leLYKQ58haaXYpT4Gim+zasUZ/uyXSfFKPElUtyuqxQnWFMrxSixFP9Pv14mxbUUf3yMUqzE1yvxCVI8rNdJcSPFwW+WSLESv/uzUnyGEkuxFKPEUpy8xFIsxSixFCcvsRRLMUosxUFHWIqlGCUuosR5p7hZpfh6Ke6lWImvV+KsU1wtUmxdsRQr8RVKnHWKp/VqKfaKhxQr8TVLnHOKH6sUR6rfP1ukGCWW4nqR4rQpDmziIMVKrMQFp3hcpfgUKd771HimuQKgxFL8zob9m+f001xcivuSU5zV5QglvnqKX3xmN0991zTVH7Mdzb0bpiX7FD9zOhqB9yWzFCuxEheb4lcGxc/uzwb/XuRuXHJOcVbzpIHvWqz7/tVaipX4jRIvJy1xtinePCie2irwV98ep0/xmlWKqyRnZCOFSrzxr0rxdrdtHV76evdb4CQp7nNKcZskiq0UK/EFS5xriodNIe42jsvyTXGXU4dCz417krF4LYZKXFCJc03xlgds4+YvZb4pDh0SRpkPSzNrO+Z0Y0BuJe5LLXGmKf5P+/a2riiOAGBUlJMIst//aceqnp6a7qotSYQQdK2L7pv6tijwE0JoIkrcxf/5clNc71K/l36nx7Vw1Q8NXERyV8NPLHH7tiUuNMXh8xNJv365Kb4UtTsCF2RPe/Tfy3afWOLnr+Ae+/FBmSmeNy1xwSkODdGcZTfssZ4j9GJ01cPPK/HzI7I7SfHawtdPpN2RFJzi0DcDszy02uMhYuhseS+In1fi+p3vk4pMcRda4sTrYMEpDh2ItgWccpsMR4Yd8s8xSvz8ke5ZivebKk59XlRwikMHokNJB8eaz+1CbwsqSfy4Ele7nxEfl+Jp47v0glMcOhDNs4Ag/8z1Of9HcpASP19Y1UjxfgUYTu+X4uBp8iy3Y6HXxEuuE90Cig8u8fNbxpMUr++ydY0KTnHoZSjP4+LQmaL+wJ/IUUosxdlTHLhN6ctZS05x6HO7qYATb4ONCV3G2Kjix5X4eYorKV5ft/XAqOQUX0uaocg+XRL8mqWndp9X4ucpNle8gX7tvB0pxaED0Ty36KGD1LWmS4aS7gkoq8TPP3+U4t1SnP4BJac4dAlBnjUUt7wbU4Wmf9DFzyvxwrlRS/FO5//8nikOXlib5Y4seIx+yftxpoo/sMQLZbhXUry2cestKjrFoffoWXZJ8Bh9nWFq6OI5U8UfWeKFs+0mxVK8ZoqDR4ZZHtxljWPowWiq+DNLvJSGQYqleMUUBw9Esxx5wQs6+hU+LPiGoJPGjyzx6Ty/b4ulOEuKY0IVPBBd8SW3bwUvZ5tfHxafS/riFFjixQ25VVIsxaulOHggmmWn3PMNi0OXa+RZPMIvfSklXrxzmiopluK17pyCB6JZ1u8EXxjmc6ZD8evrKo5ZDeWU+I1bfNwUfx0pxVE/X/BANMf6nfALw5Bnt5uf+OgSL7f4IsVSvNIi6PAZihzjwynTGL0L/hzrJz65xK9tkBSv+VMf8cXnqIVnETMUGaYoujxj9PMc/DnWT3x0id+1xQd+8bk9UoqjNjZ8hmKNhQsLqjxj9PDpCe93fHiJ37TFB07xcKQUR21sFzEsHvc+Gdd5HzniKw/6+OElfs8Wl5jiwNPyXkKKQ8eMUZPF54gUb1+mOmKMft7+M3IsG6HsEr9li0tMcb31ObnmXw8NSNShd4tpcb/1/oiYO0hcSnQJnyi2qFiJ37PFJab4svV4cI8Uj1vslTwtbiO2JWl1QzVFfEKrkEr8ji0uMcXBeTsXkOLgR2xR86j3qBZvPUdx33Zboko8K6QSv2WLi0zxfeMErZni4Lv3qKVebVSKv8ZtFxVEbc2t2rLE20/HcIwSv12Li0xxcN7q/VN822a8GDcs/pq3fZYVtTWR88WXqD8+W8mWybX0Er9bi4tMcb/JSHObFPfhGYl5NSFyWPxY0/tio87ValtzjzkFmvnLoLhAbfklfrMWF5niZuMn9mumOKZSMS2+x7Z4fuUltPb2fOMityZ4U6pr5Jc0KFbiN21xkSmuvrZt8ZopjlrsMFRrnQt/HI2mHeVVM8xL8ydN5KaMYedAHXvBsXxCid+1xUWm+BTxIGe67JviKq6WzRa/wa8j7xq7qOTS3YL28Bi7KcPylpyj/6g1xUr8ti0uM8VRt619tWeKY+/dx2blPfPvS1N3jsjw/2/8838bvyULMa6H+D/pRTsljmzxvZLiPJPFPw+N2Bivetrfood218s2f/jXBzRLOb601zFulfY15bLQfrdjzt094e/dVFKJY1s8VVL8irjH6rE35qumuE9oynzrlnN8nr/SzeO1q3//jKqu+36cEr5wdU8bpPf1v0+Fc3Od0r7TWSaV+G1bXGiKh4RzPnRWqKpXTXGdWstx6Oun29x9vW4ef7m/tE6seWEbhr7v27p7/Pc2pn+XTiaV+H1bXGiK67RTvm+eHSh13fbDGDrWDJ6XfCmVTw/P8SunpVdQbl/7GmVSid+4xYWm+HR/ZRz4YxD2y/BjRBh/Sxyc4peCWW82RbF66qr7riU2PaHEqS0epXizQyKD4BS/NI+w4Z9eeVtemIpZhSXFGTTHLPFiiwcpTlbNh0nx+YUPWVoom3VSYHHY2e+4Owad3N5lPmiJl1tcSXGq/jApPk3pH7I4KTAV9Y3H3fbG5I1nJX7v+eJiU7zzzGRMil+YRuhfPDtW1Ze7U470AqsS7zO5tPSux0WKDzpbHJ7iKv1Dlo/RJt83Hl4+WzfTCKUSv9ji0hdDlpviHe+GI1OcsAo64kPyPbqbXn+u45GdEu+395bOw6mW4rRj4zApTn9wt23ot9iaPW5WPLLLMCE4Hb7EAafK2Ehxiv4oKU6u5f1UVIuDZtM6JVbiMksccqrMQ3OW4mjTUVKcOiweT0W1uCnryqDEhyhxV9LcUtjBOY3/07dnKQ4o3HyQFKcO4PtTUS3uTwW2WIl3H/Q8LXFb1ix/wsFZyKxF0Sne6SFRQooTV3m1p6JafAvcmqsSv5chvcTPn/a1pX2Xb+pWSXF5E5NpKU58xng5FdXiKXRrWiV+J116iZ+Pp9vyrivfHPmVFJc2MZma4rSLRsTfz1K/U2kt7nQyw0TxnF7ivsA1iCnNuEpxuS2ut9/QKWpPZZg4Dx+lZ3nXY7aeOIc+vcRPK94eqRlnKS62xbEpruLXe9yiPuC8/YKSpqituXvbOYt7comf3h3teB1NaEYnxcuux0hxQov7yA/Y/JeI2aBq62tkEc9SPsAlvcSnW5ElTlkGe5PigiYmX0xxfIujF9E0G08LxB2P7VzKZYFtErBU4icD6n3nluKHRaMUB12374dIcfRAMf4GvLptOyUQuV+2m6QwOVHAVPFiiU+FljilxVJcQoHWSnHsqx4pn9Bselna9vtGPNA2ObF/ApZLfJoLLXFCi6W4kFvzlVJ8qiNKOaUdY31JX/oybrG+2ZA4o3N6iU9jqSWObvEkxcG/7PUQKY7ZztQnBeftHpglnEOrzxjPFhPn9efRQ9BbD12xJY5tsbnivQdgq6f48ZOGbmdf3k+RsklVv2qMe3MTmbXJJf7zuuJSVoNXMWfJVYo3iVze1x1+P7bDZimaV36KoZgUrzpMH87SmN2YvpKwKbfEp6j1xRcpjhwOZnnhY7y2L+6ZNuSi8Vp1zsPaMwP3/rzzxgjxPsPH33bekFy7uah5/uDZswL6drAUPw6bbsslBPdb36xzLF2W41TUTzEPzWsb8/I0xd3UxG4jnH/uu6gXzoein7gGrrcs4QJyuBT/+HmvG9T4PvZtve52trfNf9LLdZXR6P3FDkfcCnz7a7SKuJ9/vMY+xt2bDGUvQgwZIhQxlD9iin8cOt16K43H1UbCf5hKu35/VR7W+ojXLkzzrVvt25/7tG2ZOjMTO+v+LtYY/w7o3zt9rEv8ZstPMsYijr6Dpvjnpne31yI0jX1Xb74XqqYf53UXUPw2Nu5uaYPjaWjXvghd+kmHD6npb+M1bV+0wziOfbGrwZ+OEKZrIdt94BT/7FzdXcd77FTE2PdNnfVW6lz313FaabXcNzke4tZRDt1WY5iqHUJ3yXRtTBCzvcdo5a/TY35cNMb//r9/zEmWc/gdPMV//9B12/eP3/abxeo/fv2h//HD1ztfAeu6eWzH9ccGbXFXdGkfI5vnA+THIZjpXmDhnmW69bUMw1ulmH9dmepH8B9V/qX/60p0zr0hP7di/uc9ya3va682AwAAAAAAAAAAAAAAAAAAAAAAAAAAAAAAAAAAAAAAAAAAAAAAAAAAAAAAAAAAAAAAAAAAAAAAAAAAAAAAAAAAAAAAAAAAAAAAAAAAAAAAAAAAAAAAAAAAAAAAAAAAAAAAAAAAAAAAAAAAAAAAAAAAAAAAAAAAAAAAAAAAAAAAAAAAAAAAAAAAAAAAAAAAAAAAAAAAAAAAAAAAAAAAAAAAAAAAAAAAAAAAAAAAAAAAAAAAAAAAAAAAAAAAAAAAAAAAAAAAAAAAAAAAAAAAAAAAAAAAAAAAAAAAAAAAAAAAAAAAAAAAAAAAAAAAAAAAAAAAAAAAAAAAAAAAAAAAAAAAAAAAAAAAAAAAAAAAAAAAAAAAAAAAAAAAAAAAAAAAAAAAAAAAAADb+w+mfezYNzpodAAAAABJRU5ErkJggg==;" vertex="1" parent="4">
                    <mxGeometry x="27.600000000000023" y="281" width="124.8" height="66" as="geometry"/>
                </mxCell>
                <mxCell id="7" value="" style="sketch=0;html=1;dashed=0;whitespace=wrap;fillColor=#2875E2;strokeColor=#ffffff;points=[[0.005,0.63,0],[0.1,0.2,0],[0.9,0.2,0],[0.5,0,0],[0.995,0.63,0],[0.72,0.99,0],[0.5,1,0],[0.28,0.99,0]];shape=mxgraph.kubernetes.icon;prIcon=ing;fontSize=22;" parent="2" vertex="1">
                    <mxGeometry x="40" y="65" width="90" height="70" as="geometry"/>
                </mxCell>
                <mxCell id="6" value="" style="sketch=0;html=1;dashed=0;whitespace=wrap;fillColor=#2875E2;strokeColor=#ffffff;points=[[0.005,0.63,0],[0.1,0.2,0],[0.9,0.2,0],[0.5,0,0],[0.995,0.63,0],[0.72,0.99,0],[0.5,1,0],[0.28,0.99,0]];shape=mxgraph.kubernetes.icon;prIcon=svc;fontSize=22;" parent="2" vertex="1">
                    <mxGeometry x="207" y="63" width="78.5" height="74" as="geometry"/>
                </mxCell>
                <mxCell id="10" value="&lt;font color=&quot;#000000&quot;&gt;Ingress&lt;/font&gt;" style="text;html=1;strokeColor=none;fillColor=none;align=center;verticalAlign=middle;whiteSpace=wrap;rounded=0;fontSize=22;" parent="2" vertex="1">
                    <mxGeometry x="57" y="142" width="60" height="30" as="geometry"/>
                </mxCell>
                <mxCell id="11" value="&lt;font color=&quot;#000000&quot;&gt;Service&lt;/font&gt;" style="text;html=1;strokeColor=none;fillColor=none;align=center;verticalAlign=middle;whiteSpace=wrap;rounded=0;fontSize=22;" parent="2" vertex="1">
                    <mxGeometry x="216.25" y="142" width="60" height="30" as="geometry"/>
                </mxCell>
                <mxCell id="15" style="edgeStyle=none;html=1;exitX=0.25;exitY=0;exitDx=0;exitDy=0;entryX=0.5;entryY=0;entryDx=0;entryDy=0;entryPerimeter=0;fontSize=22;fontColor=#000000;strokeColor=#000000;strokeWidth=2;" parent="2" source="12" target="9" edge="1">
                    <mxGeometry relative="1" as="geometry"/>
                </mxCell>
                <mxCell id="16" style="edgeStyle=none;html=1;exitX=0.995;exitY=0.63;exitDx=0;exitDy=0;exitPerimeter=0;entryX=0.5;entryY=0;entryDx=0;entryDy=0;entryPerimeter=0;fontSize=22;fontColor=#000000;strokeColor=#000000;strokeWidth=2;" parent="2" source="8" target="14" edge="1">
                    <mxGeometry relative="1" as="geometry"/>
                </mxCell>
                <mxCell id="23" value="" style="shape=flexArrow;endArrow=classic;html=1;fontSize=22;fontColor=#000000;strokeColor=#000000;strokeWidth=2;endWidth=36.666666666666664;endSize=8.666666666666666;" parent="2" edge="1">
                    <mxGeometry width="50" height="50" relative="1" as="geometry">
                        <mxPoint x="130" y="103" as="sourcePoint"/>
                        <mxPoint x="211" y="103" as="targetPoint"/>
                    </mxGeometry>
                </mxCell>
                <mxCell id="24" value="" style="shape=flexArrow;endArrow=classic;html=1;fontSize=22;fontColor=#000000;strokeColor=#000000;strokeWidth=2;endWidth=36.666666666666664;endSize=8.666666666666666;entryX=0.5;entryY=0;entryDx=0;entryDy=0;" parent="2" target="5" edge="1">
                    <mxGeometry width="50" height="50" relative="1" as="geometry">
                        <mxPoint x="296" y="111" as="sourcePoint"/>
                        <mxPoint x="377" y="111" as="targetPoint"/>
                    </mxGeometry>
                </mxCell>
                <mxCell id="32" value="Monitoring" style="shape=image;imageAspect=0;aspect=fixed;verticalLabelPosition=bottom;verticalAlign=top;fontSize=22;fontColor=#000000;image=data:image/png,iVBORw0KGgoAAAANSUhEUgAAASwAAAEVCAYAAABaCNgQAABMn0lEQVR42uzaXUzVdRzH8f/Bw2G2lq3VvIhGtW56IFKjDLMH08ohawMifAIzdjCCOahIlgXiAqUMDQMkyKRWE4JiXugoFy1DDVYGZBkyUwzO/38e/+f58X/6nebqqq2W06O+X9v39pxzcz77fr+/rwQAAAAAAAAAAAAAAAAAAAAAAAAAAAAAAAAAAAAAAAAAAAAAAAAAAAAAAAAAAAAAAAAAAAAAAAAAAAAAAAAAV6hoOCxpQb+keV1S2DylC544pvMd2p/g7ts9w/n+Vr2jsVJvqy1OtLyyPFEpzTQoxsUGec1Cg1yQ8XcVPmiQixYZzCVLDZaKnETr688m2rau16utm/TurtYZ3oG+hMDYUEJYntRFPC5JC/gkLRSUolpEAoB/FNU0KRqJiIBy64ITx/X+4a+v9h7svcH9WcdN7p72Ozz7Oh9z9bxX6NzzVpWj6dUd9rrSj60bC/dbXsz9Vnn+yVGlaNG4XLhgUl79wO9/VUHGWXntwxNK8ZLj5vVPDVk2rDhorTX22t9+uc3ZXl/r6mopFp+bKUIwzd3TluI5sHe279CBWYGRo0lh+WzCn+EVIbwAnKP5fbrQyTGD98tPr1Xb65JFGN3p/LAxU22vr7I3lHdaKvMHFeOSU6J7UkQI2U0r0t2mvLn+6dy08HR2qjadfVf0P1VOasSUd0/QlH+vR141XxUhZxFhNyk6sGHbGyXdanNNnXPPtlXqrs3pjpaaW9y9HdcHRr+bGbGZddFwSAJwhYk4rLrA6NGr3L3tNzp2VKU6mquzRFBVW6uf+1wpWzYmr31kSl45XzXlzQnEQuaC1dNp4VggilFSUdY9cVJ0ZF/Zt73UpLbWFtjfrEgXQXqz/9jgLM3nSZAAXL4ibqcUOj2eJMauFMe71fc5tm8otNWXtZhjI51x8W+x7kl0TaFYcMRN5aRqpuXpbjFWTpnLskZtm4yfiGAtFb99oat7123+kcPXiK5LJwG4fARP/Hida29zmtgd5dnqXthpLs8eFMvwM6KbccVCIS7C6V+U6Zk5/nPh9b21pqjT3li5Tm3bnOEd2JccmpwwSAAuTZrfN8N35ItktWPLQ+JFr1yMV31i+T1uWnm/Gi8B9L86r/x5Hrno0dPmipwBsftqEC+P2d7+rtsDI0eSJACXhojdYhDnB7c6P2hYJv7IW8Tr3DdiJ3Umto+Ki7A53yXGWHl1hlnsvEasr63Z7WjaWODp754bPPXzTC3glwDEoYjdnOgfGkhxfrQ9WyzPdyolS4fEWYEynXt3OC6C5QKUGHGd4sXxV3Eb1qu21BT5BvtTtaBfLwGID2KZnhD4aXi2ePHLstUa31GKH/9BjH22ixJU4jvFTdYvYkd2WC5YYLlowZU/zxu7/7JU/cHeeYDXfH9//HuTENQoWlWK6qDVFq0apWaV1mhrhBJ7E3tFbGKm9hariC1GrCBm7BE7S5Ahcvfey//90fDLPw0Sknu/9/a8nufz8Dy/+rm57vfc8znnfd6ny3Z1yMLOxlsXPoMQljqLBOEsmKDS8jDGW3/mwI+KeSNnoj51Q9i5lgJBw+acIPG9DkLSA5qQRb1Va2aOQuCKd3bGhcClxXU4DhnnOm3YxlYQxJbiCIJwPOaH0R9rQhYPYDUqtP4Vzrz6CTvWMKBetlm7d301Xfj2ChCcLmNFcV5cFf8p0GvEfX+6DTlEoOHC0e9tMlEhjiCIvMXy+KHA+iSxsOHc4QYIEH8jq5E7XTvVrqoNEoNQ7cGQr6zCFC+o1CvJxvme4kWwyqSwR+BSSYb/cVKzdUkP060LH1qS73tYZSKOIIhchHW7jLcueukjD3+OGbzR4r5NY6AKN/Mhe8FIzTnNjpV1zQ9jvSyJ8fkwStMcWd8tXgSplwQuKOmfyGcMDNaGbWpojIosYk6ME7BZSoIg3n6MxsNw+cS7mh3Lm8HtYDuuf7zRUeHBFypXTO6Jon8hDphiovJrQ9f4SPxaxPHlNb4qcLGBbNXq6f2g/i9jSYzzxMgPRxDEG4IrixerCUFbNFDs1+JqWofq/NFS+VSzQPe0FcXsL2BB48EBc/yt/OhW/iEZ3CqaF68xG0fUs+ETjCjNhytFNUtKAqnlCeJNvKhMd68UgP3Kt0z8iYcqMa0tr0Zo7JANpGDUp7v5wb1CLwJs6iMv7Z419SFruM6T15nNpsF3RnQ4d2O4+idca9/hCILIfrAyRB4prF4f1Ew6zneLECpungUrZFfVzRj12aPZtaoa/LM8MmjCBOotiytJx3c5zovXmTPFvJmN+cC5wtd48/x7VNMiiNfP/3GGs4eLQqXdHt2sCHQB+SENyHSEXeoo5NP7jkOnrXhmE0DNtmUf4Iq13iVHgdBxZSM+0LWNQCf2I44giJcW1zl0rEool03qJRnc8pKQT/WqTJ1B8cDm0Yp5o363aVReXCYwx1gUDgojINhM5cXrfQO1Pl57gjxwwDQU4z+F6ykp5AkiM+aEeyWUyycNwWjN3TQfnvlSZboOwoX0EK6DNe0WiweXCcuj2HyYZ2yA69WF3Pk7v7E7Q1uGDmiyfGqfebrDW6rYjXpPjiAIAKyi1OKwRxkKNXYcG63hRWB6xQgOuoPLDZdOVGD1tszYzSZOu299Beic1jMF/Bv/PZ2+1+L9SIQ1s4hlPU4JWt3qpSJoLUHQqmrXaWiImiCgDi8JLdBQUe/Gca7grMD8tKQTuk2Ee2kx7iWgtlUUAbg/BK4P3zRYSIa3OQ130ZXwk3fe+wKtFhwv0uTT+q7QHdpSDU0FClrEfxerVFgMg8KDUTOJT2vH/2D1T8H9B7lkdIchNo3ypZolrAXzVG9bWls62ifiTf4OXIujmaATV8tR7GrmbIEpfmYxVpqt1B3Z9iX5yRP/OSAFYJqlouq1s/rDNTPGVYIVO9hyI5aO6dAXVz/Pl0szLEya8ZF81uD5yMiUOfn/xzVMjOvkdHP09a+xw3Aus8rhQ6NB1OUHqWLO0CUIWhWRFZOPPPHfAA8zrkyXCuPK1Bu+6ixY2Zz1EOLYchywejRIk43v2utVAYthFT/xxg7DVvBfv5rt7I0V9Ee2PaA7sLkGrI6roFYWwmpZPAnWdsg55Njes5BtGzJEHqKgRbg3bKOx4eLxQqrgmR1Rm7nJAobTLFe61pFhW859OBioc1IjwvU1Bf5S3V4XsBi646GVENw2QUmereI76nj3lcsn98MS1SJYqPq9dEzHg+zP8iRgPTtCbBdSLh43A/7x75tuXuAIwm3BB9xbtSHoF/GQ1qedKl1AJxICyVvqLYvGQ+S5EIEiPrs2NcgKH8pn+nXKjj4Jnl3FlcsmDmZ/5rWBALoz6fA2ocYLx77kgP7MwdqQRhxN46EAVdSzgRA1tiGmWxcLcwThjjB9kmb78pqo/+xi7X5n12QgGYjWbF7Q0Rh1rgKuOQHInO6/NtPCn0Ogi4YRXtvsBCwUqD21+/+uJxn624nXZZNszT0yl+FWUUoxDhgiD9eSjPY5DMW8kS+BKuOBo2qMZuvS320qeT6OINwJOFx66A5v/Uw+te8CdJxkvMgSutUToogcAIX9OwgO5eAHH4RlqsJXCjWRmbGalGrd7F9Qi8tWt8x443w52ZRei5h986tkDLgiR+pPh9XG0ghPDhgvn6guDfANZf7sfAlSmd4Li3R0h2O6I9tr4DVT55BwD/BhFsB3/T3F/FEjcJVI5MXDhoMAosYA83ybNK0YB7T7NtSEGV8Yakb6VxbFR7U7AReJ+k9tVkE2dWYF1ZsW+ECTdfvlItGaKtnEHsug7fqASwddwk8xHhMs7Mwf/68srKE1ssm9go1XTlbkCMLVQZGdOYUWVK2d9QeuEFF8edCeb5aRjGiz3CpOLc4B/FoQncuBuBo+eNn1jRXA4SCxSxcRWpX9bNkFHbWvMcy9n431ZJntda37ULNteSdke94vAt2TpJKKhf7T0JmT8OU9y2psCBlzGq7U42BL8y5HEK4Mc7HUHdz8nSygSyjLTvjxkP1v9AXCziUQeb540NCZ+4oFpJdlWciENLIJ3VbCfqUClwPMj2JLKYKGT0VgEmV1HUTR/yIGv7/OGARtakU+1ZpZ/aE0f8yX9+xlw9K4zkbBS6sNAm4BjiBcESjBOSw2LYUC9QyIHxW8eLgyHCboRPCZa5MKi2aYafRWrZo+Sti5tiTrP1NHIRvfbbrl8aNiXA6wysX5oF1qieztdhZZG5tNXGtNSyrFZQJbeH7DNTqOd35gmQ4aA3rpiHah+lP7q2G+kvRZhOthOH/UQ7trdTu4hfKmbpWpKydUzB2Goru0MJcBPHSNJUN+u5hVxxCDyGnQYPkhGHvm7Gps55CVVZYMw7UQMoVMgVOEGtcgu0ZZiMsECu81JKPahfPKGvrlHmEi2fR+07H78H2OIFwN1K4qoyC7B/Ug/rkvQJ6AkaD76Pb1suvUBbgMWJLiS2IkZgWyBkPmmTrM+N2DX1d7XN3eZMi7hGJxwET2YGd60BOwK7B+Vp02S8qDD5QLxgTh+qrkxfv2moFtSD6uYf6xrU0uLsgRhKtgUysLqDbOG83bDtc/wtHLWHDx09NMinXYqAjUIYuH4KqmznTtMaGLGIGlEz9ybwACo6fu6PbmkFPE/b/6Vd+mF7Bso3xWlsQsk9OErumMLOwJL963118NDVDnb4E84wv8TBxB8B6muTKcPfgTAsKdtHY8rb1AZY+u5QFz7I2KbLYxM9BlNcf/fjfj60fw1cgmdlttvnet/Jt2TM0xNypB3nD2+XUTVz0jrpibbApJiZf9GVjVVIPYNpwXexizp4J/DIvlMXhvS8L4jyMIXoMP6kdY1b4c37a8moHLeFjmJx3fdRG6WkWy/BkexHyObc57M15n0a0Ty6f1Gwvf+TdWdqOwXhoBau3zNfa46qnU62aPt2k177w8M9MUVLNs9U8XuBamSx1QqzsJrVpjS1oSrQ0j+IsVH1DNjhW+Yoy58Da7wutCI+CBav3c3gg+WT5QMKorhO7mEmZ78+Lq1v/nu6q1sztwbwEyqWKYwRsP0arsWRBEPQvXUh8MUntxr8BwOeJHZHw3ePueZtGBhUXOXDRePsK1lrqGBD8xXIr4glmioP7Dy203zzfD4OE/a7wc8e1Tm+2lD5N6w18BuLqZnwtGUZvZg6tiVe4twGyhN+QNXRGw0tKztkTYyNRA/eqVDzW0YsXhPjoHV0hezhVmdTDCdAndz1bY20jaLIJ/MA0Tum69Rb0b3edlZ/B/CnctxKFrrTLor16Bds+6PvhvNemdPBkWugZaJWnvvOXORQ/IJpojYCWnD2DfgpXMh9mQRQj0J/c1FA9odo8v72N2hLnyWX4L8POWoyyL4B36U/uqYIFoiPBP3hjOZXkdhJYqSb0hqM/rhpd1x3e3RfBN+UfJ3fQulNw+XC5gvHGuJhTzD1lQRzH9KNwOinPZwBx38124OcxGtudKWdY1vG+tTfeuUZZF8AcUr/MrV07piYwhNq0dj7feIPhI/FqcM14/y8ZgBNwrgDaqCQSkt9n1FmvcQzA681nurDO7WwkZVixzO5DPGbLBplUV4bKB6e5VDyyC+BFWNVd58V5mc8MQ5gwX6CP2lEbHkLIsgh/oTx/4XDqx+zre6q7SD5sRxAaYYKtM9FphIwLU97BPuYg6UyoK9AORCeVKxwti0Ari3o0vp+G1qFYHzkRdq2D2tG0KDq4IxZVLAibwyDb5tUcyou0lbeian9A9po07hPPBA+cFl4P2zMGT52u62HUwBeNCXV5X5GaYbl+uglnDk9JR7cONlyK+yb1OakoZ+LYfZssl0PofbDebsy2TMCfFe2r3rqstGeVzkifvaXZqWRq4rs7QHw8tyvY4EoRTwfXqI5jfzUNhmhfGfK+qX0mG/X7OFBP1MVOVvw5T3M3KysUBa1Xr5wzHWI13Lq42ex9arBAEzye6ozvav7RTmbXcgg2UF1csGDOS+Xnx4n3NxpEGdDmBpkE1S3ICXQsJ56JeP6cRAkFkWnser5fHgReVEQ/6YlztPLlsYHn8sCI6XK1hofxZLtf7ikMJvlTcp8kjw7kjjVnwzAnw7fLS7FpdCzKLY7x4X7Nx2PZq2CkP0h/dSSvvCedhfZL8jmLWkMEYx0jly8PxiuURSbqjO1vnQOSZHwXyghg1ytWHDEX2whCPThP3/znOeOVUtZzvdNTA+eFCcSzCGMP8ufjy/r5uGSuWfWwxXDpOSysI58Dm3LT7N3yFDtp23vqOZxgXgR3ySf3ZQ8W5bIKr2rOfMbdBt6yAeuuSYRK/ljeN105//IZZmhfkAvWxVecMnzVvGY/Yr0U0roW/cAThDKxpyZ5oy/+GYnscXx6KV/m3q4JnBGJsyOmdKmzb8dId2dpJ6t/ppPF6ZBnuDYFC/j3MO05zmY5h+2pm1cppM9HtpIUVhGNB3YUV20tCyTxB1JUfW3BedSSDWsTBqvln053LTn9YWIcSy2SbYMHELgSd0m/h6JoPtbC27GrpEjOGyAQxtrUPozplOIJwJGxjjHrj/G/g1b5fyMNFn1k8KOGakMUf2E1Gjg+Y429/hQZAMDqWH7xFpibQHQz5BpnaTqELOJKyoCrq3ywGndHfOIJwJDZJmhd2+rWEA2cC7/3GcR2ES+gciBd5U/DF/GAZ9fq5U5FtlHybLNfyILo4tGJThL61eC3YzTDHqcG/xVS4ZFC3kHAMKESzLtW7irnDR0J7xbvlEllsKI5HS72t6eZF3ngzQVrxrv74bh+rMLkI9xbY9FovXMu7sFX4LnEt9Klukk3qudWSGFuKIwhHYLdaBFBbfwIzu418XaOe8eDKdEa9ecGXkCnwRrTIbGZwLayEAnT+t3V/0Gxd0lAyvM1p3uvgns9yDm19Efq2hhxBOOhh84ACvBaGcKN4/62OXYjIQDZhMUJpdoXiC2wVFoKVt91iErxdLdGG7UThlaX+nZkHGW8dXv9fHat7/RTVmpl+HEE4Akvqo/yK+aPbiLr/KObFQ/CKw16jauXUCfhGd9utxFirVRIB6y9hZ9cQkUKGocYo1wJYP3tzBJGX4BudzbK9iwzLHw8I7/U/4kG/xsL1sqM5/pbbrp1i10qIYse6grzkhXurf6cd5gd3y3MEkZeguyPQHdleQTF78EbeyxlwoAS/BLO+2ti87LZdqacWs6d8xoB+GI/i90r75wfbf1BOiITqnepYRN7CdvZhg8vXsDe5xPv61T8uAeGol1RGoOXcFVZ4Vy6Z0Anrw+L5LjF5XscS926UAI+x7hxB5CVsEFi5fPKPol6N+L/YE86nsHHZrtm+/GPOjWH2NGzZA2YTr/HcjyzjtmspssKJ+ALkTeeWcDNYl80UezM/MpaOrlDgZQPZ8jlDV+gOby3LuTHM6lmzO/gn5vWV5uMC0oZ0Uz/UsZbBG4w3Yl7CzYAzJme8fALWKIHjhR1r8L6FzkStGH8J0p/cX5pzY1jA0u7b0IhpsSDjcInt0KzwLhnTcQeWU3zKEURewNaOY2i3lHLh2JVCF3gwRN3rSZRLxk+HTul9zo15FrAOhfwoHdkuwiVmCtlBwwZe78chN/mBT/o4wo2wa1UCfMDKywP7701rz+PNOBk0WMql46di+42bByw7h2tvPQSs467QuX2+zBY1tyua0DUtUIOjOhaR+9iUUkgatlWSju14kRcf+tccYbe6MsUi/1mGswc/4NwYlmHpwjY1QMZy0lWuhOlLZONQD/VFl5P8sYjcBwVSNkNYFYZ9D3jxoX/NgYOBGn5RC3THQz/k3BgWsLAJqKlkqOsU3dN93lMVQcMHY6EtBSwiTyxRBJody78XdvmB9w4NL+YIAwds0O5dX45zY555k22Y+ztU/Tdc4ar+/OBzJIU1znj4ermtqJdwIpYnSQLNtmU/8N+//X8HfvP71X//5dadKHalQibZTdSn8UO+vO/Z9ClToe4WaDebaMEqkftYUhIEWPxZX/gn/yUNzw/qbWfUfwd9i00zbnvtQPc2n3RC1xHYUM37YfSMh2n5pMPbzGavnyOI3Mb8KNYD+/CauFLAEg9udRfWMn/gtRfg3BRzYlxJ6TjXcWt4ftiKMjQKgqB2d9t/G8KJwMbEA4rqpq4UsNgCT9Wq6QH6yEPFODeEFdz1pw98xdwPXMIP618Bq91fNo3KbZ00CCeSHrB+dqWAxfQ+8un9d2Jgu6xNIeXcDbvJ4KlcOa2V2K8lzBRdp+D+ImCNpIBF5BHYguyhDQ1u5lIBCwczdjfh6V4fCxvcqhuF7Ap1xQeFZRO6jxa6iBdWFgFrPvzt3+EIIg9WU7GA9YurBSxR17pyXAsnQ/T6DjMgdBfsVrMAK7MqS8f+GZLm4yIK938FrPYUsIi8wXwfGdbu4OauFrDYXkLp+K4RbHGG5WG024yBQBeXH8Pd7SDkjXGVdfWUYREOw5xwz/VqWOlH1KvhE/Wm+X30Z8LcQvMD7ZIAjp1lZRN7zHMlXVwWRfd5NrWyEEcQbtElxKiJ0LeOUgSrGHTBjG/scgrVO1TVB+E28RHnBliSE/KrVk77FcX262+bXTGHB7ZsFu4WYra2jYruhFvgDB0W6k9iFJW3YcRmEbRG+yWDW0WJejdOEnWrJ8EHXpsTh01ht3oibFvubzcbXbr4btdrUbvaWU42rd9C4Z/f67L/fiLYI3AjOGnY+4f3MRnjPLchrj0im9Z3tXz2kEBx/58fOFqHZdOqSYdF5Mm3OlO6N3DkFUTUo0GqctG4Cdg0/RWsSL7D75sieHWWzx4cgEWu6/ANHYmp/0cIRlL2ALxy+BfBDaMgJ/XnwqtyLozp1sWCqtXTO4rgdvAqD3d4lllYUGdNB1haP0Y2dhtB/zBkHquwq3EcAp4v1rU1h4V0TcO58E8NV07VE/u1uOfQgDX8jznYc8mbjdyEG2F9kijAh9uhs4TsQ415wE26Y7uqcOngCuFlirtZQhe+/TPVqml1ELhay2cP9UOGsEg2vush8aAW0RCMitk1h/lDZbxGQg2uQMBbiN2KJTkXxPL4oac2bGN1BJ59TGOW0b+eXZmFvrVVTCzL3gO8F4flswYvU8wdPgpBykcxZ2gj1PG+1UWEVjTFRBW3StO8MprnabYsGYDxHokDZwnVkpFtZ9AsIZEnWIWPEbBW1IT1sMqRiyRwbbmJrTCtYEMiyKxDwhHYlDJPc/ydIqwIrd688GsMAjdQ/DWio3LBmAnymQM3IQu7zIruzG6GBVtx78bxyuDAvuhOFXIlt0v8nALjjXMfKhePm4l/Azn7WViAQoaZBGnDGWSdwYqFY0cicLeVB42or9m88Bv9iT3lTNHX38WfzceM8vB+vWy34Tuo8e1mK7gcaGEtQ1CdSG4NRN75YYWuqYYHJNmhHT586+MKM8N47XTp17gWcPjwC2x6rQeur97wny+hPbCpomrd7OrKRf6NkY31QOCbjQd7J6yTl8E6uZYrPSzIijx1x3e3ls8YGIazXbls4lTViim++FkawJHiG93hbeWMUeeKWdOS8+Oa5YEAzwJUdhxLBfozB5owQz2WjTrQEfYJsr6heJ0u829AuBDPHEcPba0sGdX+qmPHa6pasWAhUrViaj1kCznaUs3a/3YEMBsWqeLPFjBcOFZSd2xnRWQelcwP7pWAl5TL6LLw/nuYY2+U0YZtqgrBaHnjpePFzTFR3ja5xJMFKCwJEeBnzrG9Mt4fbwWu08jYtA51HO3TJB61uG54zW7rpEE4EZvmmad7Bfn0fvvZVc3R/uxwp5xguHrq/Te9xuGbHFuSTZxdpxbgCiRAd0rgSldCbHh+5quP4CuwG7QCZIe5oOcyCgxnwuqL+zdz7Cwi6m9oAlyFTKblUzt5uhN5AL7F2dacD6CuXuVwK15ojdBRuoxrUH3T3ct0hcgFWDZmSYx7F5KGZdgTqHbs1pzq2JrT5tnWHI4g8gL2jW68cb4o20voDLU7irRK1J+CsCHmQ7ZyjHg77BpVPs2etb+K+jS56eiMmVnhSJ/tJbz6GUcQebVOyhx/y1u1dnZnJj50yqaVgb/EIMtqjUzPmyPe6ipovHKygjTAdx3EpxrnbH7uvAzSiqIcQeQVVkmap3LFlIaing2EzlrAKZvUYxtEpJUsyfepWPvmeq7CyuWT+kCYe5+JTx2/0aiODLXQybTii8hTbFqVh2r93GqoJ13P2AJ3sMxBqlg0bow+IrQIMgWOyBmwJPbU7llXC2vBDrIvAGdkyqKeDR8pV0/vwxFEHi88EEBpXRHbn7c7c2knlNy3obr/yXj9LH1D5wCmzTJciiiLQjvEpz+InOUCC6/9S/An+5kjiLzEbrWwTmEJCDEnCztlMXjrQBcHqKR3Gq+c+oQjsg0mAoriSt9V3O/nW87y0GKOECi47zHdvebW69cIHsAK75ZHMd6QNnQQYeDYyXvtFFB5T7LKRFS4zV79MT/mBRtKR7Y/hKDhNE8zJlCVTem9FK+HbGWIvAcCUg9kWHUlfi3vPi/YOunYUfxP0O4K9rGbjLTb7jV1K92BzVUwSL4OAUPtXMvqH0QYkxr+1O4+dtUEj4HiWqDduepz2ZQ+O51QtM08tmMRD/w1EoPP9anjlDUI5phQCCuHub05GJaWOPnfyyrxa3FdF7G7OUcQjoANGaPYXQKOCOOZW4CzrXYhQtTCbmW78eb5L82xN+F1nkon/diNBoHxUkRJZDRj4YmV5ITObmbnVxO2VO+GGWQ5jiAcBebZvOQzB7WGSjqJF/7gvnWkUMEvx1Dzj3AeqKI/TefZidhTXRUc6I9/p0RnB6v0+pUG5YRZVnEqZcOE42DeSuqN86vKxvkeEkLewIughXEPdL8S0TKPFQ9uSQcHkwH3mX8ZLxZPIGDi3ycOThNtOYJwNMbrke8pZg2ejCKqnBcPBB1+H8goUPQ/YHkUW4EjCEfDOk/yOUN/hzXJM+M3XjwUdHh7kAHrlcsnzyI7GcJpaLYvq4qC9x58GF1uVyEdxx7xgGZxuiPbW3ME4SxMd64Ul8/0GwuDPSFfHgw6/DxYhLHbeOvihxxBOAsMH3ugZd5cMqT15edbXJx7vrGni1npPHsf+HFVR+Ffod4wd6z+1D4S+BLORX867GPZpJ7LoMlSOrMDBReHFCwF3YY5tRU4K+ngjO6whm0dcnbAko7pcEF3eEst053LVL8inItVmJIf22gwUNs0hnWCnKWgFg9oftIQebiuMSqyjPE6HXagSfsMc59LnBmsMCSvVS4OWAg7oOJ2vYYjCKeDD+NXKL5vZR9OJ1mWIGD9chTf4JU54gVYc1ZYuXRCkDMDFny3bmh2rGiBSQS6DhL8AO6fBfEt6oetw8nOClgQSR7DGvcvOeIF2v1/F4ajxTynZVeYNVXMGRKsOxhSFnst6TpI8AO2Qstw5sB3ktEdwpjEgQIWP3B2wBL7tYjGRISPKfoaWckQ/MKalpQfizEHirrXT2LdKQpYr8bdAxYTimLedIXu0JZyltRHHEHwCrYGzHTz4peyAN+d7MNKAevVuHXAQtdWMvS3q+rNC1rhi6wARxB8BKvhvTRbFncX9WqYwD60FLBejjsHLLjBKpFdzdOfCSvLEQSfgSdVBXxYVyPL0lHAejluG7CwlFUy7PfTWBLSzCp6TNkVwX904dtbYCj6NsuyKGBljbsGLFHXukJ8YU0y3bxQiiMIV8CSkvAeNjQHsoUDFLCyxh0D1rONOKPa74GMoZZNJSfdFeE6YGTnW2xoOenQgHX70hcc8QLskGTC0b8cthSkV6No/H3dzI9iCnME4UqYE+4WUG9e2FvUu1GKI0ZzELDOGs4daWR+GFPWHH+7Ap3b5bG38VPFvFGrHVRol8sm91yEv7M8WwdHEC6F+VGcwHDmYAXF7CHL0zp8Z8zrNjo2GadJh7c5IBneJkQyou02Om23Sob9sQW2xDGOWC4hGdzquHbvuno2hYSugoTrAd93zhxzw0uzY2VdySifCEd0p9goCFPa4xjp/HPYdTnPnTJ61L+vWj2jm/lhdCGOIFwVu0HHVoIVUQXP6MYcJ/liJkcnNzcW1ZIrgobNRf2wFF0FCZfHKnzMroZlFHOHTRPSwgr3Oj7VzNictM9w8dgX8Pin4WbC9WHfutbHjzx0h7dWZqvS2dgOLx62TNca3h+euIdm3IKD4eZr+DKqh/Eb2jNIuA9sW7RNp/XU7FpdUzrKJwzfzCZePHQ4wk41lWjHJ4h7N44T924Uz8/TOBa++U94E7RY3apnw0e6sE3tcBXkCMItwcboAuoNQa0kQ1pFsusEL5Z7Dml1EBuj2xjOh/+E05SX58LRn1Qb5k5HY8HCi2DVrZ5QFTxztCk6ikZvCPcGKviiyhVTemB05wZbXOH0gNX/53Xm+3d4PUaCDFWgO7DJFwHL6ZkpFudKFH+NnIcgWtqmVnAE4faYoq+/D0HjSFGfJrFM9OnMgIWNP/sMkUe+hD0Ob4vGdo2qgHrjvABnZ1gQhyrkU/us04fvqGJNS6a6FfHfwXD5xEfoHE6CFc0DZwYtiV/L89pdq5raNCreCh5hgFdWPmfYBgQsqxPlCwrZhK5btHvW1kFGytv3iiDyDGy5KY9194Ging2SnLVxBwEzGdmenzX1URGOpxijztYR+7W8zjJCJ2VWSuk43x3Y9N0Q2THVrYj/LvqT+yog05oFtXQqG6B1xqIEqX+n1caLxz9GrYh310K7UZ8PW2f6IGhInRWs8P7sxlxoU3QEyZudIPTHd5dXzBuJoNUgzSnLEga1uKpeP7c16jK8yx6Mty99jqHirZjXMzr+GlhbIQ3w3aYOWdTEeOMcjd0QxHN0R3d8pFg4NhCaqMeOX5hQQyeb0nsJsr3ymIHkTZZl12vzqzfN74Ps85EDr4Ppw+R1ZLJJPTZqdq6sZ7p3jXeBnCCcCvRGAl34jrIw/vOH5OG+o+s14r5NY1WrpnXHw8kLL6endptAd2JPHcnwP44K4Ybg4LX/IriGLoWfVnVz/C1vjiCIfwPHUAGM/95XrZnZG1tXbqB7aHOgL7wFtZpwuHQ2tKQm5uecDOpFn8hn+i3GtcyBtSsEK1gcw6V0uv7U/k8sjx96cQRBvBwY8AlQLymCjlQLLGYNZ7UbhxXjO1Q34mq4C7v0algeRnvB24lzNJbEOIHxemQ5dC6n4SqY4rBME9ISjADFq7cu6Wu6cb6EVSbizdWYIHiNVZzKxni8dMd3V5dN67saLg9p7IFyVNcQf2eodt+GmtAbOTTTMt257IkxoU+hJJ+OWb1kRwUr/Mx6GB+e0Z/Y28ymlueH8wJHEEQOsZuNHqaocxWVC8f5wznzJrItg2OK8N8aZRO6HdFsW9YMAteieS9dMAhwBSsI+UIN+YyBS5BZPWHByhFZFWQLIvm0vhtgL/29NTWR1OsEkQvXpBLoVrWF5W8YajoSh4hMMZyNv++KcuXUgdAgVbQk3S+QR7UqT92RbWg2TGonG991H7pzCocEZWw0QqPhBpZGjDFGRX5ilTyhYEUQuQXWRhXQnwr7Th7YP0jcr+ltIQKKI2yXRX0aJ8mm9NqoWjW9rXbPus+wXCNX9EhWUaqH4dzhsqoVUxpD7T9XPOjXu8ze2RHNBXQBH0vH/rldE7L4D3NMVAmIU6leRRB50eqHpUlZ9aYFnZH9HBR1ryd0UDaiQ0C5I5vcay0yoc7YalzDeO1sWUtSQv6c2ALbTUZP1MVK6o/uqKJcPqm5Imj4bHRDr6AzJ3XMz/G9WozZSVgaB6BWVs2SfJ/0VQSR19hkonewXbqGfO6wGQgk14Sda6odsXcPZn8aaMRipGM7HsQw8izl0omdcV1swl6L8fKJyqaYqHLmB9GlLUnxpSwPY0pjbf9H6Ph9imJ2NVxp66tWB/6uWOg/Gs6rIQgcUQi4Ykd1P5GVxkjHd10L1Xpr483zpeC3T1dAgnAUEDQKMBRcVrVudmtIEdawQMKK5Y4JAN+aYGInRhCIQ8C8Ih3tc5DZrsjnDg9SLBgzTbHIfyJ+naoIGjFHHjhghdS/827Y2ERiEccdDFunsIyNaZ4ccqXt1ShZOq5zKDzIeuuO7qwE5weaByQIZwAPK84ce8MbYz2Vlcsnd8coyTZ0E+8zaYKjB6jRbVOhNiSBlXEa6/KxX1lQE/rWUbDaFAsejnxNeA0iJoRVLgkYBWvqqnBZKMYRBOF84HwpQKerCBZ5VlGumNwLGddOZFwscBl54YHu2EAlREH9tHLJhEmYQ6xuvHa65FOrhYrqBME3ELg8MJNYBPWiz3FV7ApNUwg2Et9Nc/fA5VPNgm5mCrRj4cpV0/xV6+dUh66rpFVIrqAEwXvseo0AnuMFNSGLSmt3B7dEPWmFZFT7qyI324uIrp8OxftY1Ml2wUK5HwJ1Zd3xXUVNd696oKPKEQThQsCQjw1Ue+FhLqSLCK0MOcQo2aSeYeKBv94T+daWM6V3ugiVH+uzXrs7saqV7XVEsT9B5t8pAs4Ws7GcoqF2/8YS+uOh+dGhpKsfQbgD6I5xqHEJUNMpaLhw7AfVmlkB0oAue9DlY/KCJywQsKsVc4hgwYEPi0oh8rRiHMkEdb8MzYRo6cj2x5SL/IP0EXtaWB7Gvq9eN0cAOYWAZv8Iws1hRn2WJ4+KGS9F1EYGNgiunsGQHhxj68fQ4UvBdUuDYGFG0MjTIJaeOT0PTmYWOHF1FYuxUUgyqEWkdEzH7eiATkRNqrklLbkUhKqURRHEfxWmVEcXzQObqQuYE+5VgAK8qWrtrMGY61sG6+R9yMBOY3fhTeiZHgq71hUz8egzGQOyMXb+ycr+dazpx/LipP+3QgQldpgWi7l6oquXjJm+u+KBv5yT+LU4IB3dYR1qbhOQDbaHwPNrqyStyFOL2YtdbwmCIP6VecElIh+uWQVxjSyFK2R1OG+2RhDrL8daMmibFiOwbIIIdKdk4C+hCGj7ENgO4hwW+7UIZwe/P8pO+u+P4BzCfxeGoLQHf2aXeEDzrZIR7VbJZwwIVK6cMkSzO7g9upt1LA+iy2FmsjDcG/JDY+ZJhXOCIHIE0zA9NZu84K/ubdMoC9kU0iJwNijOgpn5UWxZc9ytj+FjVQnF/S8whvOV8frZr4xXT39tvHbma/Z7ZElfsv8dQ8afIoMrb0lO+NAqelwS5oBFIcN4x47Mzm405kMGRRIEgiAIgiAIgiAIgiAIgiAIgiAIgiAIgiAIgiAIgiAIgiAIgiAIgiAIgiAIgiAIgiAIgiAIgiAIgiAIgiAIgiAIgiAIgiCIPCQy8lyBtWvXlVi6dNl7S5YsfZ8d9vsNG/4uHhUVlZ8jCILgC+HhR5vNm7dgY2DgjPDp0wOfHfz+yMKFi4LPnz//A0cQuYHRaPSQSCTeCQkJRe/fv1+M/ZqTEx8fX0wsFnsrFAqO+O+CTKpP3779Uv78s/PTDMfer9+A+/v27W/LEURuIJPJC125cqXa1q3buuJD1//vvzf2y8nBnxm4ZcvWlnv37qty9eq1D/R6gydH/OcICdnSbcCAQQ86dfK1Pw9YnTt3sQ4ePPTWwYOHWnMEkRs8fvy41K5du/r5+wecx4cr4Q3Og1GjxlybOHHyXqT/U3bv3lM3Jia2OEe4HBaLRSCTyQqkpqa+m5KSUhyfjWcnOTm5BLLowlarVUABi3AqiYmJHyJLGovUPZl9yN704INq69Onn3DcuPFHVqxY1e/ixUtlnn3ACZdBrVZ7nzx56ttNm0J6r1mzdgiK6H7sBAevHRoWFtbaYDAUoIBFOJWkpKQPN23aPBoBK4l9yN72+Pp2Nfv5Dbkzb958/ytXrpbhCJcBtcyiCFD9xozxvzRokN/DQYMGP3h+5s4N+lv9f+2dB3RVVb7Gb24aBEKTKoIFRbAwOuIwTxQVdIo6jNh16EW6IYBAQqjSpINS5xEEpDdBitTQi1JDEFDaA+lIr/pkvd/HymEuO+cmN5IXyMr+1torkNyzzy7//e1/2/ueO5fXEpaFX9xuwoJ8fq1Tp97ZevUa/OxW6tatf0ZCaT6n3yHkSZ99NqT+vn378ngssgSOHTued9CgzyQLh0ztGZN/PoSV3xKWhV/cTsKSkDZs2PggmtLoIUOGdVUZOnTYJ07R/wcP/rxvbGxcQq1adc67kN3V1q3bLBo37stKV69e9Xos7niIsJjTVsjCT6YsdOjQaS6Elc8SloVf3E7CkrBFR7f8Dp/GK6tXrylEoay+UfT/JUuWFiFC+CTmQnzNmrUumqRFmPtonz79Ynfu3HWXx+KOx8mTJ/NAWC20UZmE1bFjpzkXL16MtIRl4Re3m7BatWq9llSFip5UgBB7Ia7HO3Xq8o2vsKrUqFHrUufOXSfMn//NI0Y0KvTKlas5yAHLqZ+UnPr3L7/8Eoaj/oY2hmYWpt+r8O9wTxq4du1aEI7hnKrPqV91eNKB3377LYj2hfCc0z7n5/X2KZLmG1VT/ZcvX4nQ55JLiCcNSON06k8uPHNroG3X2+LbZkq4+pPGczfacvTosSIQVlsXkxANq+P8U6dOFaHu5Pn4JUzj/XsIizpCk9vnzFVQBvQ/WP1w5l5zQv3BtDHQ59WmG7LjyKXqRCb9purob4Ys3xh7X1kOQCaCeSaHj+w68mYDV+kjrO+e9aSBDRs2hk6cODkKv9YpM3EwOrrVZo5oVHaEWz+3bUt6eurUaS0R8jg0tFh+tp8yZWpLjne8eOLEyTxJSdtzrFu3rsz06TPq8/f2kyZNbrNhw4YXWXxeQ8g833+/I3j9+m/zrVix4t6FCxf+nbpiKLGqV/VTR6Nly5Y9s2rV6qJJSUk5CdkHIUipaRnhGzdueoJkxyZql9M+2tCW9v2dtuU6fPhw0JYtW/IuWLDw0WnTpjcnqtZRn1PhuRp8rizjFrFr164g2uy5dOmS5+DBn7xbtyZG8rcyc+fOfYe8txi1T2XWrNnv076HNm7cmJNkXD0TaNIv/f8+bMWKlcUTEpZXYkyjMME7qB38jJs8eUoL2lhpzZq1xelTLtWtMfMF7y3IhlJLzyAHXTp37jK3Tp26ZwzCuvbRRy12jhkztqs+R9tjv/56TlUILDJQwtqzZ0/Q5s2bc61du7YUY1Zd85o8/zG0sRptvG/Hjh0RZ8+eTXOBioTYmDx79+4NRi7yLV++ouzcufPepF1tHZnSnMye/XUNNtMyzEUhZC6Yxe93o2Ne/gsZjFa79LxTZsyY2RAL4UE/m5uXvz2ucXfe68jdjBkzajPexfyQHOb3MQ/pP6EoBAWXLVv+GGP0Lu1vp2d9ZLfZ0qXLnlPEHbkLO3PmjCWvjCAsMuS9mI5VPv64zRbTLMS8ONS+fYc3mdwbhDV//vyajRs3PSANLLlc5v/7hgwZGsMiLzV27NgarVt/vKZ27bpn9Xft+HPmzKnHszcI68iRI16Og+RlUl/s1evTUTj59/L5M059KtWr17xcs2btCxDpiTZt2q2Mjx/dHMF+GIIL12J3AzlHuSCn9/C/bVJdTlGQAd/dpyyOYtTx6KBBg4eqb6pf73I+J39eixYtk4YNG952yZIl90LmXkgyePHiJQ/xu14ffRS1i8+c862bdp9r2bJV4siRI9ssWLCgBGfvvGmR1vbt34ci4HdPnDipLpvCJoIjP9OWiz5t0c+LBEZ+Ziw38u6OkOmjEEPYhQsXfDPUH+IIzWynH4ryaqNxSVv5X42nPqN5YTzjSYm5Oy3Cat78oy3MU1U2k1KMXwxjs9XsvwiSPmyBEFtBaPewaXnTyB0MgqQjx40bXwEf6/CGDRsdcmTFt/+aiwYNGh755JPus5GT15HR/NJE3Qhr1Kj4ho0bN9nj2y49T47hSub8BT/EE7J48eJ36Pc+3+f0bvq5iOeecnkM2T2q9VKYuXu3e/eeU0gHOuaMia8saU6Y11MxMe1X89kG8+bNfygxcVv2PpeZAYRFHQe8CFDF2Nj260xBp94j5Ga95UtY7CZ1IYCThr/rGImng8ePn9iaRb3JN/qoRcczdRwtjchjMJN3H6TRNioqersWWVrpFtT3G5N/hmjXHPr7Gu3Ngzkb5DIeucaPH/8vBG77zeZtzSu9e/cZi+DXhoCXsHivpPY+FspxDgD3p50PIJyP4ucbi5/vUmrPqH39+w/4nMVdAm0syJ92AQnmZFd/CTNttojUIYnUCsJ/ib4vgRSqQIjhDmmRb1Ua/9SC9KauMD7j9+7dVzwtwkIzS2SxtevWrccw5vG0LxmaWhx9kQz0Y0Mpdf78ea+/5FY0ksIjRoxsg/a2N5V5MANIP33++dBuaHNFRVomYVFfU95/WJ832v+dNmN/hMUG8wHzdtx8J0S9YunSpU+75LoF80wpZLefxkOR+EDGXJ9lvr9B43uV+Y/wZFdkBGGhFcmP9Re0kq3mQCPEBxnoar6EhYZSmwV91JiQkxDBqhYtordJCM06IJi/eQBnFr2YMPd++mmfHrT5sLNAAi3UfZU8o9VoW2+ycCMxLYJMDQvS/EBakvlcy5atExmTbYxNQEKG0O6GtD7t06fvGAUlAhXML74Y2wrzKJfHBZhWOTD3XkNrSghksZpzyhgnoGn9mXqCPYC8q9L4H+drUadnDBmLL9k40tSwIIrDfDZJxBoAsVxD24BYhrSjfQX9aJYF+XsHc8MLsO4juCc6QYiFTMKCuBsjTweN9v+KHKxPSFhW2R9hLVy46H0RncvcL+e58i5rpSTyMFwa1e/IcbyKZpvAZlV1//7/yeHJjsgIwlq+fHmw/E0I7CFTSERAaA0vIxSpEpbehxp8xS2vq2nTZnvYVR6X7c9ul2/gwMHNeNd+t0mVGs8i2aOizHs37Uu7GkeRFuLjeY5FFxoIYVGuqa5kgeZQb8ODtGE3/bhu2vrTRPj7iVq1al/Uc1LxaddetQ1iOubWVxVIZTnjnsKcQOsI5szmnyDcWWh8l90EmvcdSm7XQbd2SVOE7EehwRX2AMyqB/j/OJ7RmO1HWzjpRsgyL/V3ihJKf+jYsfMANOsiqRGWxkl9FBnKpFTdjRoxN9RRv36Do/zNmRtTq1mFFvK8+mukXYis64jUVLcpa8z9WczD/eo/43tCdZl1k9ScxBnY6iTJhmU2YXG8KQfrpBbjcMxl3ml/7XOMzT61X9qmv3mIi+swGS3zCTTF7OfTygjCIsWhZM+evb7UAJs7MYtv3qRJU56SKZMaYZnPqT1aGPi2dmPKLMAhXYgFEoJJ8yy+stWmZqV3M9EspE7xOpSNYDcYMGBQZ3b3RXXr1jvpMvGX+/Ub0IMUjWJy9PojLLNoZ0cYFw0fPqI1i7QeP6MxeadJwNQmfyYJ/fiRsfg37W/EeH/ILtsNk+ZbtcPlHScgpnpmFBBHf1F8Hp+wGE0TBHOq/gmIbDb5cW1x2tbFZ9WyXbuYGW7minyCixYt/hvmlUz5/Jjbr6tdjFuLLl26TuWZ0yYZYHpv4+/Rye1viJZWmXOHudwIy3wW/9Ipnl9B23tpXlTHwIGDujDGa+QXS9m+hgcgkKijR486eV9ysgfjGC+PTCa4yNkVxnc7Eenh+KKaqf/4NXtCfN+KxA3TWAt+HGP5ALKYqYSFr/dB5HOa2mRubBDtLv42As2/qeSqX7/+XfHrLYOEz5hjSjv3I3fNCP5EerIb0iCs1ZhNf07F+alI2RPY452lzbj4ZE53796j97p162U6BERYLEYc5G1no7q3YoE0QAAbsyu9hYCFsrjuQrvqyAI476KF7cJUaM7NEw+ykCIVwSKKVISF9QKCPEZOWfMZOauJWFVBywoJhLDYAS/gwB26aNGip3CcFiBqkxvnf378VBV4R7zbO1RYTHuGDx/ZlKhQSW7HyKO2YRoUQ+jq4a9LdNEEfoFw+uJjC/PxfYQRxXqZNq80zTeZmyzQ4QkJCU/QnrvULoQ5P1rKM5jjX2rnNjUx5qw/9UfIp6LPq10EB+7GhG3nL9OdPt9N2/OoQPI5dVY0LQ1LZIU2Nh4CrkLUrCgmfaSeR+6KoOG+2bx51GZpXzfLTd3TPXr0HEJU936nfqJq+fEzxbCAT7qcqkhkLBtt3rzlfjSnvOqP5p7gSU1pVGq/7+d5pxz81dT+zCQspQixTn7QuPgSOmthH/L+MWvtfqLUeRmj3GzOhYkeV4mJiV1gaqK1a9c5x31jIzGP7/NkN6SW6c5k70RI2uHneNOtMMjRCPLU5ETDa6YgsatuRJBeRxUOC4SwJKjsMqO++uqripBIAZ1t0y4LAeVGCL04b8thyq00dxxFBzFrBixcuLik6UjHFxTOYvoL0Z5VLprcFdoXt3Xr1vw8lyZhIYR7GI+K3AHma6oQBNgfToTzbRbCTpd3/NK//8D/xgRL4ZNBrb+fxTzC9GdoAffq1XsiBFHMd3NAi/1Ympz5DrTILdT1jMcA5BXBjl0Dwtxhzi1E+e3Jkz8Xvvks4fXE0Wg5qM3P0845OOoDShw1ZOh7NoX3mb8wjwFpCGgSA9F6zpsaB/7QeUTZ/vgf39X2Mmxkc0S2xtxrUxwAuRX1GNi9e08xEpeHSYsz/aX47eLI1QrNTMIiPeEFyCaFYsBnlxIdLefiAgiDWKNwqyQqrYSyQz8138jUgC1btpb2ZDeYhGUmfiK8Ms12uhWecfwk11yiMvsY1BilAXhAIITFZGxkgv7B4gxzcTaHEoJ/XU5plwX7HQvmNfqSwy2qhtlXtGvXbn3cfDrs5DOV8wU5BqVFWJDeNszMsqREBJnvwNSpAJkmqO9m5I+oYyy5VyEuR2HCWDit8OecMMePfKj5aCSPOvWTw1QC03OEm9+LjWMg4e48bhE1fH7lMT2XuWiy+5VDRN0ZfjTH1GbQQF/1l6SL9txAznCzfTy3Bjl5NpkYvETcqtCuJIMQdUHgDuqoSrKl12OA3wXjoG4MYZ0zzULmaghyViAzCWvTps0VWBdJJqkzP2sZo+fcbjfBFfIIa6KOUwjI1MHvWItUkSp79uwt5MluyKDbGsxozCHyY3oSOSzNruwNlLAgnsX8rbxbop0iemh17dwiY5g903iurKNduWkahMvrKdpoPsuuvRnBqkjUxRsIYaGRPWYSlkAiZTm0w5nyvxn+qFNKCCT3zDWbHSJoojwckyDwdy1FO/yj47/B9H6qbdt2c9zGnKDGF4S736W8YxaItCWbS4roLT6vQ5jqL2k+btdZQuXVkcf0tjZFc9NjwX+LSfRCsjkcgXZdD2I/YMoabd3Nu9tgcr7t1n8038+Yk4um/5LcpnGYVPdnJmGRt3YPWnI8WuIVY1M7KbcF7a3KJlIGWbyhyUoz5bk8Bw4cvF4wFVVkeSjJNsST3ZCRhCV1nUW9EV9SR3b20mgtzoAGRFj4zBax0zzlltGN/V8Ih/JgEYKLNjIMx/89Hndo0sNHjx7zOsKXYuHi7DxKe17duXPnLREWi5LjSZ2nmYSKMJ9WVjv9SjdhkcX/lOO/QphfJthgmrWOWaTbM/a7FohJJpEbYWGG/O02E1YQJxT+wXN73QhL/sfk6NpdI0f+O1aRVReZu6K++Os/ZHBC7XchrPFkj5fKTMLCNxXCxvMq2uN2U8tC6zvL7zd169Z9An2NIUv/fWS68g8//FiW5yI4uuOxyADCEoGwgx9U0ijm0kh2utcQ0Pz4Q4I9IJ2EtZiFXd5Ftfdwt1ZhEv8+l0/IfH+3bt36oYEV9fgBWl6onOvksKxwMdnOcTldNXwgt0xY+HmmZxRhxcXdTFiYPcpzW32Lm4pJWH+9/YS18h/KME+DsAriO4xzCOtWiwgLec00wjL8nZFoix8SPElyS+lIzrA/RTnKutrGKYRpjO3HbNjPs6aynwmYDqf7NWWY41RfTjh6hr+CIPXBHKqBr+pJ6smNAzvU8YtkBmEpr4hdqS8+Hr+EhUkVwo5VER/QIpOwdCwG0+ONrExYTp7TBx8EXtjRj69ateqVLEJYd6VCWNfS23fNEbI2Hb/fQ047uFW1SWYQls4zrlmzJifJz3/FxzuKOd3I/B938tWcPD9n3BWAoL0XaNteLIwBHPF6mTUbqZMK2RKppTXgU1pDVvAzfH1TiL9CzkswqquXw73GIv7/IKwhQ0RYZhJoly6fDCSxtFgqN0pIw3pRGlbKCGOd8yKsbduyBGGtcSMsfFurCHNPIrAQUGHXnti7d9+hRN7KZRXCYtzdCEub6nFcArPUr0ALgZax+EObEYku4nOW8EPlN7kQ1roMICwzeunhMHoQPkS+AGbD0xzUjiZdZiJ5cwlEBLdS31GZuubmKvLCbExUnpm+N0Hkl+0Q6PUygSPjCUv2O4Qkoe1j+rBUcHaP5NaBEtTt14eFQFZD+La5HM4+Mnfu/Fdwdt6xhKXwtvKYSAxd6UZYU6ZMq848BWe1C/wCJSx8oQUw2WIwY4+mjEY3WkU09YFblUnMtOqYYLtUp0lYpIy8eKuExWd19ZGXmzuCfQuy5NXf5LbARH2I1IeXSEWJIno8TmOHiXiB+m4iUdKFviMn7w3y2cI92Q2BZLrfbsLSzQUkBeZiIlu6ZYZjtk7XDQosKK+fBNfc5Ps0oo8pBAvn63rM2Qp8JuhOJSxFCQljK0o4142w0Ba6Yt7kzGjCMi/wu12EpSghWkUDxvKg6bZgw0kka7+y0hpuRSbRYN+hrUlq883HhKI2EO1+KRXCei8QwoJccqBR3Y/T/XESesupMKfl+MyDRAVzm7dzKIEUzf9VbvSdb+ae6QYHoo0DIbgSnuyGrEBYgGMNu0PJQ3mdxX3CfE7RP/rwNjtthMeAyAVfTQnCxoPdtDMyxKcgSKXI9L5jCQtIw7wHH9xItzws3R4BoT8c4Fd5aUdXSTdhoenlvR2EpXwtfDcvITM7XI4xHeGYTwxmY2QAl/SpqO8p8uh0v1dUVIvNarMvIXL2cSf+z3/6ISwvN2sERFhsiMW1zjBHJ2OWzlDBNJ9Ous0grIM/OXe9me3SES3zeJUc82zSsyHLCp7shqxCWCwWqe2PsOMs1VUx5oFnMsOHkFz4IOaD11czI4clJ0d8XtN1z26Z7oSQ2+GwzyNhvpMJi6zwPAQ5WlPfcZe0hjO664u+5tNidBN8LdTjx0/kQsgf406shw8dOhyckrCO+SUsNNEl1F/ydhAW0EWFZfCpznc7h4eJtGTmzJnPMffh1OmaoIpbIJTjXcXQcJ7kZxGPAUijIjdgLFd9RoLtYRz+0SQuRxpkpe9wzClTVceP0iIs1llJZd3r+JbkV0Xjo3VHrlgUqQs51E6TECHSmiJlU245srOE8XnRk92QVQiLyZNQ5eOsWxsOM582n9VBae6r6ox5UJarfkN17TBmUgEW0itoJpOU3eyimW3GGV+ZhSgyuaMJiyTBULK2X8Apu0yk4HI4eTNRpGb0vxwLNxeaVLAKofAI/CKlOLdXGcd8NPVOgqS7U3dujwEWYATfdNREiZymc1uH0MkFew+/SxgmaqgCGZrLzCIskn/zQg4t2ZxOuNzQcRotcwJy/E+05XvwB4U5/ScYVACT7knOZr7NWPcnovylrmfxGMCHWRISMPPoFIW+RLBmwYQJk6qSWZ5PdbJ5hmPO6RLHuoz7OvmV0iIstNc88fFftDLPQup9yNpiXXeEfN+rcdU7Dh8+Esm4lUcjG81nLplpGfR3LpHGZzzZDVmFsATU/mBuI62AL2eZKSTasajzMJrAlxy7aI+QxfDv3tS50u3uIf2OsHJXIpxFEfCgO52wpDmQ3FqIi/A6u4X3NR46ZE1+0VS00K70v50KY9AZ4R5N0ukKMsWPySzmdtMta9euf8zFfPaOGPHvd+V8TqmN1riCBrKUGuOovy03XVSVhpFZhCXtg8DCE/omJheCuH61DFr0+vbt44axQbV3+o/p1Jv2zlSypjYt3WqB/6cXEcJ8Zq4eJwa66GYP1WfUfY68qQTGsSd1gtgOkNskxulHRyMLxOlOX58TwZlmva4d4vebaOdIp+30oztjPVvX8LidndWFiBz1ecCT3ZCVCEsmHkKQDy2gIYdqf3Am0rTvdX6PclqC5najo36HwM1C6yjPV7KHiAzudMJy7sNiET8JKU10DgybmpZzhbH6r6J/67ZRLXJnIep33GTQRF8G4TEwe/aciiyYhSI2F9K6qrHVZXwQYDxmUrHMIixB2iJugfekTZufd96nxa82+vT/nObEaZdMSoh3EZron301RAGt6QVI7wahmKan6lKdql/jrHmCAE859525EZax1vITIGmtkwl+2n5RdTvzpjlQP11M4G85cvUWJnxOT3ZDViIsx5c1b943xYn6xehIx+/Jcub84GIOUr9CLkyESBBkCcIC8mWFETF7XruvLnMLtN/m9TXcrz7w0qXLER4D5GYVRvPspFygVJ7/FX/SbL4A4hHNZ2YRljYWAit5uaqnOe868HvPukJ4SRD2GyZhcVYvEn9VrHFVUqpXWuM7Ha4719XXtAhLWhbBk/twXXwmUvodbf+NsfoRGYzCD1eQ+uwFfnc6YQlyrLNDlmTimrNw1gV6VTD3xh/hKpJ4/BFVuKEhtxztIEsRlsBd6uH4YZ7lEsAhOsaRHqHHtNlGwu9QSP8v5LeFumwIXhzTf8Tk+EJmlr+Fw/isRCOpxBgGZxZhOaSFn6oAmkpDSHtVevque8G4oPBrvuyjFZcBPqz3m855EqXvw0/aV2SU1p39EM8g/EiP4xM0bgLxnziqXCzO2Zbi1EYsmtLO9GwymIsrdD8c/S+eLW8bFXQvN5MfywT85HIfViIL+/mMJqxZs2Z9yKVzF1xua0ggKvKnAHOGvAhXAfJnKuNQ7YFf4isWxx7TvyEtBJ/XBm6PiGdR1SdKVoZ7hML8HSbFAZ+b9Ila5N/84HL9zY9E0f5g3gMvsLj+gEDNM00DqfXU14nQuCthoe210BEoUwsgSXQdx4X8jgW5O6ErV668j7rr4k/6AuJb5hZY0O8g2q1EGL9Gq+rC2L8KIRXFgZzD3w6tq3zkvGchxkEKa3V1tXmfFKQXD9lUcAgLjbUexHvQZWHvZmze8CcLLOpqblcGM5cbCYi45j/hINdVLXmQlUr0qRuO6Vm6K0rj5pYYzNgs1xiNGTOuAf16kgPXuqxQrgDX79nUV45xjUs0pP2VmUajjZYUmQWjRo1uoS9CIeM8hHY2Q+6uGoS1SmanxwWnTp32Qph3EcSoxtVAfdU+2nnI7ZwuG8MOtLipBBzi2OgrcawnN23Mvt+kTjg1F87Mp6dPn/7hhAkTWv2nTGxJ4tq/UJOLZzBh6YsEHps8eWoTvce3IIBvc6VKUU+AEHHw+RC0wPzcNFqaHf+1SZMmfeTbBwitLpnKlSC3EpBvOBqUN43xCOUgdVkORNc22wfp1EaYC+qeKbcvR+D9/5w4cWK07zP4yZpjelagna7vZYd+Am2piTH2rVgM73KFSNG0zGPmLpxyDxGm8iyAemabWUwNiJJV5mhTWcYoL9f0hhJxuz4PqYEFHYwmkAtCeYY66vmOKe+pgWnzB3KL8jmheMzDR5GhBvqM8dnajE0pf4QFcZai/w3MdkNy1Tku5TeNAoe/zMMQtI289O1hnc3DzGtu1qPv+yOw8rTGiDaHcykiBJs6qFuaVgT5e6WRgw+cuvCfRSED73C/Wjny3vIQBAlSH0i5KMs8N/V9LxvDe4x10VQ2HMlMKG0roPYh+29RfwvfOhiXD8k/+yvzVop5iGAzzX7XybgIvXasIL5sVElwwU7BK3n9jCCaTIarnkwWO+vN71NBELyYqOl+H8QlMzEoMTHRy3cB3tQHFrIXwQ7CYRvweHClR5CeM9un8UDI5ItwFUAES/c7+T6jRR/MDaVB9MvjBhYGY5GQ4l383kt2dEBjQSb49TFV+8x60MK8WlgaH8g43ZuL2q6xMMdUJwNItbhBfPrSWL6MJIUM6f1qm7/68ckhezc/p4L25sX0TbP/5FfJGR+E1uxlHIPNeiAqL5tukMYoPdDhYgIyENf6G22TbLE5Ut8B1XejD6rflGe0OI1Rmu3XF6qqPrUTckoxd7gFvGS9Xx9rCwsLCwsLCwsLCwsLCwsLCwsLCwsLCwsLCwsLCwsLCwsLCwsLCwsLCwsLCwsLCwsLCwsLCwsLCwsLCwsLCwsLCwsLCwsLCwsLCwsLCwsLCwsLCwsLCwsLCwsLCwsLCwsLCwsLCwsLCwsLCwsLCwsLCwsLCwsLCwsLCwsLCwsLCwsLCwsLCwsLCwsLCwsLCwsLCwsLCwsLCwsLCwsLCwsLCwsLi9uG/wNLABJFsBM33gAAAABJRU5ErkJggg==;" vertex="1" parent="2">
                    <mxGeometry x="508" y="21" width="97.47" height="90" as="geometry"/>
                </mxCell>
                <mxCell id="33" value="" style="shape=image;imageAspect=0;aspect=fixed;verticalLabelPosition=bottom;verticalAlign=top;fontSize=22;fontColor=#000000;image=data:image/png,iVBORw0KGgoAAAANSUhEUgAABLAAAATICAYAAAAMUDxjAAAABGdBTUEAALGPC/xhBQAAACBjSFJNAAB6JgAAgIQAAPoAAACA6AAAdTAAAOpgAAA6mAAAF3CculE8AAAABmJLR0QA/wD/AP+gvaeTAACAAElEQVR42uzdeXhcdd338c/3zCRpm2SSln0vUJqtlKUgyKIVBEQFAa3QDZGlIIvgwqpoFEX2VREqe5sWrAsiqxtVQFksN5ZmaamA7FtpM5OkbTJzvs8foA9LlzRNMufMvF/XNddzX/f90GTeZ+ac3/nmzBkTAAAACt6SyaNSJVZ6qbt2stB+nJrd/HuqAACAuDASAAAAFLb2SQ0HyfwXkrb67//Opb9ZoLOqZrQ8TiEAABB1DLAAAAAK1Puuujph9es+v8c9eXr1rGeeoxgAAIgqBlgAAAAFqH1Kw2fkPl3vu+pqDVaY64qOiqE/3nz6vC7qAQCAqGGABQAAUEDenNBQUVqmq8z9uD785/8x+TdSTa2/pSQAAIgSBlgAAAAFon1yw+6SN0naYT3/qQfk/vWqWa3PUhUAAEQBAywAAICYc8nSU+q+LrdLJJX20z+7QqaLUyvtQpvT3E1lAACQTwywAAAAYmzJUWO2KknkbnfZ+AFZLJrPDy1xXPWMBf+kNgAAyBcGWAAAADG1dNKYIwILfyFpxAD/qKyZX16ZXN5ot76wgvIAAGCwMcACAACIGT94VFl6g7Ir5f61Qf7Rre7h1OpZbfPYCgAAYDAxwAIAAIiRd45u2DqR8zsl7ZmnXyEr049TK1susDnKsUUAAMBgYIAFAAAQE+nJYz7vCm/TwH9ksDcek9nUqpnNi9kyAABgoDHAAgAAiDifoES6rP58uc6XFEToV0u725nVs5qns5UAAMBAYoAFAAAQYR0Tx2ySDcJfmvSJCC8p78xq5bQNmhan2WIAAGBAVhskAAAAiKalkxp2DszvkrRNDH7dZ3Nh8KURsxfMZ8sBAID+FpAAAAAgepZNqf9yYP6o4jG8kqQdEkH4+LLJDSew9QAAQH/jCiwAAIAIccnSU+q/L9f34rtWsxmd5UNO2nz6vC62KAAA6JfVBQkAAACi4c0JDRWlJT7DTIcVwNNpDWRfqmxqbmHLAgCA9cUACwAAIAKWHlU7MkgE90qqL6CnlZb5pKqZrfeyhQEAwPrgHlgAAAB5tnRKw06WSDyiwhpeSVJKHvxu2aSGs9nKAABgfXAFFgAAQB61T2o4SOZzJFUW8vN0s5uqVupkm9PczVYHAADrigEWAABAniyb3HCCya+TlCySp/xoECSPqJwx/022PgAAWBcMsAAAAAaZNypIL667TG7fKMLV578DCw6pnLGglVcCAADo/RICAAAAg8anjStJd3bdJtnEIl6Ctst1ZNWs5gd5RQAAgN7gJu4AAACD5NVp44alO5f/rriHV5LkVTLdm55UdxyvCgAA0BtcgQUAADAIlh6zc3WQ7f69XPtQ43/cXGelZrVcRgoAALAmDLAAAAAGWMfEMZvkgvABSTtTYxULUvOLK2e2nmuSUwMAAKxyvUACAACAgbP0qNqRQTL4k1zbU2ONi9IbKrtbTrE5ylEDAACsYq0AAACAgbB0Ut02gQUPSb4tNdbOXXdVlXZNtFtfWEENAADwfgywAAAABkD7pLodzOwvLm1JjXVanD60siz3hY1uXpihBgAAeN8aAQAAAP0pPaWmxj3xF0mbU6NPHg9LSj8z/Nanl5ECAABIDLAAAAD6FcOrfvNYVt0HbdC0OE0KAAAQkAAAAKB/pCfuWOue+KsYXvWHPZNWeu/rU8eWkwIAAHAFFgAAQD945+iGrRM5/5ukbajRr6vVR5Zb8jObzpjfSQwAAIoXV2ABAACsp66jR2+RyPlDYnjV/1z7DA2zd/kxI4cQAwCA4sUACwAAYD1kJozaqCeX/KOk7agxYD6d7hl2lx88qowUAAAUJwZYAAAAfbT0mJ2rw9LSByTVUWPAHZQeUfpbhlgAABQnBlgAAAB98Oq0ccOCnu77Je1KjUFzcGaD0hk+fnySFAAAFBcGWAAAAOvIJygxrGN5k6Q9qTHI7V0T0lu8eYvzZUQAABQVBlgAAADrwCVrL62fbqbDqJE3U9KT6xvJAABA8WCABQAAsA4yU+p+YtKxlMi777VPaTiVDAAAFAcuvQYAAOil9sn1p0m6hhKRWcrmzHREambz3bQAAKDAj/okAAAAWLv2yfUHS/Z7yRPUiA6XLTfX+KpZzU9QAwCAwsUACwAAYC2WTmrYOTB/WFIFNSLptaySH9ugaf7LpAAAoDBxDywAAIA16JxSt1lgfrcYXkXZZknL3v361LHlpAAAoDAxwAIAAFgNn7Dl0KzbXZK2okbUN5Z2GRb23O6NrG8BAChEHOABAABWwSXLlFbOlPQxasRlm9kR6Wfrv08JAAAKDwMsAACAVUhPbjjfZUdQInbOXzppDNsNAIACw03cAQAAPiQ9seEQD/wu8ce+uMoEQbBH5YwFraQAAKAwMMACAAB4n/SUmhr35OOSV1Ej1tqy6t5jg6bFaVIAABB//FURAADgPe9M2K7KPXEXw6uCUJu0shvIAABAYWCABQAA8J5kyZCbJNVSokC4H7VsUsM0QgAAEH98hBAAAEBS++S6MyS7khIFZ0Votufwmc3/IgUAAPHFAAsAABS99skNu0v+iKRSahSkls7yobtvPn1eFykAAIgnPkIIAACK2rJJOw6XdKcYXhWy+mEdK64mAwAA8cUACwAAFDWz3K2Sb0uJQt/OfvyySfUTKAEAQEyP5SQAAADFatmU+hPNdT0limeTZ5XccYOm+S+TAgCAeOEKLAAAUJSWTdpxO3NdSomiUp1Uz03OH3EBAIgdBlgAAKDo+PjxSbNwpqRKahQbOzAzqe5YOgAAEC8MsAAAQNFJb/HWeZJ/nBLFyc2uXnbkmO0pAQBAfDDAAgAARWXZpNpxkn+XEkWt3JLhDXyUEACA+GCABQAAioYfM3KIWXCbpBJqFL39M5MbjiYDAADxwAALAAAUjXT3sEslNVACkuTyyzNTx25MCQAAoo8BFgAAKArLptQdINMplMD7bBCGucvIAABA9PG5fwAAUPCWTB6VSqisxeRbUAMf5uYHVs9s/SMlAACILq7AAgAABS+p0h8xvMLqmOznfvCoMkoAABBdDLAAAEBBWzZ1zG6SnUwJrJZr+/YRpd8kBAAA0cVHCAEAQMHyCUqkS+ufkLQrNbAWXbmE1Y24vflFUgAAED1cgQUAAApWurTuNDG8Qu8MS+T8x2QAACCauAILAAAUpM4pdZtlPWiVvIoa6CU30ydTM1seJgUAANHCFVgAAKAg5Vw/ZXiFdWTuutz5Iy8AAJHDAAsAABSc9sn1B7vsCEqgD3ZPT6o7kgwAAEQLf10CAAAF5dVp44aVdy5vkbQNNdBHz6bKhzbY9Hk9pAAAIBq4AgsAABSU8o7lZ4rhFdbPDu2dy48jAwAA0cEVWAAAoGB0TByzSS4In5VUSQ2sp9c6y4eO2nz6vC5SAACQf1yBBQAACkY24T8Wwyv0j82Gda74OhkAAIgGrsACAAAFoWNy7Y45Jf5P8gQ10E+WZtU9coOmxWlSAACQX1yBBQAACkJOwaUMr9DPhie87GtkAAAg/7gCCwAAxF77lIbPyP1+SmAAvNlZPnRb7oUFAEB+cQUWAACINZ+ghLsuoQQGyMblfCMhAAB5xwALAADEWqa0/ism35ESGEBn+oSGUjIAAJA/DLAAAEBs+bRxJS77LiUwwLbKlPoUMgAAkD8MsAAAQGxlOrqOlnxbSmCguXSmc/9YAADyhgEWAACIJZ82rsTNzqMEBkltelLDgWQAACA/GGABAIBYynQunyppO0pg8FbO/nUiAACQH1wGDQAAYscnKJEurW+VtAM1MJgvPQsT9anZz7SRAgCAwcUVWAAAIHYyZfVHi+EVBp+55U4hAwAAeTgIkwAAAMTJe1dftUkaRQ3kQSbXvWKrEXOeaycFAACDhyuwAABArLSXNhwuhlfIn8pE6dApZAAAYHAxwAIAALFi0jepgDz7KgkAABj0NSAAAEA8tE9u2F3yJyiBfAvddhk+q/lpSgAAMDi4AgsAAMSGmZ9JBURkEX0MFQAAGMR1IAkAAEAcLJ1Ut01gtlhSkhqIgCWpd7q3sPsXryQFAAADjyuwAABAPBYtgU4XwytExwbtw0sPJQMAAIO0FiQBAACIulenjRsmN26cjUgxs69QAQCAwcEACwAARF5F54oJkqopgWjxA9snNIygAwAAA48BFgAAiDyXn0AFRFCJlYiPEQIAMAgYYAEAgEhLT9yxVtJelEAUeeATqAAAwMBjgAUAACLNg/BE8c3JiOwLVAfwMUIAAAYeAywAABBZPqGhVPKplECElViZf4EMAAAMLAZYAAAgsjIlfrCkDSiBKHPXpLeOramkBAAAA4fL8QEAQGS1T66/U9KXKYGYeNWkv0t6TPLnLNCzFUOHLbTp83pIAwDA+mGABQAAImnJ5FGphMpeN/lQaiDGspJelLxFZvM8VHPC1VJR09JqjQrJAwBA7zDAAgAAkZSe3PAVl99KCRTqS1yyZjN/xmXPhKGaE8nc/NTtbUtIg3Xlx4wckgmHbB3mgq1MtokUVrs0XGbVCq06MK92qVqy4TKvlv/vPHCYpLIP/XOl7z06TOp0qVuypZK6Je90V4eZuuV6M7W0+9t2/+KVbAEAgyFJAgAAEMkTMmkCFVDAUpJ/3F0fl1yBSZ4L1D65/jW5LbAgfCpU8GQY6MkRtze/SK4i3x9OUCJd1rCtKRwjt+1d2tpdW5vZVpJvle7RxtJ/r05wSfbu/+ySzOXv37N6r3/scJeG/++/e4/9d/RlUvsGpa9JupAtBGAwcAUWAACInDcnNFSUlfpbkoZQA9Cbkj0p9ycV+D8tl3s8NXvR22QpPC5ZekrD9ubhjqFZnbkaZKqTqy6i+8POkkS2Ztjti15h6wEYaAywAABA5CybVD/BTL+kBLBaz5npTy5/NJtNPLTBHQteIkn8vHVsTWXZ8uROoWlvs3AfWbCH3DeK2QnlDammlpPYmgAGYX8DAAAQLe2TGm6T+dGUAHqtVdJfJXvYg+w/qmcsfJ4k0dNxTMOmuR7/tLv2M9OekmoL4JysR+4NVbNan2ULAxhIDLAAAECkuGTpyfWvSNqMGkCfvSH5kzKbZzmblysreXj4rU8vI8vgenXauGHDOrr2CgJ92j34tOS7FuQ5mNkdVTObJ7LFAQzoroYEAAAgSjJT68aEoT1DCaBfZSU9JfcHzYIHK1/Z6HGbOzdLlv7XdfToLXpyJYdJfrikffXuN/oVujB0Gzd8VvPTvAIADBQGWAAAIFLSkxqOcfNbKAEMqGXm+nNo9mCY0IN80+H6aZ/SMMo8PMJlh0vaoyjPs0z3Vc1s+RyvBgADt5sBAACIkPTk+gtdOpcSwKBqNun3suD3lSsXPG5zlCPJmnVOqdss5zZJ0lSXdqKIZLJ9Uk3Nj1ICwMDsYwAAACKkfXLDPyUfRwkgX2cI9pY8vM8V3NNTln1wo5sXZojyLp+w5dB0adXhkk+V7ADJE1T5wIvn3qqm5s/TAcCA7GFIAAAA8n5S2Khg6cIxY4LAP2vyn1AEiIxuuf1VFt5nCb8vdXvbomKMsHRKw04J+cnuOkpSipfF6nfnodkuw2c2/4sUAPobAywAAJAXbx1bU1myMvisyY6QtL+kDagCRN5iSffJ7b5Uaedf7dYXVhTqE/UJDaXpkvAIBXaKXPuw6XtdbnZVU+skOgDobwywAADAoGmf0DDCSnWIm39RrgMkDaEKEFudku41BTMqX9nwgUL5VsP0xNEbuiVPkelESZuxmdf5FDPnWaupvnPBv2kBoF/3LiQAAAADxQ8eVdY+onQfk42X/FN699u5kpQBCs6bcpvtQXh79czWp+L4BJZOqtsmMPumpOMlDWOTrs/O366umtV8BiEA9CcGWAAAoH/PW44ZOSTTPewgN31JskMkr6IKUFSa3W1GzhJNGzTNfznqv2xmYn1DGOgcSUdKKmHz9Yt0d1luS74AAEB/YoAFAADWmx8zckhmZfkBHmiC5F8QNzkGIIWS/uFut/cMyc6O2jBj6VG1IxPJ4Fx3O45vExwQX69qarmWDAD6CwMsAADQJz6hoTRTFn5Wsknu+qykcqoAWI1OyX7jFs6oGtX6Z2tUmK9f5J2jG7YOsjrfzI8RH2kewIOEFqVGt9Tlc1sDKCwMsAAAwDpZNnXMbhaGR0uaKGlDigBYFy57JZDf7u63VM1qfXawfu6SyaNSJSo916UzxBdIDNLG9s9VzWq9jxAA+gMDLAAAsPZzkEYFmYUNn/NA50r+cYoA6KfTkXnumt7do1kbz2nuGKj9V3px3RS5XSxpU5oP4rHDdVf1rJbDKQGgX44YJAAAAKvzzoTtqpIlQ05w09clbUURAAMkbfI7Xbq5qqn1sX77Ryc27BMGus7kO5I4L3oSYbBVxewFb5ACwPpigAUAAD6ic0rdZlnZiXKdLqmaIgAGUZu73Zp0u7Wvg4/2CQ0jVOrfl3SqpICkeTzhND8rNbP1UkoAWO/9CQkAAIAkuWQdE2s/EQaJr0n+RXFzYwD51eOyewLZzZWvbPiAzZ2b7c1/1D65foqkqyWNIGEktFU1tdSRAcD6YoAFAECRy0wdu7F7z1c8tONlGk0RABH0mqRfJM2vL5/Z+tqq/j90TByzSdbC6810GLkidtJpwd6pmQv+TgkA67UvIQEAAMXHGxWkFzUcYObHu3SopFKqAIiBHsl/Jema998ra9nkuiNN9lPxzajRPOaY3VQ9s/l4SgBYHwywAAAoIp1T6jbLenCC5MdK2oYiAGLsSXO7ToF/1l0TyBFpS1PdtqnNae4mBYC+YoAFAEARaJ9Ut4PMTnXZCSYfShEAwOCeefrnq2a23ksIAH3FzVkBAChgmYm1nwyD4BxJB0kykxMFADD4wuDLkhhgAegzrsACAKAApSc27OOBN0ranxoAgCgcmlIlXZvYrS+sIAWAvuAKLAAACoQ3KsgsbPicB36+y3enCAAgQlKZbPmBku4mBYC+YIAFAEDMeaOC9kX1X0w/qx8o8DqKAAAiebxynyAGWAD6iI8QAgAQ1xOBg0eVtY8o/arJzpJ8W4oAACJ++tmeKh+ykU2f10MLAOuKK7AAAIiZ16eOLR/qPcdn3L5t0pbixuwAgFjwqkzX8j0lPUwLAOuKARYAADHx1rE1laXdwbEKs+dItiljKwBA7LgOFgMsAH3AAAsAgIhLTxy9oSeSp2qlTpdUTREAQFy5dLCk8ygBYF1xDywAACIqfXTtBmEucbbJT5E0jCIAgALgyVxuy/I7Fr5KCgDrgiuwAACImDcnNFSUlugUz/k5Jq+mCACggFgumThI0i2kALAuGGABABARr04bN6y8q+sEuZ8raROKAAAK1MFigAVgHfERQgAA8swnNJSmyzRN7udJ2owiAIACtzS1Q8uG1qiQFAB6iwEWAAB54o0K2hfVf9EC/USu7SkCACgWQagxlbNbmikBoNf7DRIAADC4XLJlk+onpJ9taDHTLxleAQCKTc5sbyoAWBfcAwsAgEG0bFLdp9NmF5u0q+QEAQAUJZP2ljSdEgB6iwEWAACDID2xYZ8w8B+b9AlqAACKXuBcgQVgnXAPLAAABtDSSQ07J+SXu2k/agAA8P8lSmyzilubX6cEgN7gCiwAAAbA0mN2rg56un8g6RSXEhQBAOCDerptL0m/oQSA3mCABQD9yBsVZJ6rHe5hYrhCjZA0XAqHuzRcZtWBeVXolgxMlWGokiBQhbtKJZWblHBZao3/vrzTpG6Zlpu0wl0rzdTl7j1m6ghdGZOWyoKlcl8m+VKzcGmQK1lWnvWlNqe5m600CK+BxXXHerbnQkkbcZ8rAABWLVC4txhgAeglPkIIAL3gjQreeXbs5iVhbqQntJU83MQVbGbSZnJt6uabmdkmct8o4rv9dslfkfSq3F4181dces3kLyv015Ml4YtDb1/0qjF16ZP2SQ0fk/lPJe1ODQAA1nYy6nNTTa2fogSA3u0zAACSpNenji0v68mODgKvcdP28mCkmY+UNFLS1pJKiyTFCknPSXpWrn+7fLECLZaFi6tWLHzR5ijHq+WDMhNGbZQrKbvQzI+VFFAEAIBeebuqqWUjMgDoDQZYAIpOeuLoDcMguZNJ9ZLVSj5a0mi9O6TCmnVLWiyz+e76l3k4P2sl8zdomv9yMcbwCUqkSxtOkvwCScN5eQAAsG4SYbBpxewFb1ACwNowwAJQsHyCEh3J+towsJ3MwrHutpOksZI2p06/e8ekf7nbfDOfnw2Dfw7PLmgu5Ku10hMb9lHgP3VpJzY/AAB9XK8Ftn/1jOa/UALA2jDAAlAwOo+q2TxnyXGe8HFyHyfZ3uKqmHzqkPQvSfPc9Uiip3tu5ZzFb8X+dTalbrOsBxdLPoXjKAAA68l1etWslmsIAWBtWHgDiKXXp44tL8vlPhYE2kfue0naU1I1ZSK+RJUWSnrM3f4RBNm/pmYuXBibX37auJJM5/Kvu/Q9SSk2JwAA/XBCapqemtlyIiUArHV/QQIAcfDWsTWVZcuT4z3QfpLvLWkXSUnKxN5L7vqTmf0pEdqfo3oPjPSU+n3ddb2kejYZAAD9yf9e1dS6Nx0ArA0DLADRXMpMUKK9pHZnKfFpM/+0pE+oeL4FsJg9Z6Y/haH+lLPuBzdoWpzO5y/zzoTtqhKlQ34o6VTx7YIAAAzEKWl7qql5uL17pTYArH5vQQIAUZGZOqYuDMNPS/q0pPHiY1rFrlvyue66qzSZu3vY7YteGcwfvnTSmCMCC38qaTM2BQAAAycIkptUzpj/JiUArAkDLAB58+59rMKDTOHnA9MBLm1JFayGS/qnS79NyH5X2dTcMlA/qOvo0Vt0Z5M/NdNhZAcAYBAO8ubjqme2PkUJAGvCAAvAoMpMGLWRl5Ye4tIXXHaAyYdSBX3wrMvuCqTfVe7Q/A9rVLjei+dGBe2L6k40C34ieRWJAQAYpJPS0A5NzW7+PSUArHFfQQIAA23pUbUjg6R9QW6fl/RJSSVUQX9x2Ssm/7Wb39bXv96+c3TD1smc3+rSpygKAMAgH8vdT66e1fpzSgBYEwZYAAZE+6S6HSSbZIEf4W5jKYJBOqj9S66ZyWR2dm/vmdU+pe5oeXANV10BAJC3I/iPq5qav0sHAGtZ6wNA/2if0DDCS/QlMz9a0l7sY5BHoaR/uNvtOVt5x6q+zXDpMTtXBz3dP5M0iVwAAOST31bV1HoMHQCsCSeXANbLmxMaKspKwsNlNkmyAyRPUAWRWhLLlpuHl6Ve3eSHNnduVpLap9R9Tm43StqUQgAA5N2fqppaDiADgDVhgAWgDwMB2bIpYz4ZKDxersMlDaMKYnDA+1cY2DcD9yPddQLHQAAAIqOtqqmljgwA1iRJAgC91TFxzCZhkPtKWnZ84OEOFEGcuLSThf5nJwUAAFGzBQkArA1/fQaw5pP+RgXpRQ0HmPwENx0qvkEQAAAA/SxVPrTUps/roQSA1eEKLACr9OaEhorSEk1KP+uny7yeq1YAAAAwUNJLV1RKeocSAFaHARaAD1g2acftLMieKtexkldRBAAAAAMtTORSYoAFYA0YYAGQJGWm1o0Jw+AsKTdRbkmJa64AAAAwONySKSoAWBMGWECRWzqlYadAfkEY6vOSc188AAAA5OHENFtOBQBr3k8AKGomnSbXIZQAAABA3takZnxREIA1CkgAFPtOwLlcGwAAAHmVY4AFYK3nrgCKmjs3agcAAEB+cQUWgLVhgAWwXOAKLAAAAOR3RSqVUgHAmjDAAsAVWAAAAMgvt5AIANaEARYABlgAAADIK3fvoQKANWGABYCPEAIAACCv3DxLBQBrwgALKOaFwgQlJJVTAgAAAPmU4AosAGvBAAsoYu0lO6YkGSUAAACQT3yEEMDaMMACinmhoCwfHwQAAEDemYI0FQCsCQMsoIglgnAIFQAAAJBv3c4AC8CaMcACinkH4FZKBQAAAORdYkU7EQCs8fyVBEDxygbJMioAAAAgz3zEDos7yABgTRhgAcW8A3BxBRYAAADybZk1KiQDgDWev5IAKF6hOffAAgAAQL69SgIAa8MACyhixhVYAAAAyL/XSABgbRhgAUXMQuceWAAAAMj3qpQBFoC1YoAFFLFQXIEFAACA/HLpdSoAWBsGWEARMxNXYAEAACC/a1LpP1QAsDYMsICiXixYggoAAADI86L030QAsDYMsAAAAAAA+bSYBADWhgEWUMTcQqcCAAAA8sdyqZV6kQ4A1iZJAqCIuYVEAAAAQB4XpP+xOS3ddACwNlyBBQAAAADIl2dIAKA3GGABxczFRwgBAACQT/8iAYDeYIAFFDMzBlgAAADIm9ADBlgAeoUBFlDMjCuwAAAAkMflaI4rsAD0DgMsoIi5h9zEHQAAAPmSqapb8DwZAPQGAyyguHcBORoAAAAgT56wRvEHVQC9kiQBULwC2Qru4w4AiLCXJDWb/KFQiafluUic6FoQJOUaIdMIScPlGiHXCAX+7v+s9/737/6/pWxGYDXc/04EAL3FAAsoYqHC5UYGAMAAn6JKekdSu2RL5XokDHSLhcGLq/sPqmY9s8xUGH9heevYmsqy5aVbmHo2CS3YUrKNJd9SgTYx9y1ctolkm0texUsFRScIGGAB6DUGWEAxrxksWO7OVdsAgPWyQq4XZbZE5m/L9YrkC+VBaxjmFlbXtr1YzB8R2ujmhRlJbe89VssnbDk0XVK5pUvbyIJtA/eRbr6tFIyUfFtJm/JSQ4EJcyuX/4MMAHqLARZQzKsG5VaYuAYLALBWaUnPyPSCQntbgZa4h4sSQWJ+xUsbPmtz52ZJtH5szsvLJT373uMjfMKWQztKq7YNPRwpC7Z1+bYmq5W8TtJIcW9bxM8bw9/aulN6jhIAeoUBFlDEEpZYHnIFFgDggxa72V/Nw6fMgpfDMFhQNeuZ5wvlI31x9e6A6+UWSS0f/r/5MSOHLOsurw0U1sqszkx1oVutmY+Wq4x6iKjN0lu8dbNLX2H/AqBXx0ISAMVr6VG1I4NEwFcXA0Bxe29g5XOzSs7doGn+yyQpDD5BiXRJ3XYWqMHddpF8V8l2lbQ5dRAh11Q1tZxOBgBrwwALKGIdE8dskgvC1ykBAAVvhaTX5fasm5426Wm5Fifc/lMxe8Eb5CnK4/+uLt81kHZ1Bbu8d58tID9cjVWzWn5ACABrwgALKGJLJo9KJVXaTgkAKBgvSmqR2fMe6mlL+L9yK1a0jZjzHPt6rNGySTsOl+V2lWkPk/aWay9J1ZTBIPp6VVPLtWQAsDoMsIAi5uPHJ9NbvNlDCQCIrTckPe7SYxboL6kZLU9wLxn0yxqhUUHns7UNWbd9LLC95dpH0jaUwUC+7OT+lapZrTNIAWBVGGABRa59cn1GUgUlACA2lpr0S8lmVDY1/52BFQbLksljt0xabl+FvpcF/gl325HzCfSzrJl9MTWz+W5SAPgwDjhAkUtPrn/JpS0pAQCR1mnyB0O3O6qWdt9t9y9eSRLkW2bq2I3DMPdpKTxQsgMlbUYV9IMVoQUHD5+5YC4pALwfAyygyC2bXP+MSWMoAQCRWqLlZD5frkdMwR8qu5f92ea8vJwuiLLM1Lox7sGB7n6ApE9IGkYV9FHaPdyvelbbPFIA+N/qiARAcWufUv/we/e1AADkb0W2Uq5HJD3qCh7tKev5x0Y3L8wQBnHlx4wc0t4zbG/JDjT55yQ1UAXrtl+0tywXfCI1+5k2YgB4d7kEoKi1T677vWSfpwQADKqsSc1u9ne5/z0sKb1n+K1PLyMLCna9MaVhlCk83N2+IOnjkgKqoBdeyiVsnxG3N79ICgAMsIBiX1BOrp8haQolAGDAhS49ItlMLymZw8AKxapj4phNsoEfauaHSdpfrjKqYLVci4JEct/KGfPfJAZQ3BhgAUWufVL9tTKdSgkAGIDTLunvkj1ksscVdj+Wmr3obbIA/99bx9ZUlqxIfMbMD5eCz0peRRWs4qz1/3IrV3xqxJzn2okBFPOuAEBRa59U90OZnU8JAOg3T7vbHa7wjuGzWv9DDqB3/JiRQ9qz5Z+Ta7KZf5Yrs/AhD6e60wfxhRZA8WKABRS59il1p8vtKkoAwHppkexOs+ydqZkLF5IDWD9Lj9m5OtHTfYRck900XtwzC5Ikvyf1yiaH29y5WVoAxYcBFlDk2ifVHSWz2ZQAgHX2H0m/s9DmpGY3P0IOYGB0HlWzeTYZTJDbBEl7U6TozUw1tRxt735MG0ARYYAFFLmlU8aMDzx8iBIA0CsvufRLk91Z1dT8JDmAwZWZOqbOc+EUN31V0mYUKU4uu6S6qflsSgDFhQEWUOTSE3es9SDXSgkAWK0OyX8dhH5Lxey2v/FXfyD/fPz4ZGbLNz7vbtMkHSQ+YliMJ7LfTjW1XE4JoKje9wCK2dJjdq4OerqXUgIAPrJMmueu6T1DsrM3unlhhh5ANHUeVbN5T5CcauZfk7QNRYqGm+m41MyWW0gBFMnKjAQA2ifXL5c0hBIAoHdcdpOydkP1nQv+TQ4gPnyCEplkw2c94SfI7bOSJ6hS8HrkfljVrNb7SAEUPgZYANQ+uf4F8RdLAMXtKZN+Vtmdns1XtAPxt2Ty2C2T3jNNQXCS3DeiSEHrknz/qqbWx0gBFDYGWADUPrn+MUl7UAJAMXHZcpP/2sLwutTstn9QBCjA9/kxI4e095RPNfkZkuopUrDedE98vHrWM8+RAihcDLAAaNmk+t+a6TBKACiS5c889/AmLy2bPfzWp5fRAyh8Lll6UsOBsvCbkh3AeVBBag1LSvdivw4U8AqOBADaJ9dfI+k0SgAocI9aaBenZjf/nhRAEa97JtXtILNTJR0vaRhFCoeb/bVqpQ60Oc3d1AAKD183C0Am/YcKAAp0D9cu6Xr3cLeqppZ9GF4BqJrV+mxVU8vpQZDcVq5GSUuoUiB7fPdPtpfpOkoABXveCqDYLZvc8CWTz6EEgALSbLJLK7vbf8lN2QGsyZsTGipKS3SKBfoWN3wvDC47t7qp+SJKAIWFARYAtU9u2F3yJygBoAA8YfKLKndo/Z01KiQHgN56ferY8mGeO9Hdz5S0KUViLXTZkdVNzb8iBVA4GGABUGbq2I3DMPsGJQDEVFayX1uYu5pvEwSwvnzClkPTZZXT3IMzTb4FRWK6HWXLzTW+alYzf6QFCgQDLACSpPbJ9R2SyikBIEbLmHbJb8sl7PIRtze/SA8A/cknNJSmy8KjJPueXNtTJJZezyq5+wZN818mBVAAKz8SAJCk9sn1LZLqKAEg8ieVslfM/ZLOiqE3bj59XhdFAAzoPmdCQ2l7qR9r0rmStqZI7DyeKukab7e+sIIUQLwxwAIgSWqfXH+/pM9QAkCE/cfdL65a2nOz3b94JTkADCaf0FCaLg2PN9m5Lm1JkThtPLu9albzVwgBxBsDLACSpPbJdT+V7BRKAIig58z8J5Urg9ttTnM3OQDkkx88qiy9QdkJ7jqHe2TF6sT326mmlsspAcT6fQwAUvuk+q/LdDUlAERIs8wvSb28ySybOzdLDgBR4hMaSttLdIxM32OQFQuhzA+tmtl6LymAeGKABUCS1D6p4SCZP0AJABFYnswL3S6sHr3gLmtUSA8AUfbfby2U27mSNqFIpC2zRLhH6va2RaQAYrhCJAEASVp6VO3IIBE8TwkAefS0pPOqmlruJwWAuHlzQkNFWamfKelb4pudo3wKvDDXvXyPEXOea6cFELN3LwkASJI3Kmh/tqHD5EOpAWCQFyMvh24XVPU032RzlKMIgDhLTxy9oQfJ8yWdLClJkUiufP+Q6m79LMccIHZrRgB417LJDfNNviMlAAzWbsfdLqrqab/G5ry8nBwACklm6pi6MAx/IukL1IjkqfCPqpqaz6cDEKN3LQkA/Fd6cv0cl75ECQADLDTpFwqz303NXvQ2OQAU9PpqSv2+7rpU0h7UiNaxSG6frZrV/CApgHgISADgv1y2kAoABthTCrRXqqnlJIZXAIpBambLw6mmlo+768uScb/RKJ0LB5rRdfRovkESiM2bFgD+vxYSABgY1i7zM1LdLR+rmtHyOD0AFNUeUPLqWS1zUt2qlfkZkjqoEgHuG/Xkkr/yaeNKiAFEHwMsAP+TUO4ZKgAYgDOEe7JKjKma2Xo1N8wFUMxsTnN31czWq0sS2VrJZlAkEvbMdHVdQAYgBvtQEgD43ynm+PHJ9JZvdshVRg0A/eBZNz+lembrH0kBAB+1dFLDp8z8GpPGUCO/y2BzHZ6a1fI7UgDRxRVYAP7H5s7NmquNEgDWU5dMP0i9070jwysAWL3hs5ofqnpl413e/VihtVMkf8tgN92ybGrNtqQAoosBFoAPcNl8KgBYj3OAe3MJq6ua2dJo9y9eSQ8AWMtec+7cbNXM1qsTodVIfpskp0peDLcwMdsnNJSSAogmBlgAPriIspD7YAHoi2Xm9tWqpubPj7i9+UVyAMC6qZi94I2qptZjQrf9JT1LkbzYI12qi8kARBMDLAAf4GHAFVgA1tWD2VwwNjWr+VZSAMD6GT6r+aFUSddYmX4gqZsig74aPr19St3n6ABEDzdxB/ABnVPqNsu6vUoJAL2QMfdvVM5qvdn4yAsA9LuOybU75hT8QtIe1BhUr1mYHZuavehtUgDRwRVYAD6gfGbra5IYYAFYm9Yg1MdTs1pvYngFAAOjoqntmVRTy8fd7URJaYoMms1CS/6CDEC0MMACsCr/JAGA1bMZy4Pk7pWzW5ppAQADvMeVvHpW8/Skea25fk2RQepuOiw9pf6rlAAitT8EgA9aNrnuOyb7ESUAfEiXmU5NzWy5hRQAkB/tkxsmSX6tpBHUGHAZ98TO1bOeeY4UQP5xBRaAVUg8SQMAH/KqB8EnGV4BQH5VNTXPSoRBvaS7qTHgKs2yM3yCEqQA8o8BFoCPsG7/p7inDYD/7+lsLtizesYCPl4MABFQMXvBG1VNLV9w15clLaXIgK6M90qX1J1LByAC70YSAFiV9sn1z0oaRQmgyBcKpjmVK9NfsTkvL6cGAETP0qNqRyYSwc0ufYoaA6ZHsr2rmpr5lAKQR1yBBWA1nAM0UPS7Af20clTLUQyvACC6ht/R9kJlU8v+cp0uqYsiA6JE0gyfsOVQUgD5wwALwKqZHicCUMTcL6ia1XKaNSokBgBEfdkmr5rVco0lwl0kPUGRATkw1rSXpX5IByB/GGABWPUh2hKPUgEoyrOglW46qWpW6/eIAQDxkrq9bVGqfOg+LrtE4g8Q/X6IdPtG+6SGj1ECyNcyFQBWwcePT6a3ePMdSZXUAIpmUfCyyydUNbU+Rg0AiLdlUxv2s9BnSNqcGv2qLVXStYvd+sIKUgCDiyuwAKz6RHbu3KzExwiBonnPSw8FYbAbwysAKAzVM5r/EnR37yzZvdToV7Xp7qHnkQEYfAywAKye6xEiAIX/Tjfziyu7Ww6omL3gDXIAQOGonLP4rVRT8yEyP0OmlRTpJ2bnLptStyshgMHFAAvAGs5qGWABBa7DzI9IzWw9x+YoRw4AKDwmedXM1qtdvpdciyjSL5KB280+bVwJKYDBwwALwGqtCJKPSeqhBFCQXkgo3Cs1s/UuUgBA4aue2fpU95DcbjK7gxrrz6Wd2juXf5sSwODhJu4A1qh9cv1jkvagBFBQR/9HgpXdR1TOWfwWMQCgCNd3U+pOl9ulkriCaP2sCIJg18oZC1pJAQw8rsACsJbzXP2FCkDhcOnm1Erbn+EVABSvqpmtV1to+0l6lRrrZUgY5m70Rs6rgcHAGw3AGoXSn6kAFAYzv7i6qeU4m9PcTQ0AKG6p2c2PvPsthaz11vPouldmcd2xdAAGHgMsAGtUVdL1qMuWUwKI9eI6524npma2nkMLAMB/Vc5Z/FbqlY0/Y+YXS3KK9I27XZyZOnZjSgADiwEWgDWf9t76wgqTP0oJILY6TXZY9azm6aQAAHxkrTd3bjY1s/UcMztMsnaK9MmIMMxeTAZgYDHAArBW7vYnKgBxPCuxtxRo/1TTgnuIAQBYk9TM5rsDaS9Jz1GjT76SmVT3CTIAA4cBFoC1Sxj3RgDi543Awv2qZrQ8TgoAQG9UNjW3qNt2N+khaqwzC82u82nj+GZHYIAwwAKwVlXbL3hK0hJKALHxktz3rZzRuoAUAIB1WvfNaX6nsts+42Y3UWOdNbR3rPgmGYCBYSQA0Bvtk+tmSTaREkDk/cezwf7Vdy74NykAAOtj2aSGaWb+M0lJavRalwe5MdUzFj5PCqB/cQUWgF6y+2gARJxrUVbJfRheAQD6Q/Ws5uly+zw3d18nwyxM/IwMQP9jgAWgVyzMPiBZjhJAZN+lC5OBj9+gaf7LtAAA9JeqWc0PBqHvLRlXFPXewemJDYeQAehfDLAA9Epq9qK3JT1BCSCSFpckevYvn9n6GikAAP2tcnZLs4U9H+Pm7r3ngV/uExpKKQH0HwZYANbhSBzyMUIgcuz5bC7Yb9jti16hBQBgoKRmL3q78pWND3S3G6nRKztkSsMzyAD046qXBAB6a+lR9bsECT1FCSAyXgxz4SeH39H2AikAAIPBJUtPrmviy316JZM0r+EKaaB/cAUWgF6rvqPlaZdxlQcQDa96NtiP4RUAYDCZ5O7JUySbR421qsy6XUgGoH8wwAKwTgsWc/8tJYC8eycI/CC+bRAAkA/Vs55Zmupu31fSLGqs1dHtkxo+RgZg/THAArBOPGEMsID86pT8c5UzWheQAgCQLzbn5eWpppYpZppOjbWcc5tf7dy+B+iHNxMArIOqlzb6m6QllADyotsVHFHV1PoYKQAA+WaSV6600yTukboWe6an1E0lA7B+GGABWLeFyty5WXfdTQlg0IVumlrdtOAPpAAARGZtOKe5u7ssN95cv6bGGrhdsmTyqBQhgL5jgAVg3XcczscIgTw4o3pmyy/JAACImo1uXpipnNUywaXLqbFamyRVdiYZgPU4DyUBgHVVWdb5R0kZSgCD5pqqppZryQAAiCqTvLqp5duS/Zgaq+Pf7Dp69BZ0APqGARaAdV+g3PrCChkfIwQG6R13b6q75Zt0AADEQVVT83fd7RxKrNKw7mzyAjIAfcMAC0DfTqk9uIMKwIC/0+YtDxJH2hzlaAEAiIvqWc0Xu/vJknqo8aEju9nR70wcM5YSwLpjgAWgTyq7/Q+S3qEEMGBeTFp4yKYz5neSAgAQN9WzWn9usk9Jeo0a7+eJRBBeQgdg3THAAtAnNqe52+R82wwwMDK5MDikfGYri34AQGylmpofDbq7dzLpIWp8wEHLJo85kAzAumGABaDPwoCPEQIDoMcVfGnE7AXzSQEAiLvKOYvfquy2z7j4FusPnoiHl3gj5+PAur1vAKCPqlY0/1VcFg70KzM/ubppwR8oAQAomGPbnObuqlc2+rLM+OPne1zaKbOo4WhKAL3HAAvAeixGlJM5CxGgv95T0kWpma03UgIAUHDHuLlzs6mVzVMkv40a/43iF/iELYcSAugdBlgA1ksul7iVCsD6c9lvK5tazqMEAKBQ2RzlUju0HmuuCyU5x35tmSmtPI1XBtDLfQgJAKyv9in1T8m1CyWAPmvLqnuPDZoWp0kBACgGy6Y0fNHc75CULPIU74QlpdsPv/XpZbwqgDXjCiwA68/9diIAfdYRhPoSwysAQDGpntn8a5POoYRGJLq7zyQDsHYMsACs/46ku6dJUg8lgHXmLvtq5eyWZlIAAIpNqqnlcje7qegXA6bTO45p2JRXBLCW804SAFhflXMWvyXpPkoA67hglV1W3dT8K0oAAIpV1crmEyXNKvIM5blu/w6vBmDNGGAB6BemgG9OA9bpPaOHql7ZiJu2AwCK+3g4R7lUd8vRMivub7Y2nbjsyDHb84oAVo8BFoB+Udm94H5JL1AC6JWXrLv7SJs7N0sKAECxsznKpYYNOVrSA0WcocSS/n1eDcDqMcAC0G8LD5emUwJY25tFKyX74nsfvQUAAJJs+ryesKR0oqTFxVvBJy+d0rATrwZg1RhgAeg3iSB5k0wrZRIPHjxW/XC306qamp9kjwEAwAcNv/XpZUFSh8m0pEjXCUFCfj6vBIABFoABVjlj/psy/ZoSwGq4zahuav4FIQAAWM168raW5jC0T0taWpRLBenw9kl1O/BKAD6KARaAfmVmP6cCsKoFqT2TKumcRgkAANZs+Kzmp83tEEmdRXmOHgRn8CoAVnGuSQIA/S09pe5fLhtLCeB/VuSCYI8Rty+YTwoAAHpn2eT6/c10j6QhRfbUu4KS7pGVt3C/TOD9uAILQL8LpeupALyP2bcZXgEAsG6qm1r+LLPDJK0ssqc+LOwpPZlXAPBBDLAA9LvulcEMSWlKAJKkB1Izmq8jAwAA665qRvODoQWTJGWL65nbKT5hy6G8AoD/jwEWgH638ZzmDgXWxDfO8eCh1wNLfsUkZ88AAEDfDJ+x4DdmdoJMXjxrCN+ofWjqaLY+wAALwEDvXHL6qThpR3FzuR9fOWP+m6QAAGD9pGY03+pm5xXTczbpW97IOTvwv3NMEgAYCJVNzS0mPUQJFC+7umpm6710AACgf1Tf3nyRiukbr107ZBbXHcqWB97FAAvAgAmD4GIqoEg1p1a0n0cGAAD6V2q75lNN/puiWU/LvsFWB95lJAAwkNqn1s+TtCslUERW5CzYg28dBABgYPiELYemh1T+SbK9iuL5Kti9esaCf7LlUey4AgvAQB9yL6UBiuoV7/5NhlcAAAwcm/PycjM/VLKFRfF8PXcqWx3gCiwAA30yP0GJ9JD6RTJtRw0UgftSt7d8nm8dBABg4C37ypjtzcO/S9q4wJ/qykRPsE3F7AVvsNVRzLgCC8CAsjnKyfxySqAIpLO55IkMrwAAGBzVty34t2SHuGx5gT/VslzST2SLo9gxwAIw4FLB8pslvU4JFDJ3+/YGTfNfpgQAAIOn6vbmJyQdrUL/A5L5KX7MyCFscRQzBlgABv54e+sLK2T+M0qgYF/j0kNVM5pvpAQAAIOv+vbmX0n6YYE/zY3TuaET2NooZgywAAwK70n+TFKGEihAXaEFJ/DRQQAA8id1e8sPJJ9d2GfvdgZbGsWMARaAQVE965mlcucKFRQgP+/de3AAAIB8MclTyzPHyfVk4S45tGv6Kw17s7VRrBhgARg0yZLwMjdbLnt3lcGDR+wf8r+ntmu9lnc3AAD5Z3NeXp4syR3mZq8U6trD3U9mS4MBFgAMsPKbF74q+XWUQIFYYUHyOGtUSAoAACK03gzCQyV1FeQTNH0xM3XsxmxpFCMGWAAGd6fTnb1I3AsLBcDNfpC69Zk2SgAAEC3Vt7Q+FVowVYV5f8qyXCJ3LFsZRXkuSQIAgyk1e9Hbkl1DCcTc01WlQy4nAwAA0TT81gW/MdfFhfjczP1rPkEJtjKKDQMsAIMutJLLJC2lBGIq64EfZ9Pn9ZACAIDoqtyu5TuS31OAT23r9LC6z7CFUWwYYAEYdMNvfXqZ5FdQAnHksiuqb2l9ihIAAESbNSoMrWyqpEUFeCr/NbYwiu49TQIA+fDmyQ0VZV3+b0nchBLxOWi6Xl5RbnUbX9fcQQ0AAOIhfWxNjYfJxyWvKqCnFXouN6p6xsLn2cIoFlyBBSAvNr6uucPkl1ECsVopBv5thlcAAMRL6uaFC2U6UrJcIZ3LB4nENLYuigkDLAB5U9mZ+amk1yiBODDpL9W3tN5JCQAA4qfqluYHJb+gkJ6TS1/1aeNK2LooFgywAORvIDDn5eXmfj4lEIMVYjZQeAYhAACIr9TIlgsk+2MBPaVNMiu6Ps+WRbFggAUgryq3bb1FsnmUQJR5oKsrbm17hhIAAMSXNSpMJG2qCugTAB4Ex7FlUSwYYAHI+0IilH2bEoiw18OSFReQAQCA+Ku4ccEbYWiTC+d+WH7wkq+O2Yoti2LAAAtA3g2/dcFcmX4nk3jwiNxD9q0R059r550KAECBrD1vb35IposKZK0SJJQ7mq2KYpAkAYBIcD9TZgdLKiUGovOy1N+qbm2eTQmg+CyZPCqVKBsy2kIfLfMakzYdlP2OLGcWpiVJoXkoW/a//2OgpYF7T86DdgtyaeV8qSUT7UF3Il1R3dVu1y5eyZYDeie1zUaN6f+8+QlJ+8b9uZjsWJcuNMnZsihkRgIAUdH+1borJPsGJRAR2YSHu3LvK6Bw+bRxJZlsx3ZSskbuo2U+OvRgtMlrNEgDq362QtIySa/J7VWXXjfzV8zsebPwuURP7t9Db1/0Kie5wLuWHD92y2Qu+3+SNoz9/izUp6tva/kzWxWFjAEWgMhYNmnH4VaWe1bSBtRABA6RV1fd0nwGHYD465xWt1l3Nqg199FmGq3QamQ+WtK2Kr5PJKyQ9Px7j+fM7XkF4fO5MHjeS5c/z0emUWzSxzYc6u6/i/8z8dlVt7ROYouioFfnJAAQJe3HNpwi959SAnm2JPTSUcNvfXoZKYB4WXrMztWmlbtLtruZPiZpd0mbU6bX3pFrscueCaSWMLAFpdnu5mG3L3qFNChU6a/WX+/SiTF/GitCL92MtQsKGQMsAJHiE5RIV9Q9Jtlu1ED+jo7+jaqbW68iBBDxY0ajgvb/1O1ssn3k+pgC7S7XDqxxB+SsYalczSY1u9kzCsN5qcqe/+O+WygEr04bN6y8Z8VTevfjw/HdJ7pNq761+RdsURTuoQgAImbZ8bXjLEw8LnmCGsjDofH5VPnKOk7KgIgeI47dcTsp/HQg/7RL+4mPnedTVtIiyea59Egi4Y9WbNHSao0KSYPY7Vu+Wrermf1DMf5CIZf9tfrm5vFsTRTsKp0EAKIo89X6a938VEpg0Bd/7pOqbmnjmweBiOg6fuyW2Vz2AAW+n1z7iY8DRl27S/8M5A/L7KGKYT2P8wcBxEX6uLqz5boozsuYnGnb4Te1/oetiULEAAtAJC2ZPCpVUlbSImkLamDQVn2mp1NbtY7j6gEgvzIn1Dd46J+X2yGS78WaNdaWS/aU5I8E0p/Ky3seZqCFyK4DGhVkXqz9o2T7xfcM389L3dT2E7YmChGLAQDRPYH5at2RbrqDEhi8NV+wf+UtzX+hBDDYJ43jkx0vvravFBzq0hf07rcDojB1SP6IpD9Jfk/q5oULSYIo6frqmK2ylpsvqTqmT6E1dXNrPVsSBblWJwGAKMscW/egSwdSAoPg/tTNrZ8lAzA4fIISnZV1nwplkyU/VNIIqhSlZ2W6x8LgnoqSIQ/b9Hk9JEG+pY+r/Yrcbo3r7x8Gvlv1jW3z2JIoNAywAETasmNHbxco8S9JFdTAAMoFoe9ScWvbM6QABlbHMQ07h4FPkXyiuJ8VPqjdpQdlusd6/L7U7W1LSIJ8SR9b+zvJDo3pSf5VlTe3foOtiELDAAtA5GWOrzvFXT+lBAbwcHhr6qaWr9IBGBjvTGvYOhnmJsltiqQGiqAXsub2Z1d4Ry4cctfwW59eRhIMpo5jGjYNE+ECxfObTl+vTLduaXOUY0uioFbsJAAQdS5Z5ri6v0gaTw0MwJFweVIlo4fdOP9lYgD9uO+eNq6kI1zxhdDDk0z6lKSAKuijlZIecPM7l68svXvTGfM7SYLBkDm+7kj3eN6P1cw/VXlj21y2Igpr2Q4AMbDs2NHbBZaYL6mcGujfs2y7KHVzy7mEAPrHO9Matk7kwhNMOk7SZhRBP5+8dIXS7026ozId3GdzmrupgoGUPq7ul5ImxG55I11XdVPrKWxBFNgxAADiof242lNNdi0l0J/n2rlc2fZ8NAVYzxOlRgXpl+s+Y24nSf5ZSQmqYOBfeP6mTLcrEd6Umr6ojSAYCOlpozdULrFA0iYx+9X5GCEKDgMsALE6Qcq8WPtHme1HDfTLQdD03cobW39MCaBv3jq2prLUguNN+rqkkRRBHj0i+Y0difI5m0+f10UO9KfMsbVfdLNfxW+dw8cIUWBrdxIAiJOu48dumVXPv8TXrWP9Le1Z3jNyg6bFaVIA66bjmIZNwxL/utxPkjScIojQ2U3aXbM8DG+qvnnhPwmC/pI+vu43kg6P0+/szscIUWi7eACI2wLihLrD5foNJbCeB8DvVd7YegElgN5bNm3M9okw+3WXnSBpKEUQ8f38vFC6JhUMm23T5/VQBOujc1rdZrlQzYrX0P6NyvbWLfgYIQpovw4A8ZM+vu4Xko6nBPp6Hp4NVo4cMf25dlIAa9c+rX4PC/1sSV8Q3yaI2PGXJf3MPTG96qbmd+iBvsocXzvNZTfE6oTffHzlL9r+ytZDIWABAiCWulaWnCEZN2xF305lZFczvALWbtnxtePSJ9TdY6E/pnc/OsPaETFkW0r2k8DCl9In1F6fOX5MHU3QFxU3tv1CUsyGQcGX2HIoFCxCAMTSpjPmd5rpS5I6qYF11B5mS68iA7B6HcfXjE2fUPfbQPakXJ+jCAqBS8PkdqIr15w5vv6BZcfWHuh8IgXrwCSX+TRJy2Pzunc/hC2HAnoPAkB8tR9fd7RJt1EC63ACc0HVja3fowTwUZmvNtSHifD7Jn1J/KETxeEZmV9RuSwxy+Y0d5MDvZE+rvZcmV0Yl983ULhTxY0L57PlEHcMsADEmjcqyLxS94akDamB3qw5PQy25R4owActPa5um0RCP5JrkhhcoTi9Jvm1HiZu4BiBta4/p40ryXjX05LqY3HSb/pu5fTWH7PlEHcsUADEWsfLtZ8Qwyv0dsEpXcOJCfD/vT51bHn7tPrGRKBWuaawNkQR20yyCy0IX0mfUHd7etroWpJgdWz6vB65nfTu0iIG6x8XHyNEQWCRAiDW3HQUFdBLGSv1q8gASD5BifQJtScMK+tZbO7flzSUKoAkaYikqfLEgvZpdXdkTmyoJwlWJXVjy8OSZsbk19294+SGTdlqiDsGWADiewI2bVyJ3PhmFfSO+bWpn7UtIQSKXeb4hv3S1XX/lGy6TJzQAKuWMNeRHobPpE+o+2X62JoakuAjJ9OeOFPS0jj8qmF3yBdyIP7vORIAiKu0ug6UaQNKoBc6pfBKMqCYLTu+Ztv0tPq73cI/m7QzRYBeny9NUCJoTp9Qd1v7cQ2jSIL/qrhxwRsmfTcWv6zxMUIUxg4ZAOK5A3OfSAX0bs3mN6emL3qbEihGPm1cSXpa7TkJCxaIr1MH+ioh6WgLwtb0CXU3LTu+ZluSQJIqlrXeINc/Y/CrftpPG1XGFkO81/QAEEOvThs3rEJdb0iqoAbWIhuG4ejqGxc+TwoUm/RJNXsrDK6XNIYaQL/qcdMvgu6exspbFr9FjuLWflLDxywM/6GIXyBigX+q8vq2uWwxxBVXYAGIpUrrOkQMr9CbxZprDsMrFJulx+xcnZlWe7XC4G9ieAUMhBJznewlJc+1T6tv9GNGDiFJ8aq6vvkJmd0e9d8zDO3TbC3EGQMsALHkzrcPondypsuogGLSfmLtxETpyjaXfZ21HjDgKkz+/UzpsObMtPoJzidcilbC/TxJmSj/juY6gC2FOGMHCyB2lh6zc3WidOXrkvgcP9bIpT9XTW/lr40oCulTajdQt66X8e2sQP4OPPaoJ+ybVdc3P0GMItwPn1h3tlwXRfhXzIWJ5EbVP39mKVsLccRf5QDETqKk+wgxvEJvWMDVVygK7SfWfVY99gzDKyDfxx3f28Lwscy0+qauk0ZvQZDiUlnac5WkxVFeRieyPfuxpRBXDLAAxI6bT6ICeuHZ1A3ND5IBBb0//MaWQzPTaq821z2SNqMIEAnm8knZMLEwfWLd2T5BCZIUyYa/dvFKmX07yr9jaLY/WwqxfY+RAECcdBw/ZpMwkXtFYjGItZzYm59WdX3bTymBQpU+sfbjcrtdplHUACJ9wvVUGAYnVf2i+UlqFIfMiXV/cEX0flOuxanprTuwlRBHXIEFIFZyifDLYniFXpzbd3f7bWRAIfJGBZlptd+X7GGGV0AM3rPSrhaE/8hMq7/2nWnbVVGk8JmCMyWFEf3lRvHxVsQVAywAMVsQ+EQqYO2vE9280c0LM5RAoUlPG71h5rXae92sUQzzgThJuPmpSStraz+x7mhyFLaKG5r/JdOMqP5+OU/sw1ZCHDHAAhAbS0+qHSlpT0pgLcJQuo4MKDTpaQ37yBJPS/YZagCxtalJt6VPrL2/6+QxW5GjcCWDxPmSVkRyoSTtyxZCHDHAAhAbCbcjxb37sDamB6tuaH2WECgULll6Wt2ZsvAhSXzsAyiMg9VnsrncM+mT6o+lRWEadt2ClyRdHc2lknMFFmKJARaAOJ3F8e2D6MWqLLieCCgUS04blcpMq58j0yWSkhQBCkqV3G/KnFj/QNfxY7ckR+HJrSy7SNKSCC6Wdlx6zM7VbCHEDQMsALGQObGhXoHGyiQePNbweKVyk43u4x2DQtnvlfSUPKXAv8h7mwePwn24+UHZZM/89pPqprLnKyzDb316mZt+HMHXXRCUrdyLLQQGWAAwAMLAj6QC1salm61xbpYSiLv2r9Uf7Bb+Q9L21ACKwnCTbk+fVPu7jpMbNiVH4UiV9Fxn0otR+70sMD5GiNhhgAUgFsz9MCpgLXK5MLiRDIi79pPqvmHuv5eUogZQdCueQ8MwXJA5qfaLtCiQLXrt4pVuuiByv5j73mwdxO79RAIAUbf0pNqRCdnzlMCaF2K6N3VD6+cJgdi+hBvHJ9OvvXGVmU6hBgBJM7o6S7626Yz5naSI+f59ghKZDeqaJdVEaBDQVbHpJlVcuY444QosANHfUbl9gQpY+wslmE4ExFV62ugNM6+/8WeGVwDeZ+qw8p4nOqbV7kiKeLM5yrnZj6L0O7k0rPO1txrYOojVcp8EACJ/0BcDLKzVG9y8HXG1bNqY7RUkHpP0CWoA+JD6MLAnMifWnUyKeEu93TJbruYo/U4e5PZgyyBe54UAEGHtxzWMsNLwDfH18Vjj0cwuT13X8m1CIG46Tq3dMczZA5I2pwaANXL9Tgk/LvWztiXEiKfMyQ1fcg/nROhXuin189bj2TKIC67AAhBtpf5ZMbzC2g5mQXgbFRA3HafU7x/m7FExvALQG6YveGj/l/5a/b7EiKeK65p/LdmjEfqVuAIL8VrzkwBAtNdqfigVsMbXiOupip+2PUMJxEnm5Lojw9Dvk1RJDQC9XxdpK8n/0n5y3TeoEcvt58plj5cURuRXqnvr2BqOQ4gNBlgAIstPG1Um6TOUwJqEMq6+Qqy0f63+NHfNklRKDQB9kDTXFe0n19355skNFeSIl9T0RW0yPRCRXycxpNTGsVUQFwywAERWuic5XlydgDXrtjA7iwyIi/aT635o8mtYgwFYX+b68hAPH09/raaGGvHiCq6Nyu8Smu3MFkFcsHgCEN0dlBlXX2Fty/cHU9MXvU0HxEH6pLqLzXU+JQD0o3opeCJzcu0RpIiPquuaH5AUiZu5m3wsWwRxwY2RAUSWmw6iAtb4GpHupAJi8Dq1zMl1l0vinjUABkLKZb9Kn1J3SeWbrd+xOcqRJPoChT8KLZiQ79/DZAywEKP3DQBE0DvTGraWVEcJrMHy7hW5u8mAKHPJOk6pvVoMrwAMLJPr7PRGdQ+2H9cwghzRV/HzhfMl/S0Cx6kGbxzPhS2IBQZYACIpmcxx9RXW5v6Nbl6YIQOiyiVLn1x3nbudRg0Ag8Gk/a0sfIz7YsVle/nVEfg1hnS89tZotgbigAEWgIie+QUMsLDmRZ/bHVRAZHdh7w6vfmrSSdQAMMh2kAVPtH+t7nOkiLaKjdvuktSa918kGfIxQsQCAywA0Tvxm6CEzPejBNags7M8eR8ZEMl92HtXXpl0MjUA5EnKTL9r/1o9V4BGmDUqlPzK/B+3uA8W4oEBFoDIyWxSs6ek4ZTAahdart9vetn8Tkogkvuwk+su4sorABGQMPNrMifXX8s9jqKrMpG9XbLn8rywYoCFWGCABSByXMFBMokHj9U9LMG3DyKa0qfUnyfTWbxPefDgEZWHm5/a8dab9yw9Y+dq9tLRY9cuXqnAv5Xf14gYYIEBFgD06UDuOpAKWNOMoLJj+QNkQNS0n1x7quQ/pgSAqHH5QYmelY92nTR6C2pET+qnrXeZdFXe1t7SVu3f4NsrEX0MsABEypLTRqUkjaME1rDKustufWEFIRAl7SfXHW1m11ACQITVZxOJh5edNmZ7UkRPxUbB2ZJezdtgYEVuR7YCoo4BFoBISYYl+0jiPg1YLc/pl1RAlKRPqTvcTDfp3Q9jAECUbRt47uHMSXVjSBEt1tjcbfIb8vXzwyDYia2AqGOABSBaB2/3T1EBa7A0tUnwRzIgKtpPbtjdpJli8A4gLlybeUJ/S59S+3FiREyu9HpJK/O0Buc+WIg8BlgAIrZXsvHccJXHGh6/scbmbt4oiIL2r9ftYInwPjcN473JgwePmD2Gy+wPmVMb9mNvHh2V189/U6Y5eXlNJBhggQEWAPTaO9O2q5K0CyWwOm76LRUQBelTajewUPfItSE1AMRUhSu8L3Na7RGkiI4w8KvytMiqoT6ijgEWgMhIlpV+QlKCElgVk7pSycxfKIF8829sOVSyuyWNpgaAmCtztzvbT6ufTIpoqL6mbZ6kx/Lwo1Mdp4/ZhC2AKGOABSBCZ4XG/a+whpeH/mhXvrycEsjr61Cyjp7UjTLtRQ0ABSJp7relT6n9CimisubxvHyrbZjrGUV9RBkDLABROjEcTwWsflWle4iAfMucUn+pyydRAkCBScjspvbT6o4mRf6lNkj8WtJrg/6DzXagPqKMARaASFj2tR2Hm8TX92J1wkSJ7iUD8il9Su1XZP4tSgAoUAlz3cwQK/+ssbnb3K8f/NWWGGAh0vjKZwDROFCXZD8uZ6iO1XA9WX5V62uEQL4sO6VuVwX6OSUAFLiESbekv15rqWvabiNHHuVKr1dJz7mShgzacsuMjxAi0jhZBBANro8TAatjgX5PBeRLx8kNmwaB/07SUGoAKIpzRLdbMqfVn0iK/Km8fv6bkuYM8o/lCixEfOcEANHAAAurZR5w/yvkhZ82qixMhL+RbEtqACiqQ6/8uvRptceQIo/HoCC4dlA3ujTKJaM8oooBFoD8H5wbxydN2oMSWM1i6sWKa5v/RQnkQ0Yl14kBO4CiPVe0m9pPrZ9Civyourr5SbkeH8QfWdl1Rt2mlEeEd0oAkF9dS97cUVIFJbAqofj4IPKj/bTaUyUdSwkAxXy+aOa3pE9tOJQU+eGm6wbz5+Vy3AcLEd4hkQBAvmUV7k0FrHbhJr+bChhs7ac37G6yyykBAErKwjntp9YeRIrBl1LPnZK/OYgLLwZYiCwGWADyvyMKbC+ZxIPHKh4dVcr+lXcJBtPSM3auNg/vlKmU9yAPHjx4SDKVBoH9Jn1qDX90HGR27eKVsuDmQdvWATdyBwMsAFgt5xsIsdpVm/5g1y5eSQgM2v5IsoSvvEnSttQAgA/sH4cpCO7OfL1uDDUGVy4Ib5CUG5yfFjLAQmQxwAKQV51n1G0maSQlsJrV8v1EwGBKn1Z/mlxHUAIAVmmES39YdtqY7UkxeIZf1faCZPcNxs8yt+0ojqhKkgBAPuU82F0KCYFVylrwBypgsCw7tWY3M7+EEviQHkmvSHpJ0uuS0iZ1uGnFWv/L0JIW+Obu2kbv/rFmM/EV9Yi/zQLL/bHrG6P3HXblolfIMVj8FkmHDPhPMW1Fa0QVAywA+T0Ue7gbK3msmrWNuLr5RTpgMLwzbbuqIEjcKXkZNQpet6R/y/1ZyZaZLO0K05KlzXxp6MpYoIxMSxJZ/8+wDRe+bo3985cWb2wobV9iWyXct/HAt3FpG5OPlGxrSdtIvjXrc8TEttkwcf8707bbd8T059rJMfAqVwy7JzOk6y1JGw3wj9rw1Wnjhm0+fV4X1RE1HCAB5JWZdpPTAat4bSj8IxUwaAuiIWVXS87HJgpvT/KcmT/u8nnu1qpEsChVtdEL1jg3m5ffprH53eHZu4+P8MaG0o53wtEyq1MY1oWyejM1SKqTlGB7IlJcOyaGlP3Kp437rE2f10OQAd5/TJ/Xkzm9rsldZwz0j6oY2rGVpIVUR+TWayQAkGe78WEKrHpdLD4+iEGRPqPuMLm+QonYWyHT4y79TdLjQa7nicprF78VqxPUdwdcC957/M9bZ9VUDlmh3TywPSXbQ649JG3KJkfeX7PSpzPDun7h0ldN/Ely4HuHt7gFZwz0zwkVbC0GWIjmPgcA8mPpKXXbJJJ6gRJYhe4VPcEGG1/X3EEKDKTMt8du7D3dz0i2MTViZ4VLjwauv3rC5lZmu58opm8tTZ9eU2Nun5TZeJfG6937awF54bIfVl3d8n1KDMJx6/S6eS7tOsA/5vjU1a03URtRwxVYAPK3A0r6bs4cHati+gfDKwzKSVdPz/UMr2K1c2gz8wdD2YOdXUP/Wsz3aEldvXCh3r1CYrr03kDLgk+76zOSPiWpnNcLBu+w7d9Ln1H/n9RVLTdTY2CFphnmAzvAcjNu5I5onj+SAED+FjvajavNscqFk/PxQQy8jtPrjnb54ZSI9u5A0mNm+lWP9JvhV7W+QJJVe99A62d+2qiyzmTJvmHonzHpc5JqKYRBOHhf33F67SsVV7c9SIwBPIHPhr8ME3a5pGCgfkYQ8k2EiOz5IwDkR+b0mj9Jtj8l8JGFU+C7l1+58J+UwEDp+uaYrXK57DOSqqgRvdNgSf8wszlBkPj1sCsWvESS9ZM+dXStEsFhgdvhbr475wAYyJebheEnKq5d9C9SDOAa+ozauXJ9cgD3wn+qvKbtAEojargCC0C+zk6sQ7YrJbAKbw+rWvgUGTCQwlz252J4FTUvSnZ76Lq96prWZ8nRf1I/XdQm6SJJF3WdNmrLXJA8TNJRkvYSwyz088vNA/t9x+ljdq+4esEb5Biog5jfIbNPDuBP2JrIiCIOWADyYukZtSOT0vOUwEe47qi8um0iITBQMqfXflGmX1EiElbK9Wvz4ObyES0PWaNCkgzusThhmmSuSZIaKIJ+PM18pKI62P+9b9ZEfx/HThu1kRLJVzVwF6Qsr7iqrZxvlkTk9iwkAJAP6dNrDjWz31ECH+by41JXLeQmsBgQS04blSpNJFskbUGNvC5AXwhNN1g2e1PltYvfokj+dXxz9E4e2jGSTZW0AUXQD6ZXXtV2IhkGRuaM2gckHTRgPyDZs0nlZf9+k9KIkoAEAPJy8mLBTlTAKtdLuRw3cMeAKU0mLxDDqzzu/P3Poezz5dVt26eubLuI4VV0VFyx6F+VVy38RkUuu4VJkyT9RVx9gfUzLfONupPJMDDc/M4BHRSEZRwrEb1lBAkA5EPmjNo5kr5ECXxwNaa2yqvb6giBgdD5jZrdQrfHJCWoMahykv06CP2S8mva5pEjPpadNmr7ZLLkRJcfL9dwiqAPemQ6oPLKtr+Son8tPWPn6qRWvC6pbEB+QOD7VV6x8CFKI0q4AgtAvowlAT7K5tIAA8EnKBHKrhfDq8GUlekXuVy2pvKq1iMZXsVP9bWL/11xZetZnYnSrWR2iqRFVME6KpFrztIzakeSon8Nv+rpZZIeHLDjpitFZUQNAywAg+71b48tlzSKEljFUYm/0GJAdGxRd5Jc4ygxKFzSrzxQQ+WVbdOqr138b5LE26aXze+svLL1uorqtrpQ9nm9+/FCoLc2Skp3vbf+Qz8y04B9jDAIVUlhRE2SBAAG29Ce7BgFDNCxisVSSfg3KqC/LT1j52rZikZKDIq/BGF4TvnVi54kRQGeLDcqlFrvlXRv+zfr9ky4f8elz4nbkmDtdioPu3+hd++vhn7StTJx99CyXJekYf39b7sFXIGF6J0rkADAoC+AEyEfH8SqLCq/ZOGrZEB/S9iK70rakBID6mWZvlR5Zdv+DK+KQ9UVrY9VXNl2iHliV0m/khRSBWvkmpj5Zi3fStiPNr6uuUOyewdmczkDLEQOAywAg84kvoEQq3hhOFdfod8tO3PU9iadRokB02OyS5evTNRVXtH2a3IUn4qrmp+uvLJtghSMlex3FMEaua7qOKNhZ0L0Z9PwlwMyKOAeWIggBlgA8rF4aSACPszE/a/Q/xLZ5CWSSikxIB6Vgl0qrmw9692rAFDMKq9saa68svUwN+0t+cMUwWoMccvNWXLaKIYj/aSiq+I+kzr7fbkeMMBC9DDAApAPdSTAh2Xd/04F9KfM6XWfkHQEJfrdCnOdWVHV9onKK1uayYH3S13R9vfKKxd+wk2HyLSAIliFUaXJkhvJ0D9s+rwud7+nv/9ddz5CiOhhgAVgUKVPqd1A0iaUwIcsqbpy0fNkQL8tvCXzwC+nRL+bJwW7VVzVdtm7N/QGVi11Rds9FS+17SzzkyUtoQg+tJeekPlG7al06C/W7x8jNONbCBE9DLAADK4hYZ1M4sHjQ49/muS8QdBfOr5Ve7iZduO91W+PlZK+X9FZ/nGuukKvT4DnKFd5xcKfh0qMVuDXyZTjvcTjfY/LOr9RsxvvlPVXYR33y5Tp1+0jK6csGGABKG4e8PFBrOIsx/jWMvTfbqZRgUJ9nxL95q9u4c6VV7b90KbP6yEH1lXVlc3vVF6+8BRTOE4SX9iB/yoLze585+ztqkixnsuoK19eLqm/P0Y4jLKIGgZYAAb3ACuvpwI+zD1kgIV+05GpOUKmsZRYb0vN/IyKVNt+qcsXtZED66viikX/qriibbzJviLpbYpA0nbJntJryNAPaynr948RMsBC5DDAAjDIjCuw8BGJpP5JBfTLAr5Rgdy4+mp999Sm36snW1Nx+cKrudcV+vW1JXnFFa23Wy45RtJsisCkozPfqvkSJdZPZeXyBySl+/Gf5COEiBwGWAAGGwMsfNir5ZcsfJUM6A8d7TVfkjSGEn3WbdK3yi9v+0LltYvfIgcGSsXVC96ovKJtUiD7nEv/oUixs+s7z6rZnA7rUbDxhRWS399v/6BzBRaihwEWgEHz5skNFZK2ogQ+sOBy/R8V0C9r7UYFMvsuJfrsRZc+VXFF2xV8qQIGS/kVrfdVdpTXS7pGvO6KeAeuDcKs3erv3T4cfV1T2d39948xwEL0MMACMHiL1KG5GpmMb93h8YFHoGd4d6A/vHfvqx15X/XhIf0hGw7ZKXVF2995JWHQT7qnz+uqvKLt9DCwQ2R6jfdk0T4O6Phm3cm8I/ouW1Zyv0zZftoeDLDAAAtA8QrNdqACVmE+CdBPp8HfokFf+I0VHeWfH37V08togXyquqz13mxuSL3LZ1CjWHfjflnmG/UNhOib6oueWSrp4X7654b4BCWoiihhgAVgEM+RwlFEwEdfFgEDLKy39LdrPy5pT0qsk9Bc36q8fOEJNn1eDzkQBcOvenpZ6vKFR5v7VEkZihSdIZ4Ib/Vp40pI0Tcm+31//Vtvb1vDVViIFAZYAAaNyxhg4cNWVnQOXUQGrPeC3fVNKqyTFS77YsUVbVeQAlFUccXCmWFg4yTuk1iE+/PdOio6z6NE3+TCoN8GWENXljDAQqQwwAIweAsSiY8Q4oNczVz5gfW19IzakZIOp0Sv33ddJjs0dXnrXcRAlFVd2vpsRXf243Ju8F6Ei8bz+ChhH983VzYvlllrf/xb2ZIeBliIFAZYAAbT9iTAB86jAy2gAtZXMmFnSNyno5faPeEHVlze+kdSIA7s2sUrK69oO93ND5d8GUWKRqmC8EZv5Hy1T++bMOyXbyNM5qyCmogSdggABsWS00alZNqEb9jh8f5HIP2LdwfWf9/iX+X91KvH0tCCg1KXLnyUVw7iJnXZwt+FYXJ3BXqG93LRPPbs6Kw9hVf/unML7uuPbZBLBFyBBQZYAIrPkCEl3P8Kq1phPUMErI/SssQxklKUWKu3TD6+6rKWx0mBuKq6snnx8s7EXpLNoUaxrBN04fKzG7YmxLqpqNzk7/1xxWKgXDk1ESUMsAAMipD7X2FV61Lr5gosrCc7lgZr9ZbltH/FZQv5xk/E3sbXNXdUXtb6ZblOlJSlSMGr6MmF15NhHY+MjXOzUrDeHxV3M67AQqQwwAIwODzkCix8aHWlNyov+/ebhEBftZ81+mOSdqLEGr2pRPCpiivbuNoRBaXy8rbpZn6IpDQ1Cn254Ad3fKtmMiXWceltft/6tzeuwEKkMMACMEhHUe1IBHwIV4Ng/RYxHhxHhTV6U574VOXFLc2kQCGquHThA5bTPpJepEaBLyPNrkp/a/SGlFiXE/3EA1rPb+90FzdxR8Re1wAwGBK2Czcj5fH+hzPAwnp4/dtjyyUdxXtptY/2IAw+U3l5cwuvFhSyiivbnjFL7OGmJ3nfF/RjQ1lwGa/4dXhvXNr8ugI9tV5fthN4NSXBAAtAUfHGkUPk4iOE+LAFJEBfDQtWflncvH11lkv6QvkVLf9HChTLiXplefl4Sb+lRuEy09HvfXQcvV+Fr9fHCF02nIaIEgZYAAZcJj1ka/Y3WMWqaCER0OcTGTc+PrhqWXcdWXlp219JgaLaJzTO66oob/uSZD+nRuFu5sCDq/zd64PQm6VWaPev1z8QhgywECmcUAIY+B1N0rahAj6yqMolGGChT9rPrNtB0l6UWMX7ynxa6rK231MCxcgaFVZe2nqyzC+gRsH6eOe3ayeSoXcq/9P2hKQlfX9TWTUVEanzShIAGGihiwEWPuytqiub3yED+rR4MZ8s/gK/KhemLll4CxlQ9Cftlyz8ntxPlxRSo/C4+UXeOG4YJdbO5ign6cG+t+YjhIjYGpAEAAb84CkGWPiIRSRAnxbTkikUX6e+itOUikvbvksH4F2Vly28xsyPltRDjYLb323V0dF5Jh16Wcv9/vX4b6spiChhgAVgME44R/LtOTze/zDzNt4Z6IvMt2v3VKBRvI/+/8NN/6woH3aMrefXpQOFpuKShU1hYIfLtJJ9RYE9Ap29/OyGrXmVr13o/oBMYZ86S1yBBQZYAIpuhFVDA3xgMWUBV2ChT8y4+upDXg08cYg1zusiBfBRVRe33uuyoyR1U6OgDM167kIyrF3q8kVvm+nJvh10mRcgWnhBAhhQ3jg+aaYxlMAH1kNh+DwVsM77k2njSmQ6khL/0+OmCRWXNr9OCmANJ/CXtN7l8gliiFVoJrWfNfpjZOjF8TPUfX1csb1JPUQJAywAA6pz+ev7SxpKCbxfaMFLVMC6ylR1HiRpQ0r8zzdTF7f9nQzA2qUuWXi3u74oaSU1CoYFMq7C6tXCK/Grvvxnbv4k8RAlDLAADIiOs2t3zJxV81t33U8NfFhJT44BFtZ90RLoi1R476TCbWblJW0/pQTQe6lL2+7x0CZKylKjUNj+mXNq9qPDmlVe3tzi8r5chfUr6iFSa0ESAOhP6XNrR2fOqp3lrqclO0x81T0+Kjv05UV85AnrxBvHJ911CCUkudq6vOQkQgDrLnVZ629NOl586UHhCO3HRFi7XGCnSHp7HY41f+EqX0QNAywA/WLpObUjO86uvdlCNcs0UaaAb8nhsZrHqzZHOd41WBcdXa/tK9MGvH+00pSYuOll8zt5VQB9U3FJ221m/g32JwXz2DN9Vs2hvLLXbPhFbS8EQfhZmd7qzVotm9BxVAMDLAAFpfOsms0z59T8LOla6NJXJSWpgjVy8fFBrDuzw4kgmdm5FZc2P00JYP1UXLzwarkaKVEg+8bALvBGzm3XpvyiRU8mkuEukn6j1V6FaI/kLNx3+EVtL1AMkXuvkwBAX3jjuGEdyzu/bdJZLpVTBL1/8Wh25SVtkwiB3r9kZB1n174gaevi7mD3V17c+jnjo09Av8mcU/MzuZ1MiYI4sZ1ccXHbLEr0Tvrc2tGB6xC5xoSyZGD+krs9UHFx68McZxDh9zkArOuJZN2Rkl9c7CeT6POR5weVF7U1EgK91XlWzW6hWbF/E9I7FiYaKi5t5v5xQH+uayYo0bld7e9c+hw1Ym9xxdLyeps+r4cUQGHiMksA63QS2XFW7cOSzxbDK/SZtdIA6yK04AtF/66Rn87wChiA99Yc5bqGJo6S9BQ1Ym9UZnjnMWQAChcDLABr1Xle3WaZs2pvCM0ek2lvimC9ThayIQMsrBOXf6ao3zPSvRUXL5zJKwEYGBs3NncECfu8pBepEfuT23O9cTz3YwUKFG9uAKs/aZw2riQzvPNbYejfUaAKiqAf5MorVi4iA3or/a3RG5pp1+LdEfsyc03jlQAMrPILW1/rOLv28256VFIlRWK6y5S27Vz+2lGSGPoDBYgrsACs+qTx3NqPd4zonGemn0gMr9BPzF6wxhdWEAK9fskkE58u5vWKB3ZW+SULX+WVAAy8iovbnpHpGHED63jvN83Oce71DBQkBlgAPuCds7erypxTe7W5Hpa0I0XQn8ydjw9i3V4z5gcV7UmY9GRlWdtNvAqAwVP5k7bfyOzHlIi1hszZNYeSASg8DLAA/E/m3NojSqy0WdLXJSUogv4WutqogN5yyVw6sEiffi4R2EnWqJBXAjC4Kspav2/SvZSI8Umu2blUAArwvU0CAJ3n1W2WObt2jly/lrQFRTBQTPYCFdDrfdPZtWMkbV6kT//n5Re28q1oQD6OVY0Kl4c+UVILNeLJpT0y59TsRwmgsDDAAor74G6Zs2tPDENfKNOXKIKBf82FL1MBvV+l2P5F+szfzg4Zcj4vACB/NrpkYcZcR0laTo3YLjrOIwJQYEtDEgDFqeO8MZt0nFt7lwJdL1OlTOLBY6AfQSL5H9596P25h+9blO8V6QfDG59exisAyK/3bur+DY7fMX0Etn/63NqP80oGGGABiLHMuTVfcs82S+IGlxhU4coersBCr7z3DVJ7F+ETf7binfIbeAUA0VD5k7YbZDaHEvFkpm9RASgcDLCAIrKkcVQqc17tDZLNkbQBRTDIulKXL3qbDOiNzLm1O0japPjOtnSOTZ/XwysAiI6e3MoTTHqeEjHkOmzZd2u2JQRQGBhgAUWi47z6/UtXJhbINY0ayNMi8iUioNfM9ynC98jfK37S9ls2PhAtIy5+rj0XhEdJYrgcP4lkTieRASgMDLCAQj8fmjauJH1O7WXu4R8l24oiyBtzPj6I3i9QwqDoPj5oQfA9k5ytD0RP1Y8XPSHThZSI4VpYdrw3jhtGCaAA1ockAApX13fGbNUxonPue5//N4ogz/j4INbhhMP3LbKn/GjFhS1/ZssD0VVRuumPXHqSErEzIrOyczIZgPhjgAUUqPS5NYfmPPu0Au3FN9HwiMYjWMo7E73afzWO3lCBRhXX+8PPZ8sD0WaNc7NmdqxMKzmmx+th0mm8ggEGWAAixhvHJzPn1Taa2W8ljaAIImQJCdCrxUl3ME5FddWoPVJ54cKH2PJA9FVe2LrAXY2UiNtuVjtmzqv5FCGAmK8RSQAUjuXfqdums/v1RyR9n/c3ord2dK7AQq+Erl2K6r0R6AdsdSA+Khe3XWqyJygRO18nARBvnOACBaL9vLrPZd2fcmkPaiCKQvd3qIDeMLNdi+fZ+tMVP2r9E1sdiNE+ao5yUnCipCw1YrXlDll6Tu1IOgDxxQALiPupj2Tpc2vPCeR3i48MItpHHAZY6K2iGWCZdDmbG4ifigubn3bXNZSIlURJoGlkAOJ8OgEgtrxx3LCO82pnmeknvJ8R+RN1U4YKWJuljTtXS75dkezFXyp/u+JOtjoQTyvKEt+X9CIlYrTXlb7ijeOTlADiiTcvEFPLz27YuqOn87cy7UoNxGLR6N5NBax1YZJdvqvMrDjeE7rWps/rYasD8bRxY3NH+js1XzfZXdSIjc3T3W8cJOleUgDxwxUbQAylz63fN5vMPSkxvEJ8JAKtpALWxjwYWyRPdYXcbmaLA/GW+vHC35l0DyXidALsx1IBiOv7F0CsZL5TO82C8E+SNqYG4sQlrsDC2l8n7rXF8X7wOamftC1hiwPxF5p/WxJXU8aF6ZBM4/aso4EYYoAFxOfk3zLfrW2UdIOkUoogdq9hPkKI3q1Maovjidr1bGygMKR+tHChpJ9TIjZKrKdkChmAOC4TAUT/xP+0UWUd362dKdf3qYG4yokBFnqzwyuKAdb81I/b/s7GBgroGJcraZTEVZWxOdToBCoA8cMAC4i49saGER1ViT/KNYkaiLOynjI+XoE1evcbCLVJoT9PM+feV0CBqb7omaVm9mNKxEZt+3fq9iQDEC98CyEQYcu+W7NtkMvdJ1mtjB6IN0+aUwFrEuS6a4pgX5dVWHIHWxsoPOXJ4GcdPblTZdqOGjE45rx7M/fHKAHE6X0LIJI6v1OzW0L29yL5OA0AKBGGBb+/c7M/Vly44A22NlB4rLG526QfUiI2vuyNI4eQAYgPBlhABHV8t/ZAN5sraVNqACgWbr594S+8fCZbGihc5YvaZkpaSIlYqMpkh36GDECc1lEAIiX9nbrDXbrbpXJqACgm5rZVQT8/qbNjeenv2NJAAb/P5yhnrh9QIi77ZT+SCkB8MMACIqTj/NpJZv5LSWXUAFBs3LR1QT8/6f5NL5vfyZYGClt5SdudkuZTIhYOff3bY/mjMRAT3MQdiIjM+aNPlvxaMwbLKNSz9+U0wBqZ+ZaF/QR1F1sZKIJ9WaPCzHf9AjPNoUbkDSsfuvJzkn5JCiD6OFEGIqDj/NHnmOxnvCcBFCuXTFIhD7C6e4KV97KlgeJQkVz4G0mtlIgDO4oGQDxwsgzkWcf3Rl8o2U8oAaCYZRpHbyBpWAE/xYeGN76wjC0NFAdrVCiziykRg20lP3hJ46gUJYDoY4AF5FHH92oukdu5lABQ7BK5sKBv4O7yu9nKQHEpf718lqQXKBF5Q8rC4AtkAKKPARaQJ5nv1fxIrjMpAQCSe2KTQn5+YaLkD2xloLjY9Hk9LrucEnE4CAV8GyEQAwywgDzInD/6x+b6DiUA4L8rEhtewM/u+arG5sVsZKD4VHR03CT5G5SIOj/gnbO3q6IDEPHlIgmAwZX5Xs0Pzew8mcSDR1E9gDWdOrg2KNTXvgd6kC0MFCe78uXlHgQ3sA6I/KO0pLTkIF6xAAMsAP8dXn2/9gcmnU8JAPjwgsSrC/cM1v7IFgaKeP/WY9dL6qZE1HfV+jwVgKivFwEMis7za75r7t+jBAB8lJuNKNSn5gr/xhYGilf5ha2vSZpDicg72CcoQQYguhhgAYMgc/7ok910ASUAYHXCQh1gLUw1Lnqb7QsUN3O7kgqRt2GmtmZPMgDRxQALGGAd59dOMrNrKQEAq+ey6gJ9av9g6wIov6Btnssfo0TET44D42OEQJTfoyQABk7H9+oOkPktvNcAYM2sQPeT5nqErQvg3f2cTadCxLkzwAIiLEkCYGCkG0fvIw/vklRKDQBYi0CSF97TCsOQK7AASJLKu8p+2Vm+8ipJKWpE1pjljbUjhza2vUAKIJrLRQD9rOP82h0D2d2ShlEDAIqUqbMi+exCQgCQJLtsfqeb3UmJaMuKbyMEoooBFtDPln+nbhsF/ge5hlMDAIqXuz9jjQopAeC/EgpvpEK0mfvnqABEEwMsoB8taRyVypWEv5e0KTUAoMgXWWb/RwUA7zescdETMv2LEpH2CW9s4BYgQBTXViQA+oc3NpSWKXGXXDtSAwAgaT4JAKxi1Xg7DSJtWEY9HyMDED0MsID+WIZI1qnsjXJ9ihoAgPf8kwQAPnoCFv5S4uPFUZYIjTU9EMn9J4D11tFY2yhpqkziwYPHah5D2VdgLQrrNd8+rH4hHyEE8BHDGhe/LLNHWBtE9+EBf5QGGGABhTm8Osbk51MCAPD/2SP2ZeXoAGBV3PwOKkTax71x5BAyANHCAAtYD+kf1uwt+Q169+81ANZ0Op8dwvsExWQuCQCsVknuV5KyhIisIR0q24sMQLQwwAL6qOtH228VhP5rSXxLCdALWa2soAKKhQV6iAoAVqfyvMVvSfoLJSKNjxECEcMAC+gDv2LLoWE2+WvJNqEG0DsJlaSogCLRMyxMPEMGAGti0m+pEOkT5fFUACL3vgSwLtxlnelhN0nanRpA74XmVVRAkWizxuZuMgBYi7slORkiuuaX9vBLx5ZTAoiOJAmAddP5w5qzZJpICWBdF4JhNRWwWoV1h7QX2KAA1qa8ceGrHT+o+T9Ju1Ijkkoynd07Sfo7KYBo4AosYB10/mD0wZIupATQhwOOBVyBhWKxjAQAesNlv6dClNcuXkMFIELvSRIAvbO8sXaky2byvgH6uEh3PkKI4mCuDBUA9OpkzMQAK9KLF9USAYjQPpMEQC+OXdeMKsuZz5E0ghpAH99H7tVUQJG82kMaAOiNYee3PSXpVUpEdG9u4gosIEIYYAG90PFO4ipJu1ECWB+2MQ0AAHjfkdHkcv2FEhHdPmKABUQJAyxgLTp+WDPFTCdRAljvIw4DLAAAPnJ8tD8TIbJG+RVbDiUDEA18CyGwBpnGujFSeH2BfTsWkC8bkQCrZTwXAMUpCHr+HIaclkX1fHl5x9Cxkh4nBRCB/SUJgFXzS8eWWxDOkVRODaBfDjhcgYXVMqmbCgCK0bDv/vslSYsoEdFzAgW7UAGIzPkEgFXpXL7yGolvHgH6bwHIAAtrfH2spAKAIt4Hch+siArlDLCAiGCABaxC5oc1X5Z0LCWAflXJfSSwBitIAKBouc8lQjSZ265UAKKBARbwIct/VLeNSTdQAuh/7Z1DNqcCVn3ypreIAKBYJb3kH1SIKNMYv2FcCSGA/GOABbz//KlxfDIMwyZJ1dQA+l9Cya2ogFWfIFgbEQAUq6GNzS9KepUSkTSk841MPRmA/OPrLoD36QheP99Me1MCGBjmviUVsCqJUHNzicJ4LqErzRYFsM7HSPPHXHYEJSLIg10k/YsQQH5xBRbwnq4f1e1p5t+hBDCgq3OuwMIqDW1se0HS84XxMtfbbFEA68plj1Ehqvv1kPtgARHAAAuQ5I3jhoVheJukBDWAgVwAcgUW1vQC0XMF8jwYYAFYZ6E7A6yoniso2IkKQP4xwAIkdSUzF8s0mhLAAC8AQ3EFFtb0CnmpEJ4FV2AB6IvKoUOekhRSIpLHpzoaAPnHAAtFr+OC0Z92t1MoAQzGmb22JgJWe3rgVhADrDAXdLE1AazzIfLM+Z1m/hwlImmj9IW1G5AByC8GWChq71y0XZVkN0kyagCDsDiXtnfn/YbVLUoK5gqsMrYmgD5xzSdCRIWqIQKQX3wLIYpaaTZ5FVeEAIO5LldF14V1m0qtr1EDH3l9BMGLco/98zAxwALQR4Hmy8U3EUZQwrxW0t8pAeRzFwkUqY4Lag+U7BhKAIMrZ7lRVMCquGUL4yOE8iFsTQB92n+EwTNUiOgxKlQtFYD8YoCFovRmY0OFzG+gBJCHA0/OGGBhlSq6q15QAdzA2MyHsjUB9EWYTPARwsju3NVABCDP5xEkQDEalsz+WNJISgCDz80ZYGHV5waN87ok/acAnskmbE0AfZFa2fycJL4IIprqSQDkFwMsFJ2uH+6whyS+dRDI16m9cwUW1sSbC+BVvhnbEUCf9h6NCiVbSIlI2uati2sqyQDkDzdxR3GdFjU2lHYme26SK0ENIE8C1REBa3iBLJD55+N9Buqbsx0B9H036C1y7UKI6O3dh4VeK+lJUgD5Oo0Aikhnac835cbn14F8ctX4DeNKCIFVnx4UwBVYLgZYAPq+C3FbTIWIbpsw4DwCyCMGWCgaXReP2tLcvkMJIO9KO5a070AGrIoFuQL4CKG2ZksC6PN+0Pw/VIgod64iB/KIARaK53iTS1zhUgUlgCi8IRNjiIBVGVa2ok1SLuZPYyu/ZlQZWxNA39asYoAVVcYnOYB8YoCFotDx49H7u2sCJYCorM5ZAGI15wbffHm5pLhfhRVk2hMj2ZoA+iJMJl+kQmQXMKxfgHwusEiAgj/MNDaUSnYtJYAIHXws5AosrH6/Lf0j7s8hkfDt2ZIA+iJVvvKld3eFiKBt3mxs4BMdQJ7wLYQoeJ2l2TMkvvUMiJixJMDqmNk/JD8xzs/B3bjPG4C+7QO/vnhlx4U1r0vajBrR2zxDh3TvKulvpAAGH1dgoaB1XTxqS5POpwQQsZN72fZLG0dWUwKrEub8sfi/xsVVhgDWx0ISRPUgFUwiApAfDLBQ4CdBicu4cTsQSVZSUjqODFiVyu8uXCRpSbxf4eI+KQD6vgtxtVAhstvmE1QA8oMBFgpW5ic1+0k6khJAZE/wdycCVvnSMLmkx+P98laDu4ytCaAvQjkDrOgeo7aiApAfDLBQkPyGcSXm3LgdiPgJPgMsrGlP/nDMn0BqxUW127AdAfTxGJmhQkSPTtIw/kAB5AcDLBSkzrczp0peTwkgygtA240KWO3Jmyf+EPfnkA39Y2xJACjAc+gfjCwjA5CPNx9QYN65aLsqBfYdmcSDB49IP7buuKRhU/ZaWJVh57X+n0xvxvk1bgEDLAB9lGCdEOlHKssVWAADLGD9lXrybEkbUAKIPguze1ABq3xtmFyuP8X6Och4fQMAAPQTBlgoKJ0X12wu2emUAOLBZXyTD9bA/hDv17d29RvGlbAdAQAA1h8DLBSU0K1R0jBKAHE5w/d9iYDVSiYelOQxfgbDMks6+BghAABAP2CAhYKRvrimxty/SgkgVnZ56+KaSjJgVSrOan5d0vw4P4dE4PuzJQEAANYfAywUjIT7hZKSlABiJTk0tI+TAatj8t/G+fd3t/3YigAAAP1w4kACFIKui+v2DD08XHwfCBDDE3z/hKQ/UAKrfH1Y8BvJG2P8FPb0S8eW25nzO9maANYJ61oA+ACuwEJBCN0v5jAPxPRAZPokFbA6Fee0PSPp2Rg/hbKucMUBbEkAAID1PG8gAeKu86LaQyTnm8yAmHJpz3cu2q6KElgt029i/Rp3fYGNCAAAsH4YYCHeJ74uc+kHlABiLVlipdzoGmtYrPhv4v0M7HP+SyXYkgAAAOuzJgRirOvS2s9JvgslgJhzfYYIWJ2hZy16UtKLMX4KG2VeGL0XWxIAAKDvGGAh3kI/lwhA/Jn8YCpgta8Pk8s0O87PIZGzo9iSAAAAfccAC7HVcUntgW7aSybx4MEj9o8tM5eNqmfPhtVxhbfF+TXugY70xoZStiSAXp+lsTaI7gMAAyxg3c5m/LtEAAqHZQM+RojVqjz72VaZnozxU9iga2iW1zgAAEAfMcBCLGV+Ujte0r6UAArpiGSHEAFr4qHfFvOnMJWtCAAA0MfTBRIgjizg6iug4Lj2TV82ekNCYLUvkTC4Q1J3fF/iOrTjkoZN2ZIAAADrjgEWYid9Ue1ekvanBFBwEkGOq7Cweqnz2paY/J4YP4VS8+wJbEkAAIB1xwAL8XvRGldfAYXKpcOogDW+Riy4Ieav8WneOD7JlgQAAFjHWQAJECeZS+vGyPQZvv2EB4/CfJjpAL90bDl7O6xO+Zltf5S0KM7fuNkx7PUvsCUBrBXrAr6FEAADLMT4OB6GZ3DYAAra0I6w+yAyYLXHAZPLdF28z0n9bLYkAADAuuESdsRG5sJRG5n5ZEoAhS0I/DBJv6EEVme56+Zy8wtcqozpU9i94+IdDqg4+9k/sjUBrIqZD5XTAQA+cJ5AAsTmxVoSnCxpCCWAwuauQ7yxoZQSWJ2Nzl6YcVlTrI9ppvPYkgBWx2R8nB4APrx+IgFicUJ7zagyuU6iBFAUqjvLez5BBqxJaMHPpPhen+Cy8csvGb0vWxLAavYRDLAA4EMYYCEWOlfYREmbUgIoDuZ8GyHWrPLM1gWS7o/zcwhNF7lzX0cAH+UebkAFAPgg7oGFeJzMmp1BBaCoHOau08y4AwhWL5AuCk2fjfFT2Gv55TscLj3LPd8AfGgHZ5tyBIywdFVOepkOwOCv/YBoy1xc8ylJO1ECKCpbLL9k9O5kwJoMPWvRw5IejfNzCN1+4jeMK2FrAvh/7N13nBXV/f/x92fu9qVZo9goy4Jiib0rlsRoRBFy7y5iwQZ2oymm/ZJNj4mxVyxYgb03qNFEY2xYExMxNhCWpcQaKwhs3zuf3x+s+aqxUHb3zp37ej4e9xEfBrkz73Nm5pzPPTPzsUma+5dIIco2CskAyMG5kQgQdRY4z74CCvMKNZYQ8MX813l9jZOqWz5YznUOwMfPbDIKWJE2iwIWkJPpARBhK35VtZFJR5IEUJCD9/E8HwhfpOLbC+6V9K+87utmv2i6eOtNaU0AH8E5Icqn7TpRwAJygAIWIs2KEydKKiUJoCDHh1u2/q56H3LA514nTG6uC/J8N/pZZ/YCWhOA1PX2bak/SURWlgiA3KCAhehevOsUmPwUkgAKV2g2gRTwRcqbGzKSns/ra550TMuFw/ajNQE0tZauJ7ECOcIoYAE5QgEL0b149xl2kExDZV2XcD58+BTgx7/hdSNLOCPi86y6lcN/mOf93UK3a7xuUBktChS2ouKOCq7/kf5w+yBAAQv4xITEg8mkABS8DZr7dn6NGPBFKr+z4M+SnsjvC5+2bu5b8mNaEyhsnR5UkkKksQILyBEKWIik5b8asYHMR5MEAHc/mhSwmoOa7+d/h9d3mi4csTOtCRTwdS+rDUgh0ihgAbkb6wHRkygNayVx2xAAmdnody4Y3pck8EXKv93whKQ/5/luFEnhDdw6CxTwBC3IDieFSOskAiBH50ciQCS5jiUEAKvOB15RXuRHEQRWRxiE58dgcrFDS2XnL2lNoFAve9qaFCJtJREAuUEBC5Gz/ILhwyXtThIAPmTcRojV1Pe8xjkuvzLvJ7Dm5638ffVBtChQiNc8YwVWxKcrRADkBgUsRE4ioWN4uwkfPnw+/rGDV14y+EucIbE6OhIddTK9nef9PjDp5uVXjOBZOEDBzdB8c677kf5QwAIoYAGrmDxJCgA+IRFki2qIAatjvXOXLJPrhzHYlc0SbeFN7jJaFSio0fDmZBBpK4gAyA0KWIiUlReN2M5NLJsG8D9cNoEUsLoqVjbcKOmZGOzK4c2/r/4+LQoUyLXud9tXShpAElEej2gpKQC5QQELkWIejiMFAJ9htxUXVY0kBqzW9aROoSk8S1KY/zujn/E8LKAwrChuY/VV9M/J/yEEIDcoYCFSXDqQFAB85pjR7WRSwOqq+Fbj3112RQx2JWHStJYLt96KVgViPjnLOgWs6M9Y3iQDIEfnSCJAtHqkny3Tch4OyYcPn0/7mNmxXjeojJMlVldlWdEPZVoSg/6/cRhk73nnguF9aVUgxkw8wD3qHw8oYAEUsACpz7kLngstOFJSG2kA+BQbtPQvPooYsNpzwTPmrAzNTpLkMdid7SqKPe1pJWhZIKbnLLNhpBBtHugNUgBygwIWIqfvufNmmfkJisNzSwD0wMjRTiEErNl1Zf7Dkt0Uk935WtPrwy6kVYG4XuM0ghCizUzvkgKQGxSwEEkV5y6YbtK3SQLA/47tNar10q35hRprpKOt5FuSYnHbh7l9c+XFw79LqwKxvMpRwIq4ovZsEykAuUEBC5FVcV7DxSb9niQAfHL+HnaGk4gBa2LA919c6kFwguJxK6HM/Tcrfz9sIi0LxEfXMx6rSSLaOlVKAQvIEQpYiLTycxu+Y7JpJAHgY4P8wE/yawdWkATWRJ9vzrvfpUtisjtmZtc1/X74EbQsEA8t/Uq2l1RMEtEeglQ2Ny0jBiA3KGAh4qNzeXlln4kyv5+3nvDhw+e/H2m95uY+x3CWxJqqLAq/L9NzMTkWihR4pumiqtG0LBCDyoi0C9f4yH/es7olrfRWgAIW8OlFrMmzO5rbg6Rkz5IGgI84kwiwxteUsxvbwkQ4QVJLTHapRG3/e5QAAIAASURBVEGQXnnJiENoXSDfT1C+MyFE3ptEAOQOBSzkhY3On78im/VDJH+JNAB02W7FxSNGEQPWVN+zG+dK9q3Y7JCrzBTeRRELyHdGASv6XiMCIHcoYCFv9Pt2w7thZ3iQpJdJA8Cqi1h4FilgbVSeO/9qSbfEZodcZebh3c2XDE/SukAeHsKrHuC+DUlE3qtEAORy7A/kkb7fWfi2hdlDJC0hDQCSjmy5fPhgYsDaqOgsO13SnBjtUom7T2+6ePiJtC6QX1oGFO8gHuCeD94gAiB3KGAh/yYc31r4akI6SNLrpAEUvETY6d8iBqwN+84LTYkwGCtpeZyOCcmvb754+DdpYSB/eMjtg3lx3ZB9QApA7lDAQl4qO7dhUSJIHCDTf3gbCh8+hf6xE1ZcVrURZ0as1fXkW/MaZHasTB6j48Lc/OLmS6p/QwsD+TIrM95AmAcfj9cPHgAFLKDXJh3nvLzAZYdIep80gELmFUEY8EZCrLXKb86/26QLYndkSOc3Xzz8d76qNAcg0ges70QIecA86ZdVlRIEkKNDkAiQ75ouqd5V0oOS+pEGULDeq+go28q+80ITUWCt5o51CpoHDLtTsiNiONybWrGs6FSrm9NOSwMRPP9MHVTW/EHJcvEMrHxxb0UQjrWzG9uIAuhdrMBC3qv8ZsM/zcOvycQ96UDh2qCluOUkYsDasjqFFR3lR0v2bAynxye0DOj4ywcXjVyflgaip+UDHuCeZw5rDoM7/HfbVxIF0LsoYCEWKs5t/JuydrC4nRAoWK7gW143soQksLbsOy80WehHKIYvCXHpgOKg46nWS7ceRksDkTv77EoGeeew5uLWJ1qu2HorogB6DwUsxEblefOfcfeDJL1DGkAh8i2bB7SfQA5YFxXnNbyuIBwtaWXsjhBpeNazzzRfPPwbtDQQqWNzP1LIS18OO7OzV1w8/ECiAHoHz8BC7Ky4dOttA2UflPQl0gAK7rL2SoVlq3kuBdZV0yXDDpfZnZKK4jhfNtdvy5cN/JHVzeqktYEcHowua76s+k3GrXmtQ9KZlec0TCEKoGexAgux0/ecl1/KBhol6Q3SAApuKrBlsxInkgPWVeU3F/zJpRMlhTHcPXPT+U3rvfEQt78AubXy8qqtRfEq3xVLurbpkuqfEgXQsyhgIZb6ndUwLwiDvSUtJg2gwLj/yC/avJwgsK76nNNwq1xnxXX/TNovzGZfaLq0ehKtDeRoMhYGo0ghNifVHzddUj3V60YVEQbQQ+dMIkBclZ87b0kQBgeKIhZQaAY2JypYhYVuUfnNhqsk1cV4F/tJurbpsur0iquHbkyLA73LTfuTQoyYJjat98atFLGAnjrEgJhrvqxqc/fgfknbkAZQMF6vyDYPs/NeayEKdIeVlwy/1MzPjvluvufm3648a8HNZnJaHehZXqegeb3qN8QthHGcZs+sKOsz3ibP7iALoPuwAguxV3F242ud2eJ9JT1FGkDB2KwpUXEOMaC7VJ4z/5uSLo/5bm5gblNbLqt+oPWKEdW0OtCzWvpX7S6KVzHl45pbV2S8bmQJWQDdhxVYKJzLyLUDK5rb+qQlfZ00gILwQTYIhvY7c957RIHu0nR59a/k+n4B7GqHy65uL+348fqTF31AywPdr/ny4b9z92+TRKz9seL9gd/gja9A92AFFgqGTX6jueL9gWNkupk0gILQP8iGPyQGdKfKsxp+YGYXFsCuFpv87NK2ovlNl1WfwvNcgO7n7keRQuwd2bz+Gzd4HfNuoFvm9ESAwhssyFouH36By79DGkDstQXZYET5ufOWEAW6U/Ol1b920/cKaMA4X24/Lj97fobnYwHrbuVl1TuY9BxJFMoERFdVntNwBkEA6zweAQp28nGemy7kOADifqHz2yvOXnAMSaDbJ6CXDvu2mf22sK4j9qxcP6s4e/7dFLK633uXVfUrs8QoD31kENj6HnqFTK+b6+WObPGj/c+b8z4pxUPTZdU/lfRjkiikAYn9svKs+T8iCGBdxvVAQU8+qo810/WSeMAiEF+hPNit8px5s4kC3X4duXz4MeZ+o6Tiwtpzf8lNv6780oJ6SylLT1g3H1w0cv2iRMdvZTpGUuln/LGs5H8OQv2+/JsLHiO1/NZ02bAXJduWJArOpMqzG64jBmDtUMBCwVtx6fADAvM/SFqfNIDYeqLirIb9WDGCnrDy8hGHmId/kNSnAHd/sUtXdmTbb1jv3CXL6A1rOAa5eNjWQWBnynTcmvQfc93WYuEZG5zduJwU87Ddr6gaGYTBSyRRkDrdbXSfc+b/hSiANUcBC5DUesWI6qyHf5ZURRpAbC94tRVnNdSTBHpC05XVuyrUPZK+VKgRyOw2KTul8szGZ+kRn81d1nTFiK+asudK9tW1H4/7S1ZkX6s4reF1Us2zg+Xy4b+QnJeMFOp4xLQiDLVvn7MbnicNYI3H8wAkafkVIzYIPLzDpP1IA4jlJe+Vio6mEXbeay1kgZ7QfOXQLTxM/FHSjgUexfMmm5r17LS+Zze+Q89YxS/avLy5qOIYmb4paZtu+msfrDiz4ausLs2jfuCy5iuqF0gaShoF7XUr0u4UoIE1HM0TAfCRQUXdyJLmDTquk3QcaQCxvOz9uPKs+T8nB/TYdeR321c2l7XdLPk40lCnuR71QHdaGP6x4uzG1woxhJVXDd8+yOpYd58o04bdP5i3VMVZ8zN0t/zQfFn1bm56miQg6e8VHo6ysxvbiAJY3WsegP/RdPmwH0r2c44RIH6Ht3k4olAn0ugd7rLmy6vrZPp/XEf+LxZJ/3SzO4pkd5adOa8h1u1/xfCdJf+65N/o6Qd1m+mRijMbDqSL5YeVlw272My+SRLoMqXyrIbJxACs5jWPCIBP13zF8JS73ySpnDSAWM2ip/c5q+FokkCPX0cuGzbWzW6U1J80/sdclz9gslmdHcWP9T9vzvt5e05xWdPVw7cLOn2/UNrXTPtJ2qQ3N6G9s319HqKfB32lTkHzBtWvShpIGvjIwIQ3EwKriQIW8DmarqjaSR7cIWkr0gDiI5Qd1Pes+Q+TBHpa62VVQ7MWZMRzsT7/kJSed2mWefhIe7bz8agXY965YHjfyvLwK252mKTDJG2a0wF9GOxdcc68p+hK0dZyZfU+YajHSQKf0Gbm+1ecuYBbS4Evut4RAfD5ll9bvWFRh2a4dBBpALG5+M0rf7d4B6ub004a6Gk+dVBZc3PpxXI/lTRWS1buL8vsGUnPmPyZ8sqO5+2EJa05a0OXrbxm65GJbParkg5zaV9JJZFJLPDDK09f8Ge6TrStvGLYxSZuH8Snei1brB37TW54lyiAzx3DA/jCgWvdqKKWDd/4jUvfIg0gJse16ft9zmj4DUmgtzRfOWy8u10jqR9prLEOSXMkPSO3ayvPmv9Mj7XT1dWbeae2V6DBcl9fZjvLta+kDaIaTuisKo38NcdlzVcOXyL5lqSBz/DHijMajuKtosBno4AFrMmg9orqWpeul1RJGkDeawqUGFl+5sv/Jgr0lparRwzKZsObTdqPNNa+FiD3OTK9LrPl3fQ3lku2geTDJa2fd4FY8aZ9zpjzH7pGhMeQl1Xv5gFvH8QXzs7PqDyj4SqCAD7rEAGwRlZeNXx7C/0OSUNJA8j7q+BdlWc0HEUQ6E1ep6Bpw2HfslVvuy0lEazjYH5exZkNW5NEtDVfOewCd/suSeALtISJxG59T3v5JaIA/ldABMCa6XP6/Bc624t3k+k+0gDynGtM0xXDjyQI9CarU9jnzAW/88B2k/QCiWDdzmN2DSHkQTO5jSUFrIbyoLNzul+0OW9BBz4FBSxgLfQ/b877Fac3fN1l35PUSSJAXk8rrnjvsiqeSYRe1+f0+S9UvFu8q6SfSGojEayFf5cHRTcQQ7Q1XzliL0lVJIHVYrZtc3HFhQQBfMrhQQTAug9K3H26jIdyAnnsqsozGs4gBuTKiiuHbR2YXSfX3qSB1ZQN3A8sP3PBY0QRbU1XDL9R5ieQBNaAh7KD+p4x/xGiAP4PBSygG3xw/cj1i9o6bpTErUhAfgpNwb4VZ8x7iiiQs9lKnYLmjapPlfRr8aZCfL4Oczum4sz5aaKItvcuq+pXlgjeEC8AwprP1BdWJFZub5PfaCYMYBVuIQS6Qf+T57xfcXrDUeZ2rlztJALk3/XQPbzO0yNLiAI5m6vUKaw8o+EqFSVGmHSbxKvU8anecYWHU7zKD2UJGy+KV1gbrqFNHX1+ThDARwbsRAB008TD5BVnzr9EbntLWkQiQL4dxNqm+Z2O7xMEcq1y8stvVpzRcGwg7SfpORLB/81n9bgF2rHPGY1/JY28ubicTAZYh/nFOc1XDNudJIAPh+sAut17l1X1KwuCy2Q6njSAvJodtisR7lF5WuO/CAOR6JJpJZrfqZ4s6WeSNiCRghWa9Nvydwb+P6ubxctj8sTKK4d92WRcT7Cu5lRkw53t7EZe9oGCRwEL6EHNVw4b62bXStqQNIC8uTK+WNER7spAEVHy/rVD+pd1Fn3PTedI4vXqheXV0O14Huacf5quqr5OEiuw0B1+Vnl6w0+IAQzTAfSolVeO3MTUcYNMh5EGkDcXxwsqTm/4Hkkgapovq9rcE/ZTmR0vKUEiMT8Xud/e1t5x5nrnLllGGvll+bXVGyayekUUnNE9WhPSyLLTG3hMCQp9jA6gp7nLmq8eNlmyC8WDPIF8kDUP9uOthIiqFVdUjQwSVie3seKZpnG0RNLplac33EcU+anpquofSPolSaAb3VV5esNRxIBCRgEL6EWt12w9LBtmb5XEwxiBiHP5gspE05d5fTWibOXlI7azRPj/JI0Thaw4aDfZpeVNpT+177zQRBx5ev24dufi5uyKxZI2Iw1079hEX+lzesODJIFCxUAH6EVlp768oOLtgfu42/mSWkgEiC6TDWvu7HMBSSDK+pw178XK0xtSoSV2cKleUpZU8tZdCc+OrDh9/ncpXuW3ls7l3xDFK/TI2ESXeN2oIpJAAR8DAHKh9Zqth3V69npz7UcaQGS5h/pKnzMbHiIK5MW15arqIVnpm5JOFLes54t/hG7f4yHt8dF0VfXfxWp79NQE3vycitMWXEYSKMj+TwRALmfGsuZrhp8q+W8k9SMRIJKXylfago7t15+86AOyQL744PqR6xe1d5wq05mSNiWRSI7C55jr/5Wf2nCXmZxA4mHFlcMPCAJ/mCTQg5ZmA1X3m9zwLlGg0HALIZDLsavJK0+bf7WF2W0l3UsiQBT5lqVh0SXkgHzS/+Q571ee3vCriqDvVuaWMtMjEkWSCMhKus9kNRX/adi+4rSGOylexUsi8B+SAnrYeglXHTGgIOfPRABEx8qrhh9j5hdJ2og0gIhxO7Ly9Pl3EwTy1fJrq0cEoZ1m5sfJNYBEevUE8pLJbgzD4ul9zpjzH/KIp+Zrh+3uof2dJNAL2oNsorr8zJf/TRQoJBSwgIhZdtV26xWr/VcynyRWSQJR8lY20LYs2Ue+86mDylpaS4/wVYWsQyTxQOCe0WaymeZ+TfnpDY8TR/w1XTX8bpmPJgn0kusrT2s4hRhQSChgAVEdBF1ZvasF4VWS7UIaQGT8qfzUBUdwyw/iYuV1g78UdCaOloIJku9MIt3AtdjMp3TKb+x72sK3CaRAjqWrhm8fWPgc8yv0oo4gDLcpO2NhI1GgUHCCBaI8Bk4r0fx+1WST/ZLbPYDIHJnnVZzWeDE5IG5ar6oeEpp/Q/IkP56ssU5J97rbNRVvN9xvdQqJpLA0X1OdlnuSJNDL0/lbK05rOI4cUDA9ngiA6Ftx9dCNA7PfmexYjlsg59pdwd6Vp85/higQVy3XDR/sndkxMvu6pH0llZDKp3pe7jeHRdlpfU5Z/BZxFKamq6t2NLPZjNGQA9lEVtuVnrHgZaJAIeAkC+SR5muH7S7XxZL2JA0gpxaWt/tOdnbjcqJA3PkNw/u2tPvBpvAwNztE0hYFHEco6Rlz3d2p8I99T1v4Ej0ELdcM+7NLh5EEcjSlT1ec2lBDDiiI3k4EQJ5NJFzWck11jcwvkLQliQA5OxrrK05trCUHFJrWq6qHeOD7h/JRZsH+ct8q5rvcJOmvJv9zNpH9Eyut8FEtV1Xv64E/RhLIoTC0xJf7TJ73IlEg7ihgAfk6db5o8/LW8vLz3PQ9SX1IBMjBceg2qfK0hutIAoWs+erqzdzCXSTbJZDt4vJdJG2Yx7u0UtKL5noua+HdlaXZWXbCklZaGp/a/68Z9phW3WYL5HA8opsrT1swkSQQdxSwgDzXdO3Wm0qdvzDX8ZISJAL0qpash7txGxHwv9emIAy3DoPscAtthJtGyLSFubaUVBmxzV0i2RPmPs9M/yhdv+RRS81ppxXxhf18SvWhFvq9JIEIaHcrGlQ5+eU3iQJxRgELiIkVU6pGJkL9QrIxpAH06oV0Tpk17WaT32gmDeCLvX/tkP7FFmxeFAabuIXrexgMMPP+bhpgbkWr/pSXmlQhk7vbMne1moUt7rZMgfk6b0Qol4X/saw/V3HGwldpFawpTyvRsnTYs3JtTxqIRJ80/bJy8oIfkQRiPu4GECfNV1fvJgt/LbMDSQPorYupX18+ufEUkgCAwtB0zbBTzXQ1SSBC3i8vL9/SjnuhiSgQVwERAPFScVrDPypObTwoMPuKZLNJBOh5Lju5ZUrVBJIAgPhbOnXQADP9jCQQMes3tzQfRwyIMwpYQEyVTWp4sHxSw65yqzVpDokAPSt0u6r1miHDSAIA4q20o+j/SdqIJBA1Jn3T65jjI9Z9HEDcucuar6063MzqJO1EIkCPmddW0rHneicsWUYUABA/rdcPrQqzwUuSSkkDkRz3mx9ZOanxbpJAHFGdBQqAmbzy1MZ7yict2EWucZKeIxWgR4woayue4XWjiogCAGJYHMgGl4jiFaI87vfgm6SA2PZvIgAKcPC1akXWEWb2Q0m7kgjQ7VfXyysmLTibIAAgPpqnVB8l9ztIAlEf6gfyYWWTGxcSBeI3xAZQ0Fqurd7Hzc+X9HXOCUA3jh7lZ1ROaryKJAAgBuf0G4b3bcmGcyVtThqIfH81/bzylAU/JgnEDbcQAgWufHLDExWTFowOPbGDZLdK6iAVYN2Z7NLWKdUHkwQA5L+WzvBnoniFfBmDuI7nYe6I5/gaAD6i+cahW6jTvmmyk1zqTyLAOlmWDcJ9+5688CWiAID81HR91Y4W2j8lJUgD+SIwfbXslAUPkARi1a+JAMBHVZy48NWKSY3fKuso2dzNJpuLiTew9gYkwuAvzTcO3YIoACD/eJ0CC+0qUbxCngmliaSAuGEFFoAv1HJt9T4e6Gy5j2UAB6zFxdb1UmtJx77rnbBkGWkAQP5ovrb6WzK/kCSQh1rbO9sGDjj9laVEgdiMqYkAwGpfBa8fWhVmg0kyTZS0EYkAq8+lv1Z4v8Nt8myeMwcA+TDuuWH48DAb/ktSOWkgT8cep1VOWnANSSAuKGABWPOLYXpkScvytiPdbZJJB3EuAVbbtPKTFxxjJicKAIjwWKdOQcvmwx6Vax/SQB77R8UpC3YnBsQFk04A66T1+qFVYRicItOxkjYlEeALJkXuv66c1PgDkgCA6Gq+bth3JP2WJJDvgmy2uuzURQtIAnFAAQtA90zK6xS0Daw+MJSOk/lYSZWkAnzm1fc7FScv4JkqABBBbddWj8gG/qy4dRDx8N2KUxb8jhgQjyE0AHSz968d0r/UilIW+HFy7c25BvgfbmYnlJ/ccDNRAECETs7X7lzcEix/UtKupIGYTPmfqjilYW9yQCx6MxEA6EnN11VtLrdxMk9KthfnHeC/snLVVExaMJMoACAi45brq38j9/NJAjESeli0eeXkl98kCuQ7JpIAek3r9UOrPAxqXfqGTDuQCKAWM32t/OQFjxEFAOT4hHx99UHu/ldJAWkgTtx0auXJC64lCeQ7ClgAcjRIHLxV6MWHWOCj5fqqpBJSQUEOKqXlJvtKxckN/yANAMiN5ddWb1iU8OclDSQNxG/Sb38pP7nhUJJA/vdlAMj1BP6W7Sub25sPDMwOd2mMXBuTCgrMMvfw4MpTFs4mCgDo5XGIy1puqL5T8iNJAzHV0Zbo2Hi9E5YsIwrkMwpYAKI1iKwbVdS62Zv7ucLRMh0haQipoEC8kwh8VOmJjXOJAgB6T/MNw86S6zKSQLwH2Tq64pQF0wkC+YwCFoBIa7ph+EDz7N5mdrC7viZpS1JBjK/Kbyc6bf/SyQ3zCAMAemWcsYt5+ISkUtJArLmlK05pqCEI5PdQGQDySNt1w7buND/AzA6Qa5SkDUkFMfOqebB/+SnzFxMFAPScZVdtuV5JSelsSYNJAwVgRXm/kg0tNaedKJCvKGAByFtep6Bpi+rtLNQ+Uribme0uqZpzG2Jwef63uR1AEQsAemgM4bKWG6rukGwMaaCAJv/78+Zj5HkfBoAYDUhvGN63Vb6Du++swPaW+/4SD4VHXno18PDAspMXNhIFAHSv5huqz5P89ySBghonu/2s8uSGn5AE8hUFLADxH6TeXL1ZmA23DULbzgNta7Jt5b6NpHLSQcRRxAKA7h4X3Dh0L3kwS1IxaaDA/K3ipAV7EQPyFQUsAAXJ00q0NVcNUlZDs6ah5qqSB0NlvoWkTbVq1VaCpBABrwfZxIFlk+Y1EAUArJumG4YPNIXPdF3rgULT2dqZ3XD9yYs+IArkIwpYAPApPK1EywdVmyoInpB8KxJBjr2RCOyg0hN4OyEArPW1/bKq0pY+NkuuPUgDBXscuB9ReXLjPSSBfBQQAQD8L0spW3FK42sy/z5pIAIGZkN/svn66t2IAgDWTmuFrqB4hYIf48r2IQXkKwpYAPA5yk9YMEOyp0gCEbC+zO9vvn743kQBAGum+frqM93sZJJAwTMKWMjj7ksEAPAFg96bhu+tMHyccyYioikwHVV2woIHiAIAvljLjVX7u+wB8dB2QJLay/u0DLDUay1EgXzDCiwA+AIVE+c/KWkmSSAiKkPXn5pvGDaOKADg87XeVDXUZRlRvAI+VNK6soxHEiAvUcACgNU5WQb+PUltJIGoDD5lmtFyY/XxRAEAn275tdUbhqHdL2kj0gA+NrLdiwyQlz2XCADgi5VNbFwo+RUkgQgpcvnUphuq64gCAD7Opw4qKyoK75I0lDSATxwf8l1JAfmIAhYArKb20vZfSnqXJBAhZuY/ab5h2GVexzUdACTJXdYSFk+VGS+9AD7dLkSAvBz4EgEArL6mm6onmfu1JIEIXtIz5SvCY+3sRm51BVDQmqdW/1ry75EE8NnCzs5N+pyy+C2SQD7h11oAWAMVSxqul/kzJIHo8WRLX/vL+9cO6U8WAApV89Sqb1K8Ar6YFRexCgt5hwIWAKzJxb5OoUI7U1JIGoigUeUliSdbpo4YRBQACk3L1KpjJbuIJIDVKAS4U8BC/vVbIgCANVNx4oKnXbqJJBBFLo10y/6z5YbqfUgDQKFoumnY1112g3hECrCa4wXbjhSQbyhgAcBayAaJ70p6jyQQ0VHphh74gy1Thx1NGADirnlq1R7mqpdUTBrAag8WKGAh71DAAoC10O/4ee/JrY4kEGGlLt3WPLXqfKIAEFdNN1ftKAX3SqokDWBN2FBPb15ODsirXksEALB2PK1ES/OwZyR9mTQQ6b4qTa1Y7qfxhkIAcbLy5uHbBx4+LGkD0gDWYnwQ+s6VJzY+SxLIF6zAAoC1ZCllZX66eKA7ot5XpRNa+tkjTbduvSlpAIiDFTdVjQw8fFAUr4C1LwYkAm4jRH71WSIAgLVXcXzj30y6liSQB/a0bOc/m6ZW70oUAPJZ29TqEQkFD0raiDSAtfZqEOppYkA+oYAFAOuopS37fUlvkATywGZm/ljLzVXHEAWAfNQ6dciwrPlDkm9CGsDacWmuwnDv0hMa5pEG8gkFLABYR+tPXvSBpLNJAnmizN1ubb6p6kJ/ZFQRcQDIF203Vm0TWmKWpIGkAawdM93b1pbdq+LEha+SBvKu/xIBAHSP5qnVd8n8SJJAHnnME0W1lce+/CZRAIiylVOHfTkw/VXcNgisy+R/StlWm51hB8zqJA3kaR8GAHSH5huHbqFEMEdSX9JAHnnb3I4un9jwEFEAiKKmm4bubBbcLx7YDqytNnOdVj5xwVSiQD7jFkIA6CYVJy58VeY/JgnkmY3d/C/NN1ed784PWwCipeWW6n1kwcOieAWsrXfN/BCKV4gDBqoA0I08rURLy7CnJO1GGsjDUcHM8sBPtGMalxMGgFxbOXXo14Ig+IOkStIA1soTSvj4imMaXyMKxAErsACgO+f/KWUToR0vqZU0kHdc41qywQvNtw7dizAA5FLLzVXHBEFwtyheAWt3RTddVt7a70CKV4jVXIsIAKAHBt43VX/fzX9FEshT7TL7QfmxDReZyYkDQG9qvmXYd+X6DXMVYK2867LjKo9vuI8oEDdcFACgB/gjo4paXn39Kbl2JQ3kbT+WHlRQdBxvKQTQK+ccl7XcMuwCSd8hDWCtjqEHzOyEiuMbXicNxBEFLADoIStuGbptQsEzkkpJA3nsTQvs2PJjeEshgB6ceF9WVdoywG6SVEsawBprdvfvVBzXeDUrpxFnFLAAoAe13DLshy79giSQ73NLk64ra2k61ya/0UwcALrT8ptHbFBk2ZmS9icNYI39M5G140pPaJhHFIg7HuIOAD2obIvNLpDZbJJAnjOXJrWWVz69cuqwLxMHgO7SdlvVNkWW/YcoXgFrqtXMflje0m9vilcomAEpEQBAz1p524jtgjD7T3ErIeKhXeY/Li9tvNBSyhIHgLWefd9U9VUPLO1Sf9IA1sijgScmlR0/r4EoUEgoYAFAL2i+edh3ZPotSSBGHg8SNrFsQsMiogCwpppurTrN3C6TVEQawGpP35e66bsVxzTcwLOuUJBHABEAQM/zOgUtQ4Y9LG6RQMzmoJJ+UL5owRVWp5A4AHzh9fCyqtLWAbrcZaeQBrD6h46k+jDbcW6fE5b8hzhQqChgAUAvab6tanN58ILk65EGYjaa+FsisBNLj+YZHAA+5zp4c/VmCvwPkvYgDWC1/ctk55Qf2/A4UYAhJwCg17TcWn2cy28mCcRQq+R1PBsLwGdc//Z1KS35JqQBrJb3JP28vHTBFVxXgVUoYAFAL2u+dVhG0jdIArHk+kdoNqnPsQ3PEwaAruveOZIuFM+7AlZHu6TLWkuzv1g/tegD4gD+DwUsAOhlS6cOGlCaKH5Bpi1IAzHVKdNV5W3Bj+yk+SuIAyhMfltVv5ZQU2RWQxrAFwplNjOwzh+WTVi0gDiA/0UBCwByYOUtVYcEZvdxHka8Z6961c3Orjy24S7CAApL8+3Vuyn0GZIGkwbwuUJJ9YGCn5YdO38+cQCfjYkTAORqcH9r1e8lO48kEHuuP1k2cVb5CfOWEAYQ88PdZS23DTtb0m8llZAI8DlXR9ef3f3Hlcc3/os4gC9GAQsAcjVqSY8saeloe1Juu5AGCkCTmX5TVtzye0u91kIcQPwsn1a9YVHoUyUdThrAZ8pKutMT/qvK8RSugDVBAQsAcqh1RtXQbKc9a1I/0kCBeM3cflh+bMMtRAHE6Hp2W9VXQ9lUSQNJA/hUK801zRRcxK2CwNqhgAUAOdZ8a1VKZvUkgQIzKwyCc/ocPf8FogDyl6c3L29pL/+NpLOYWwCfOuX+j7uu7Swtvqx/as775AGsw9FEBACQe023DbvJpONJAgWmU7Ip2TD7077HLXybOID80nxb1R6S3SJpGGkAn5xp+zMmXVa2sv8Mmzy7g0CAbjisiAAAcs/TI/u0dLTNlls1aaAArTDX78q8/CI77oUm4gAifs26t6q0eal+bG7flVREIsB/vS2320MLpvY5Zt6LxAF0LwpYABARTdOrdrRO+5tMpaSBAvWmm9VVDBx4ox0wq5M4gOhpvnXoXm7B9SZtTRqAJKlD0n3uNrWiue+fWW0F9BwKWAAQIa23V53m0lUkgYLmejkM/AcV4xf+0UxOIEAEDstbtq9sSTT9ymRnSgpIBEyk9VzoflsYhLf1OXrxWyQC9MpxBwCIkpbbq26XdDRJgEGKZiuwn5SNX/Bn0gByp3XasK+4+7WSBpMGCphL9ozLZwahzyw7dmEjkQC9PjYEAERqdJQe2ae1ve0fMm7PALr83cx+XHb0ggeIAug9TdOHDwyynRfKbDxpoFAPAzc9FMjuDS28t2L8wleJBMgdClgAEEFt06pGhq6nJVWSBvDhqMUfl+sn5RMWPkIYQM/xR0YVtbzx2lkm1UnqRyIoIJ1yzTbTLLkeLu3ofMxOWNJKLEBEhoJEAADR1DKt6hi5biUJ4JOzaz1lsl+XTljwZ56RBXTztefW6n0VhFdK2o40UACWS/ZPuf5uCp8sbSt6wk6av4JYgGiigAUAUZ5I3Db0GplNJgngf7npeYX+6/KShX+wlLIkAqy95ulDt7DQfq1Vz2BkjoAYXjT0H5leNOkll70QuP+jpLFxntUpJBwgP3BxAoAoj7WmDiprKyl60k07kQbwmRrk+m3ZerrNDmtsIw5gDa4z6ZF9Wjtaz5fZtySVkwjyWKekt2V6RaEWSb5IChZKWtTRmZjT7/h57xERkN8oYAFAxLXcPngrWeIZSRuSBvC53pLblZ3Ffk3fVOM7xAF8Nq9T0Dqs6gSZ/1yyTUkEuemImuZmz5s8MNMAuYrcrO///rnQzWyZy1a6vMnkKz20ZYGCpZbI/qe9XW/3OXbhO9xWDsQbBSwAyAOtt1cf7Bb+RVKCNIAv1CKzWwPTJaW1C14mDuCT15Qhh4UW/MqkHUgDOfRw2aabH2IHzOokCgCrgwIWAOSJ5mnDvmPy35IEsNpcsvtM4eWlDQv/ynNOUOhaplXtL9Mv5dqbNJBjK1UUjixPLXqFKACsLgpYAJAvM3GXtU6vmiEpRRrAGlvo5td0JMpu7J+a8z5xoJA03169myn8uUxfJQ1EYkwjfavi6MaLSALAmqCABQD5NOBLj+zTmm37m6RtSQNYKy1yzQgtvKpy/KJniANx1jR9yC6m4EcmHcG4HxGagD5busnmu3PrIIC1OH8AAPJJa3polUL7p7sGkAawbpMoSTe2hu3TBkx4ZSmJIC5aplfvKwt/KNchpIFInXdNy5QNdyubsGgBaQBYi7EbACDftM4Yeqi73SMe6g50yyEl+Z0WJG4sfbnhYZ6VhbztyLdXHeKmH8i0H2kggtxcR5Yd3XgPUQBYGxSwACBPNU8f+m2T/Y4kgG6dXy2R7GYLw9tZIYC86LF/HN63raVzvNxOdWlHEkGEXV0+vvF0YgCwtihgAUAea5ledb2kk0gC6InKgOa66ZYw0Xlzn9SS/xAIoqQtXbWNZ3WcpEkurUciiLjGskTpjpaas5IoAKwtClgAkM/z66mDylrLih6RtAdpAD2mU9KDct1eFupuO6ZxOZEgJ+f8W7avbC1urpE0WdJuJII80R6a9qysbXyWKACsCwpYAJDnVqYHbZIIi/4haQvSAHpcm0sPBPJ7OgK7s2+q8R0iQY93umnVIzwRTnTXKZLWJxHkE3d9r2J84wUkAWBdUcACgBhomj5kl8CCxySVkwbQa9olPSTTHzqKi/7Yb+y894gE3TbpnzqorLU8kZJssqS9SAT52ZH1aNn8xgN5OQaA7kABCwBionXGsMNdfqekItIAel1o0r/c9acw4fdUphbOJhKsjab00J3NdZy5HS1pQxJBHvtA2ewO5RMW/5soAHQHClgAECOt9cNOdferSQLIuYUu/1NgiT+VWvFjlprTTiT4LC23D95KQdFxMj9W0jASQRy4fHxF7cIZJAGgu1DAAoC4TYRmDPuF5D8kCSAymmQ+yzx4wKS/ltYueJlIsCJdtVGx2zgPvVamfSUFpIIYubW8tvE4YgDQnShgAUDMuMta64feKNlE0gAi6VVJf3X3B0IPZ/U5evFbRFIYlt2+5XqlidIxktdKOlDc8o14aigLSne21JyVRAGgO1HAAoAY8mt3Lm4d8MHdkr5GGkDkvSzXLA/80VDZR/uklvyHSOJjZXrQJglPjJZ0pGRfkVRCKoixtjDUnpXjG/9FFAC6GwUsAIgpT4/s0+rtD0u+K2kAeeVluT0uC58y97+V1S5qIJI8m8HPGLptaDZapiPl2lXcHohCmVy6n11Wu/BykgDQI+cYIgCA+Fo+rXrD4kT2CcmGkwaQt9516W8m/U2mp8pUOptbc6Llg/TI9YvVdqC5HyzZVyUNJhUU4MTyrtJU41gzOWkA6KHzDAAgzlpmDt5KnYknJW1GGkAshJLmS5rtrtnmweyyRPG/KGr1Hr9l+8rWsqbd5XawZAdLvpOkBMmggL3SbqU79k/NeZ8oAPQUClgAUADaplWNDBN6TNL6pAHEUlZSg6QXZf5CENpLXhy8WDq2YTGrIdZd64yqoW7a06U9AmlPl7YXD2AHPtTp8lEVNQufJAoAPYkCFgAUiObpQ/eywB6QVEEaQMFYKdMchXrJzRpcYUPCil4uXdpnkU2e3UE8H+f3VpU2f6BtAvPtTNrWA9tBri9L2ph0gM/0w/Kaxl8RA4CeRgELAApIa3rY111+p6Ri0gAKWqekxS7Nl3xhoGCx5IstyC4paU0ssWMal8d5571OQduIqsFh4NubBSMl306u7SQNEyurgDXx17K5jYdanUKiANDTKGABQIFpSVcdK+lmrgEAPsf7Ji0OpddletVk/5HrNXN/0xJ6raWt/Y0BE15ZGuUd8LQSrRqymTwxSEE4SLLBkg2W+0hJ24jVqMC6eqWjM9i539EN7xIFgN7A5AUAClBzuuo8k35PEgDWYRC51KUFci2Q9IoH/p4peN/lK4Mw+FhxK/RwpQfesfbflUgErn5df1t5GKhMkoLQNnALNzCzDTzUBm5a36QNJH1J0hZitSnQU9pcwX4VqYZ/EAWAXhx7AAAKUWum6jfuOp8kAADAGk0i3U4rq1lwDUkA6NVzDxEAQGFyl7Vmqq6TdBJpAACA1TStPNU4gRgA9LaACACgMJnJy9Q42aSZpAEAAFbDi2XlzacQA4CczF+IAAAKW0t6yD6y4HGSAAAAn+MDc9+lLLWwkSgA5AIrsACgwFkQHEUKAADgc7jLTqR4BSCXKGABQIGPRl0+liQAAMDn+HVFcsEdxAAglyhgAUABa8lU7yq3QSQBAAA+w1/KvPHHxAAg1yhgAUAhXwSC7DdIAQAAfIZ5ZR7WWkpZogCQ87kLEQBA4XIZtw8CAIBP8765j7bUog+IAkAUFBEBABSmpj8M2UXSUN5HCwAAPiFr7sfw0HYAUcIKLAAo1AuAB6y+AgAA/8Nk55UlF95HEgCihBVYAFC4o9PDCQEAAHyc31T2jcbLyAFA1LACCwAKUPPMqs0lbUsSAADgI54qq7BTiQFAFFHAAoACZO6HSjz9CgAA/NeizsCPssMa24gCQBRRwAKAAmSyw0gBAAB0ec/CxGF9xy58mygARHcOAwAoKJ4eWdKaaHtXUl/SAACg4LXKwq+Uj130BFEAiDJWYAFAoY1SrWVfUbwCAACSy3QyxSsA+YACFgAUGAuCQ0kBAAC4+XfLxzbeThIA8gEFLAAouNGqDiIEAAAKnU2pGLvwQnIAkC8oYAFAAfH0kP5u2o4kAAAo6BHBn8vW3+wMcgCQTyhgAUABaQuC/SQlSAIAgIL1dFlJS8oOmNVJFADySRERAEABCTSKEAAAKFhzOlT09fLRbzQTBYB8QwELAArL/kQAAEABMr3i5of2GzPvPcIAkJ+nMQBAQfD0kP6tRcF74hZCAAAKzdumcN+ysYsaiAJAvuIZWABQINoSiX1E8QoAgIJi0rKs2SEUrwDkOwpYAFAgXL43KQAAUFCaQ/fD+xy14DmiAJDvKGABQMGc8X1XQgAAoGC0W6ixFeMWPkkUAOKAh7gDQAFwl7XdZbs4Tz4EAKAQZN00oXxs4/1EASAuWIEFAAWg7c4hw1waQBIAAMReVtLEijGNfyAKAHFCAQsACoBbsBspAAAQe1m5ji8/qvE2ogAQNxSwAKAAuPH8KwAAYi4rs+PKxzbeThQA4ohnYAFAATA3ClgAAMRXh7vVVhy14A6iABBXFLAAIOa8TkGraXuSAAAgltpdXltxVOOdRAEgzriFEABirm3HoUMkVZIEAACx0x6611SMWUjxCkDssQILAGIuG2rbwMgBAICYaQ8CpcqPWPhHogBQCChgAUDMBaaRpAAAQKw0mTSu9IjG+4kCQKGggAUAsRdsKzkxAAAQAyYtDeWHl49Z+BRpACgkFLAAIPZ8WzIAACAW3jCFX6sYs+hFogBQaChgAUCM+bU7F7faB9UkAQBA3punIDykdPSiV4gCQCHiLYQAEGNtm6wcIqmEJAAAyGtPd2SL9imneAWggFHAAoA4846hhAAAQF57uEyJr/QbO+89ogBQyChgAUCsz/JGAQsAgLzl08vaSg+1I+evIAsABT+1IQIAiK/QRQELAID84+a6oOxfC4+x1Jx24gAAHuIOADHHCiwAAPLMSpcdXz5mwR1EAQD/hwIWAMSYGSuwAADInwu3FgbmY0oPb3yJMADg47iFEABiyl0maRBJAACQFx5oLy7drfTwhRSvAOBTsAILAGKq6e7BGxeZl5MEAACRN6X0zQFnlk+e3UEUAPDpKGABQEyVKDEwlBMEAADR1ebmp5WPXjSVKADg81HAAoCYChUOlIwgAACIItdroQffqBiz4GnCAIAvxjOwACCu4+LABpICAACRNKtT4S4UrwBg9bECCwBiKpAPdGMFFgAAEeKSLi/ts8W3yg6Y1UkcALD6KGABQFxHyG4DuYMQAIDIWGHuJ5QesWimtJA0AGANUcACgLgybUIIAABEwhwFPrb064saiAIA1g7PwAKAuDJtQAgAAOSWS/WlLWV7lFG8AoB1wgosAIjtiNk2WPWoDQAAkAOdZv6jssMXXUAUALDuKGABQGz5emQAAEBOvBK61VSMXvh3ogCA7kEBCwDiyjSAEAAA6O3rr99TmmifaF977X3CAIDuwzOwACCG/P7tKyWVkgQAAL2m091+WvrPRWMoXgFA92MFFgDEUEu2eT1+oQAAoNe8FgaqrTis8UmiAICewfwGAGIoIfUjBQAAesVf2j2xY8VhCyleAUAPooAFADFkHlaQAgAAPSrrbj8tfWbh1/uNbniXOACgZ3ELIQDEcUStRIUpJAgAAHrGO7JwQvnhix8gCgDoHRSwACCGzL1cRg4AAPSAR7OJzvGVX/v3m0QBAL2HWwgBIIbMnVsIAQDoXi7pstKKLQ6meAUAvY8VWAAQR4GXiyVYAAB0l3dlOq7ssIX3SQtJAwBygAIWAMRQ6EG5mRMEAADdwWyPssMaqVwBQA5xCyEAxHGcLU+QAgAA3aO0I/E2KQBAblHAAoA4Mu4fBAAAABAf3EIIAHFkHvAMLAAAAABxwQosAIgjC6heAQAAAIgNClgAEEfunN8BAOguZaUhIQBAbjHBAYB4YgUWAADd5W8vtBACAOQWBSwAiCM3fikGAKB7tFiduK4CQI5RwAKAGHLzdlIAAGDdmdRMCgCQe7yFEADiOdqmgAUAQDdwClgAEAmswAKAWJ7cWYEFAEA3oYAFAJGY4wAA4qiNCAAA6BZNRAAAuUcBCwBiyANuIQQAoJu8TQQAkHsUsAAghjxr3O4AAEA3MOktUgCA3OMh7gAQQwnzFaEZQQAAsI5c9h9SAIDcYwUWAMRQKF9OCgAAdAPnFkIAiAIKWAAQQ9lEyQpSAABg3Zn0KikAQO5RwAKAGKooLmIFFgAA3cACX0QKAJB7FLAAII5GzWmSlCUIAADWTWuieAkpAEDuUcACgBgyk5u0jCQAAFgnK/odPO89YgCA3OMthAAQU272juQbkAQAAGvLuH0QACKCFVgAEFfu7xICAADrIlxABgAQDRSwACCuTO8QAgAA63Ip1UukAADRQAELAOKLFVgAAKwLp4AFAFFBAQsA4jrmdlZgAQCwbtdSp4AFABFBAQsAYsoCe4MUAABYa62lKxY3EgMARANvIQSAmDLTa04MAACsJZ9nKWXJAQCigRVYABBT5uHrpAAAwFpfSZ8hAwCIDgpYABBT7cXha6QAAMDacdnTpAAA0UEBCwBiqvLRJW9LaicJAADWYqJkIQUsAIjSeZkIACCerE6hJFZhAQCw5laWLF00lxgAIDooYAFAvC0gAgAA1tgzPMAdAKKFtxACQJyZFkg6hCAAAFiT6yfPvwKAqGEFFgDEegDOCiwAANb88ul/JwUAiBYKWAAQ7xE4BSwAANZMtqS141FiAIBooYAFAHHWQQELAIA14dKzdvgrS0kCAKKFAhYAxFjp8oWLJbWTBAAAq8seIgMAiB4KWAAQ5yH4qjcoLSYJREijmc6X2wOiuAogitdOyz5MCgAQPbyFEABiPxJXo6ThBIEI9MU7SoPsSXbAkmWSfuv3DKxoq6g4SO6HSxotaVNCApBj7aXZvk8RAwBEcSgJAIi11oeGXCS3c0kCueyGkn+v7OBFl37WH/A6BR37Dd0xm7XRZn64pJ0YpwDIgVllBy88gBgAIHpYgQUAcec2nxCQQy+be03pVxa9+Hl/yOoUSgtnS5otqa7l/uGDLeg8XGajJd9fUglRAuhpJnuAFAAgqudoAECsNT9QtUdg/jeSQK8PMly3loSVp9khLzSty9/DrYYAeu28Fdi2pQc2ziEJAIjgOZoIACDe/J6BFW3l5cslJUgDvdLnZO8H8jNKD144o9v/7rQSLRsM3d1ko01+uFzbkjiAbrKw7OCFVcQAANFEAQsACkDrg0NfkjSSJNAL7g8tcVLFQQ2v98aXtTwyaJBlE1+VbLTkX5FUShMAWEu/Lzt44beJAQCiiWdgAUABMPN/uYwCFnrScpd9q/ygxut780vLD1iyRNIUSVP8ieF921uzhyjww911mKSNaBYAq8sV3E0KABDhOQ0RAED8tT5cda7cLyIJ9NC0768ehJO7iknR2CKXtc8aOtKztr+b72fSfpI2oa0AfIZ3S99buImllCUKAIgmVmABQAHwrP5lATmg2y2V6XulByy6zkwepQ1btT0LX5L0kqQrJan1weohHmT3sVB7K/CvyG0wTQhAkkx2D8UrAIj6uRoAEHv+yKABbWHifc776LY+ZXZ7Z5HO7btf4zv5ug8t9w8frOLOfS303WW2p6TtxI97QGFOilxHlR688C6SAIAIn6uJAAAKQ+tDQxslDSUJrKMlcp1WdvDCv8Rtx/yegRWtFZW7mIW7y7WnpN0lDaTJgdj7oDTIbmIHLGklCgCILn5lBICC4f+SjAIW1larSxeWNbf82ka/0RzHHezar8e6PpKk5vuHbpEotj3dfVdJO7psR5OvT3cAYiVD8QoAoo8CFgAUDHtapm+QA9aY25/kwTnlBzcsKrRdrzhk4auSXpWU/vDfNf11+MBEIruzBeE2chvp0s6SthYr24H8PMWF4S2kAAB5MJshAgAoDO0PDd4ttOBpksAaaJDpnLID4ne7YHdb/kj1hiXZjh2VCLaX+9YmG+mrilr9SQeItCWlBywcErUXUQAA/hcrsACgQBQHWz3b5q+ulNSHNPAFVpj0i5J3yy6x1Jx24vhi/Q5oeFfSA12f/2p+pGrzIJvdWmYjZbaNpA8/65EakHtuuo3iFQDkB1ZgAUABaX146AOSDiYJfIYOSVM7LfuTPgcs+Q9x9OCk+fEt1+voKB7ibkMUhKv+V/rwM0hSQEpAbwhHlB24eD45AED0sQILAAqISY85BSz8L3cpY6Yflh2wsJE4euFY3PeVpZJmd30+3hhPbV7e3lY6VG5DXb6VpM3MfaCbtpRsoKTNJZWRIrCu10R/upTiFQDkDQpYAFBAQrPHzblTAh8zK/Dw/JKDFv+DKCIyqd7rtRZJL3V9PtWKx6o2Ku3MDgzNtpBsM3P/kss2cNmGpnBDSRtLtoGkDSWVkyrwv9yCW0kBAPJojEQEAFBAg/WnNi9vay9dJlcJaRS8F+X+vbIDF91LFDE/7u/fvrI1WLlBIgg2zFq4nimoNPMKd/WTqZ/JK92sQtIAl/Ux9+IIjVSP5HyFHupbzaWJjs27VkMCAPLi1A0AKChts4Y+6a69SKJgzXHXb8veXXi7pZQlDkRZ6yNDvyXpQpJAD8yCppSNWjiZIAAgf/CAUAAoMGHoj5JCIfLnzH1c6aiF25UfuPAWilfIB6WjFl4k6T6SQLdPgsLwKlIAgDw7dxMBABTcqf9+MiggphfMLFU6atFOpQcuuoPXxSOvuq/JOxJ2vKQ3SQPd17H8sZIDFz9PEACQX3iIOwAUmDLb/Ml2vfKBpP6kEWvPyfxXJfsv/gNFK+Szvvs1vtP60OCJlrD75Pz4im4Q+pWEAAD5h0EAABQYO2BWp0wPkUQcG1ehpD+FroNLD1i0Y+moxRmKV4iDsoMW/1Wh/54ksO7nSXujpN/6dxIEAOQfVmABQEGO3+1+l48lidhokyytwH5Tul/jXOJAHJXYVj/osFd2cekA0sDa82ttl9kd5AAAeTiHIQIAKDzNj1RtnrDwVZLI+4v4W+66piRbcrkdPO89EkHc+YMjNmgvav+npMGkgbXQ0VnUMahyn1ffIAoAyMuxLwCgELXNGvKSpJEkkZeelfvFJRtXpG3knHbiQCFpf3jozh7445LKSQNraFrpqEUTiAEA8hO3EAJAgTK3v7g5Baz80Sz5HwK364oPWPQEcaBQlRy4cHbbI4MnyexW0sAacJl+QwwAkL94iDsAFCiT30UKedFQs006vaRDA0tHLT6e4hUglR6w+DaTLiYJrIE/lu6/6EViAIB8HhYDAAqSu4L2x4a8JmlT0oicD1xeH1ji2pL9Gp8lDuAzz2F/kHQUaeALJz2u3UpGLfonSQBA/mIFFgAU6mDeFLrpLpKIlNkmm1zS2rRZ2f6LJ1O8Aj7/HFZS3D5B0lOkgc/vLP4XilcAEIPTOREAQOFqfWTIwRboAZLIqRckT3tnYkbZQY0LiQNYM/5Y1UbtHj4lqYo08GmCUPty+zUA5D8KWABQyBO/R0YVtQWvvGnShqTRq+ZKykjZ+tL9//0ycQDrpvXx6iFB2PmUS18iDXxssmM+q2S/xQeQBADE4JxOBABQ2NoeG3KjXCeQRI+bJ1NaQZAu3adxDnEA3av9kUF7eBA8IKkPaeBDHuorZQcsepAkACD/UcACgALX+ujgr5rsfpLoEQ2SZWRhunS/xS8QB9CzWmYNPSAw/7OkctKApKdL91+0BzEAQDxQwAKAAudpJdo3GfKqeBthd+gw0xNh6H9WQn8q22fxfCIBelfr40O/Zu53SSoljQK/vrm+Xrb/ontJAgDigQIWAEDtjw35vUvnkcRaeVPyv8p1b0nof7UDliwjEiC32h6rOlIKM5KKSaNAJzmmR0r2XXQgSQBAjM7tRAAAaH+0ake38FmSWC1Nkh516QHL2oOlByx8iUiA6Gl7dGiNzG+XlCCNghOa2W4l+y6cTRQAEB8UsAAAqyZ7jw95Ua5tSeJ/rDTT39zt8cDDR4s2rPi7jZzTTixAPpzXBifldrtYiVVobi/db9ExxAAA8VJEBAAASXJpqkm/L/QczPSWuz3tHj4WmB4vzm71rB0wq5MeAuSf0n0XZ1ofH9JiroykMhIpCK1hwn9IDAAQw3E6EQAAJMkfHLFBe0n7awU2yeuQ9IK5P6kgmO1ms0v2bpxrJqdHADE60B8btH+o4B5JfUkj9n5but+i84kBAOKHAhYA4L/aHh8yTdL4OO6bS+8E0vOSPS+Fz7vr+ZLsVnNZXQUUho5Hh+4VBv5nSQNII6bc3yux7DDb95WlhAEA8UMBCwDwXy2PV40KFD6S1/MX6R3J5krhfMnmy8M52SD7YuU+r75BCwOFre2xwdvL7M+SNieN+HHXeWX7LbqYJAAgnihgAQA+PsF7fMjzkraP8CaGkl53aYnJF8tsiYW22FwNRcVt82yv196nFQF8luZHqjZPFIf3yrUdacSJLypZv2JrXrIBAPFFAQsA8DHtjw85waUbc/T1yyW94aa3zfWaud4OA3/dQv0nDILXzeyV0gGlrzJBAbAu/IEh/TvK9AeXDiaNuMxqvKZ0n8VpggCAGJ/qiQAA8LGJ3SODytqKg4vMVSrZqgceW1hibpWSFEplJpW71BJIrZ/6d0grJOt0hUsl6zRphVb92RaTVri01GVLA2WXhgqWlnqwVNnNl/I8KgC9dq6bM7Kk/f3m6yQ7jjTyfEJjerhkn0UHkQQAxPx8TwQAAAAoVO2PD53k8islFZFGfjahwuyXS/f/98tEAQDxRgELAAAABa31qUGHWBhMl7QeaeSdX5fus+gHxAAA8RcQAQAAAApZ2V5L7ncLdpX0EmnklVdLmpp+SQwAUBgoYAEAAKDgle3duLBExXtJmkka+cHlZ9ohbzWRBAAUBm4hBAAAAD6i/fGhk9z8MkmlpBHZaUy6dJ+FNeQAAIWDFVgAAADAR5Tsu3CKhcFekhpJI5I+6FT7ucQAAIWFAhYAAADwCSX7NT5bUqZdZJYhjWgx13mV+7z6BkkAQIGd/4kAAAAA+GxtTw1Oyu1a8ZbC3E9ezGcV77n4QDM5aQBAYWEFFgAAAPA5SvdanAnlO5r5LNLIqRXZjvBEilcAUJhYgQUAAACsBndZx9+GnuLuF0uqIJFenri4n1Kyz+LrSQIACvQ6QAQAAADA6mv721ZbezZxnZn2Jo1ec2/JXosOZ/UVABQuClgAAADAGvrIaqzfSepHIj1qWTYRbFexR+NrRAEAhYtnYAEAAABryExestfCKdlO21bSn0ikJ8PW6RSvAACswAIAAADWUevfBo82t0slDSaNbp2upEv3WlhDDgAAVmABAAAA66hsz8X3lKh9pFw/ldRKIt3BF5UEdgo5AAAkVmABAAAA3ar18eohFmQvlvkRpLHWOszCfUv2XPI0UQAAJApYAAAAQI/oeLJqz9Cyv5dsT9JYY98v3WvRb4gBAPAhClgAAABAD3FX0PHU4Alu9gtJW5LIak1QHi7ec9FXzBSSBgDgQzwDCwAAAOghZgpL9l58a4naR7j7t016i1Q+15vtReEEilcAgP+5phIBAAAA0Dv83qrSjvX9eHf9RPKBJPIxnUHoBxXvvfgxogAAfBIFLAAAAKCX/V8hy38saTMSkdz8O2V7LL6QJAAAn4YCFgAAAJAjPmdkSceK1okUsnRPyR6LjjST0ysAAJ+GAhYAAACQY/7IoLK2UjvZzL6jwnvYe2NJa7irHbBkGT0BAPBZKGABAAAAEeGuoO3vg78eyM526eAC2OWVCm3P0r0XvkTrAwA+DwUsAAAAIILanxz05dDsNDM7RlJFDHfRZZ4q3WPxH2htAMAXoYAFAAAARJj/a9CAtrbgeHOdJ4vT7YX249I9Fv6cFgYArNZVgwgAAACA6PNndi5u71g21sxPdulASUEe787Mkt0XJXloOwBgdVHAAgAAAPJM8z+GbpHw8Fi5HS+pOs82//mSlvJ97IA5K2lJAMDqooAFAAAA5LH2vw/dWQqPC2VHm7RhxDf3zbBIe5TvsugVWg4AsCYoYAEAAAAx4I8MKmsvSxwpC8dL9lVJ5RHbxJUWBvuV7NX4L1oLALCmKGABAAAAMeNPbV7eVlR8sHmQlPxISf1yvEmhPBhbukfjH2kdAMDaoIAFAAAAxJg/MqisrdK+IunwwG2MSxv3+jbIzi7bfeHltAYAYG1RwAIAAAAKhD8yqqiz4t97hgoOkfwQSTuph99maNLFJbsvOo/0AQDreD0BAAAAUIj82aqN2jvCr6wqZtlXJW3SzV8xrWS3RceaKSRtAMC6oIAFAAAAQJLU+s/qIUGY3Se0cG9z20fSNusw0XioeP3g6zassY1kAQDrigIWAAAAgE/V/I+hWyTc9zFp11DaxaQdJfVZjf/0nyXN5QfaAXNWkiIAoDtQwAIAAACwWjytRPugqhHmvrMr3FaB7SC3bSUf+JE/Nr8kKNrHdml4l8QAAN2FAhYAAACAdeJ/r+rXUaQqD7NVYWB/L99l0SukAgAAAAAAAAAAAAAAAAAAAAAAAAAAAAAAAAAAAAAAAAAAAAAAAAAAAAAAAAAAAAAAAAAAAAAAAAAAAAAAAAAAAAAAAAAAAAAAAAAAAAAAAAAAAAAAAAAAAAAAAAAAAAAAAAAAAAAAAAAAAAAAAAAAAAAAAAAAAAAAAAAAAAAAAAAAAAAAAAAAAAAAAAAAAAAAAAAAAAAAAAAAAAAAAAAAAAAAAAAAAAAAAAAAAAAAAAAAAAAAAAAAAAAAAAAAAAAAAAAAAABAzzAiiK9Ro0YVDRw4sK8khWFY3tHRUfbh/1dcXNwaBEGLJE2bNm2ZJCcxAAAAAAAQRRSw8kwymVxf0mAzGyRpkKTNJG3wkc+GkjaS1H8N/+p2Se+6+7tm9raZve3u70p61d0XBkGwKAzDhZlMZiWtAAAAAAAAehMFrIi2y7hx4wYHQbCDpO3MbDt3r+4qWvXL8ba9JanRzF4Iw/C5RCLxbFlZ2Us33XRTK80GAAAAAAB6AgWsCBg7duxWxcXF+7j7npJ2krStpL55tAudkl6W9IykR939sUwms5iWBQAAAAAA3YECVg4yr6mp2d7d95e0d9dnsxju52vqKmZls9n777jjjn/T9AAAAAAAYG1QwOoFxx57bGVbW9uBZna4ux8qaYuC62hmi9z9T5Luefvtt2fNmjWrk54BAAAAAABWBwWsHpJMJrc0s6SkIyTtJamIVP7rHUn3uPsMSQ9nMpkskQAAAAAAgM9CAasbjR8/fsPOzs6xZnacVhWtyPeLvWdmM8MwvDWTyTwpyYkEAAAAAAB8FAWWdTR69OiKioqKGnefKGkfSQGprLVGSTcmEokbp0+f/hZxAAAAAAAAiQLWWksmk9t0rbQ6RdL6JNKt2iX9UdKUdDr9kFiVBQAAAABAQaOAtQYmTpxY1tTUNMHMJkvalUR6xcvuflVZWdnUW2+9tYk4AAAAAAAoPBSwVkMymewvaaKZfUfSZiSSEx9Iurmzs/M3d9xxx5vEAQAAAABA4aCA9TnGjRs3JJFInCPpJEmVJBIJbWaWlvSL+vr6BuIAAAAAACD+KGB9ipqammpJP3H3WvFQ9qjqNLObOzo6fn7HHXf8mzgAAAAAAIgvClgfkUwmtwyC4IfufqKkIhLJCx1mNtXMfjpjxow3iAMAAAAAgPihgCWptrZ2oLv/yN1PklRCInmpWdIV7n5BJpN5nzgAAAAAAIiPgi5gJZPJEkmnmdnPJfWlO8TCUnf/6TvvvHPlrFmzOokDAJDH45TNzGyQmQ1y960kDXL3rcxsg65xS4mk/pJKJVVEfHe+nk6n76VVAQDA2irYAlYqlRot6VJJg+kGsTRf0nkMlgEA+SCZTPY3s10l7ePuO5vZ7pI2isVg02zB1ltvPaKuri6kpQEAwFqPKQpwgPhlM7tU0n40f0G4y8y+XV9fv5AoAABRMWnSpOJly5btb2ZHSjrM3YfEdV/d/axMJnMFrQ4AANZFwRSwkslkuZmdL+n74jlXhaZF0m/d/VeZTKadOAAAuXDsscdWtrW1fV3SGEmHShpQALv9QWtr6xZ33333CnoAAABYFwVRwKqtrd3X3ae4+wiavHC5+wuJRGLSjBkzniYNAEBvqampqe56w/EpktYvsN2/OJ1On0cvAAAA6yrWBayu50n8TNKZkgKaG5JCM7u+paXl2/waDADoKZMmTSr+4IMPxrj7aZJGqTCfOxqaWTW38QMAgO4Q28FUMpk80MxulrQ5zYxPsTgIguNnzJjxOFEAALpzbFVTU/MNSb9092GFHIS7/zGTyYyhSwAAgG4ZZMVth0aNGlW08cYb/0jSjyQlaGJ83tha0uUrVqz47n333ddGHACAdZFKpQ6WdIGknUhDcveDMpnMwyQBAAC6Q6wKWOPGjRuRSCRuZ+CINfSSmR1TX1//PFEAANbU+PHjt89ms5dJ2p80/u/amk6nt9eqH4sAAADWWWyeC5VMJk9KJBKzRfEKa25bd/97Mpk8R4X5jBIAwFoYNWpUUSqVOj+bzf5DFK8+xswuFcUrAADQneOLfN+BQw89tLRv376/lXQ2zYlucE9RUdHx06ZNW0oUAIDPUlNTs20YhlPNbBfS+B/vt7S0bHHPPfc0EwUAAOgueb0CK5lMbta3b99ZoniF7jO6s7Pzudra2t2JAgDwKSyZTH7P3WdTvPpM11G8AgAA3S1vH3KeSqX2M7MHJI2gGdHN+rv7sdtss82KuXPnPk0cAABJmjhxYll1dfVUMztPvCjms3QGQXDMSy+9tJwoAABAd8rLWwhTqdSpki6XVEQTokcPELNbwzCcnMlkWkgDAApXbW3twDAM75K0K2l8rnQ6na4hBgAA0N3y7RZCS6VSdZKuFsUr9AJ3P1bSk8lkckvSAIDClEwmvxyG4d9F8Wp1XEYEAACgJ+TNCqyuh7VPlTSeZkMOvOHuR2UymX8QBQAUjlQqtbekv0jqQxpf6Nl0Or0zMQAAgJ6QFyuwjjrqqA369OnzgCheIXcGmtmjyWTyWKIAgMKQTCb3lHSfKF6tFne/hBQAAEBPifwKrLFjx25eVFT0oKThNNdqW2Zm77j7e5JWuntoZh98OL6UZO6eMLN+Xf9uI0kbd/0vt2Z+wfhc0i/S6fRPuv4ZABBDNTU1O7n7g5LWI43V8nZFRcVWN910UytRAACAnhDpAta4ceOGJBKJByUNpqk+5h1Jz5vZgjAMFwdBsETSkiAIXuns7Hw3k8lk17Y/jB8/fmNJX+rs7Kw2s2pJ1VpVPNxW/AL9UVPffvvtSbNmzeokCgCIl2QyubOZPShpAGms5gDC7Gf19fU/IQkAANBj442obti4ceNGdBWvNivwNnpL0lPu/jdJz0l6MZPJ/CcHg/lEEARba9UDbHd19z0lba/8exFAd7q3tLQ0deuttzZxKgGAeBg/fvyXstnsbMYfa6Td3bfKxfgEAAAUjkgWsMaPH799Npt9QKtuays0b0m638weCsPwqUwm0xjhQf6GYRge4O4HSTpY0tACbK9/uPvhmUzmHU4nAJDfRo0aVbTxxhs/JGk/0liDwaTZrfX19ceRBAAA6NExR9Q2KJlMbmdmj0jaoEDawCX9093vlvSXTCbzrPL02Uo1NTXbuvtRksZI2qmAjqMGdz8wk8m8zikFAPJXKpW6VNLZJLGGg0mz3err6/9JEgAAoEfHHFHamGQyOdzMHpX0pbgH7+7PSEonEonMjBkzlsRt/2praweFYTjezI5z9xFxb8vKysp9eXAtAOSvVCo1XtI0kljja+BTmUxmb5IAAAA9LTIFrK6Cx+OSNo9x3m9Juimbzd4wc+bMBYXSyWpra3cPw/BYSUcrfm9zesfdd8lkMq9wOgGA/FRTUzPU3Z+XVEkaa8bdazOZTD1JAACAnhaJAlYymdwsCILH3H1IPMd2/kAQBNf279//nilTpnQUamcbPXp0RXl5+QRJZ0jaIQa71Onuh2QymYc5lQBAfqqrqwvmzp37sKT9SWONvT5gwIDBhTy2AQAAvSfnBaxkMrm+mT0haeuYZdsm6fZsNnvRzJkz59DVPi6VSu2nVc8ZOUr5+ybDb6fT6d/TmgCQv5LJ5GlmdhVJrJUfptPpXxEDAADoDTktYB166KGlffv2/avi9bafFZIud/fLeZ30ak0chpvZ+ZImSCrJo02fkU6nx9OCAJDX16D1zaxBhfPimO7Ukkgktpw+ffq7RAEAAHpDUQ6/2/r163eju8eleNUk6YqOjo7f3Xnnne/RtVZPJpOZL+nE2tran4Rh+G1JkyWVRnmb3f2FsrKyk2k9AMhvZvZLUbxa2+ymUbwCAAC9Ov7I1RfX1NT8wt1/GIMMO8zsqvb29l/deeedb9Ol1k0ymdzSzH4i6TjltsD6WZaa2a719fULaS0AyF/jxo0blkgk5kb0WhN5iURih+nTp79AEgAAoLfkpICVSqVOlHRDvofn7n8KguBb9fX1DXSl7tV1a+HPJX1D0XlbZmhmh9fX199HCwFAfkulUtMl1ZLEWnkknU4fSAwAAKA39XphIJlM7mlms5Rfzzv6pJfd/ZxMJvMAXajH+8s+ZnaJpJ1zvS3u/qNMJvNLWgUA8ltNTc3W7v6S8vclIrl2VDqdvosYAABAb+rVAtb48eO/lM1mZ0vaLE/z6pB00YoVK35y3333tdF9eq+f1tTUHOvuF0jaJBcb4O5/zGQyR0lymgMA8lsqlbpOUr49y7BJ0tOSnjGzf4Vh+FoQBG8mEon3e3tDpk2btozrIQAA6PXCQG990aRJk4qXLVv2oPL0jYPu/pSkUzKZzFy6TW5MmDChX2dn5y/d/XT14q/mZjavqKho99tvv305rQAA+e2oo47auLi4+N+SyvJgc1vNLBOG4R8kPZDJZFpoQQAAUKh67cGlH3zwwe+Un8Wrdnf/0ciRI39fV1cX0mVyp6uAdFZNTc3tYRhea2bb98LXLu/s7Dyqvr6e4hUAxEBxcfFJin7x6l1JFycSiSm86Q8AAGCVXlmBVVNTU+vu0/Mwn7lBEBwzY8aMf9FVomXSpEnFS5cu/VbXGwt7aiLiksbynA8AiM+4J5VKNUiqiuj2tUu6rL29/Zd33XXXMpoLAADgIwO5nv6C2traQWEYPiepf14FY3Z1GIbfYrl+tCWTyW0k3Wxmu/RAH/hlfX39j0gZAGJzzdi/60UyUfRSIpGYMH369BdoKQAAgP/Vo88RqqurC7LZ7FTlV/GqVdJJ9fX1p1O8ir5MJjP3nXfe2VPS97Tql+vu8kAYhj8hYQCI0aAnCGoiumnXVVRU7ErxCgAA4LP16AqsVCr1I0k/z6M8FprZuPr6+ufpGvknmUzubGbTJFWvaz8oKiraddq0aUtJFQDioa6uLpg7d+5rkjaN0Ga5pJ+l0+k6WggAAODzJXrqL04mk7uZ2c09+R3d7MH29vavzJw58990i/w0d+7cN7fZZpubgiDYQtIOa/nXNCUSia9Onz6dfgAAMbLJJpvs4+5nR2mbzOzMdDr9O1oHAADgi/XILYSjR4+uCILgNknF+RCCmd0wYMCAw3hgav7LZDIr6+vrjzOz4yWtXIu+cDK3cABA/Lj7IRHbpO/V19dfRcsAAACsnh4pYFVUVNS5+7B8GM9K+kF9ff3JU6ZM6aA7xEd9ff0t7r6LpLmr+9+Y2UX19fUzSA8A4icMw8gUsMxsWjqdvoBWAQAAWH3dXsBKJpM7u/u5ebDvne5+fDqd/jXdIJ4ymcz81tbWPST9YTX++CNvvfXW+aQGAPEzZsyYAWa2U0Q258Xm5uZTaBUAAIA1060FrFGjRhWZ2RRJRRHf73Z3H5/JZG6lC8Tb3XffvSKdTifdfbKkz1pl96q718yaNauTxAAgfkpKSnZXD795eTVl3f2Ee+65p5lWAQAAWDPdOpjbaKONvi1pp4jvc4uZjclkMn+g+QtHJpOZYmaHS1r2if+rNQiCsZlM5h1SAoDY2i0i23F5JpOZTXMAAACsuW4rYI0bN26Imf044vvbKumI+vr6+2j6wlNfX//XbDa7p6SFH/47Mzt9xowZz5AOAMTaLhHYhg+Kiop+RlMAAACsnW4rYCUSid9LKo/wvnZISqXT6Qdp9sI1c+bMee6+m6RHJF1VX18/lVQAIN7MbNsIbMMV06ZNW0prAAAArJ1uKWAlk8kDJY2J8H52mlltOp2+hyZHJpN5392/licvGwAArIPRo0dXuPugHG9GR3t7+2W0BgAAwNpb54etJ5PJhKSLI7yPLunk+vr6O2hufCiTybSTAgDEX2Vl5fAwDHP6AHd3v/fOO+98m9YAAABYe93xtsBJZrZ9VHfQ3esymczNNDUAAIXH3bfM9TaYGW89BgAAWEfr9ItkMpnsb2Y/jerOmdlNmUzm5zQzAACFyd23yvEmZNvb2x+iJQAAANbNOhWwzOxcSRtFdN8e7t+//yStuoUQAAAUps1y+eXu/sxdd921jGYAAABYN2tdwBozZswASedEdL9ecffaKVOmdNDEAAAULjPbIMff/zStAAAAsO7WuoBVWlp6vqQBEdyn1iAIxmUymXdoXgAACpu7b5Dj759HKwAAAKy7tSpgHXXUURu7+1lR3CEzmzxjxoxnaFoAAODuA3L5/YlEooFWAAAAWHdrVcAqLi7+nqTKCO7PjfX19bfQrAAAQJLMrCKX35/NZt+jFQAAANbdGhewksnk+pImRXBfFra2tn6TJgUAAB9y9+KcDrSCYAWtAAAA0A3jqjX9D8zsDEVv9VVnEAQT7r77bgaJAADgo0py+eVm1kITAAAArLs1KmAdeuihpZJOj9pOuHvdjBkzeMsPAAD4+EAnCBKkAAAAEINx3Zr84X79+h0raZOI7cPz66233m9pSgAAAAAAgHhakwKWufu5Edv+Tnc/acqUKR00JQAAAAAAQDytdgErmUweImmbKG28mV2YyWRm04wAAAAAAADxtdoFLDOL2psHF4dh+DOaEAAAAAAAIN6KVucPJZPJTSQdHqUNN7Nvp9Np3uwDAPhURx999HphGA4Nw3BzM/uSu28saSNJG0rqI6nc3c3MBnzkP2uR1Copa2bvufu77v6epHckvSJpcWVl5aKbbrqplYQBrIlkMlkSBMGgMAyHBEGwsbtv9JFzUx9J/bv+aKX+7+2ZoaQPuv55hZm9I+kdd3/PzN40s8XZbHZRJpN5h4SRB8fARkEQDJU0NAzDoWa2oaTyrr5f2fXP/T7s9+7eZGYrJb0t6XVJbwVB8G8za5g+ffpbJIreNGnSpOL33ntvUFFR0eAwDL8kaSMz+5KZbezufSQNkCR3rzCz0k85h6+U9G5Xf37X3d8KgmBREASL6c+rz1bnD6VSqR9I+mWEtvvhdDp9EM0HABgzZsyA4uLinSTtbGY7uHuVmVVJ2qAHv/YNSXPM7DlJz3d2dj633XbbvVxXVxfSItFSU1PzsruPyNX3B0Gw2YwZM96gJQrHqFGjijbddNNtwjDcWdJO7j5cUpWkLSX11FsxV0qaL+l5Sc+7+/NtbW3P3n333StoEeRijjlu3LhtgiDY28z2lrRt1zHQrxu/Y4WkBknPSnrWzGb379//OZ6NjHWVTCYTQRBs3XX+3tndR5jZUElbaTUXAK2FZnefHwTBf8/hxcXFs2+//fbltMgnTi6r82dSqVRD10knCrKJRGKn6dOnv0DzAb0+EdzW3XvlTaTu/mwmk3k/hxev8kQi8aWOjo6guLi4fzabDST1N7MgSm3i7n/PZDIrC6wfDpV0gKQD3H03SUNX83rW05ZJekrSE5Iee/vtt5+eNWtWZ1QGY2Z2QC/3zSWZTKYxAv2FAhZ61BFHHNG3tLR0v65jbG9JO2jVSpKcj5klPWdmT4Rh+ERnZ+cjd95553sRmiRuZ2Zf6sVzUkcmk3k0QteyXd29fy/t+5OZTKalh9vzy2Z2mKS9uj7r5SDW5q7r8KPu/tDIkSOf5oclfJFjjz22srW1dV8zO8Dd9zGzHbRqRWAUzuEvmdnjkp4Mw/ChKK22TSaT25jZwF48h4eZTObhotXYsIMVneKVJN1M8QrIDXc/X9IxvfFdiUTiYEkP9eR31NbWDspmsztK2i4Igi3DMBxoZltIGihp/TAMlUgkFIahzCyKTfKf9dZbb8sCGVgcGgTB17WqaLVVRDd1gKTDuj7aeOONl9bU1PxV0r1BENw7ffr0d3O1YW1tbRVlZWUP9OZ3BkHwG0nfL/TzZhiGZ6RSqdj8ghoEwa0U5GS1tbU7h2F4pKSDJe2invtVfp0upZJ2dvedzeyc4uLibDKZfNrM/uzu92Yymedy3Jd+6O41vdZoZu9q1W3kUTk3XGJme/XS1w2RtLgHJrA7B0HwDXf/RkTmixVdx+TBZvbzuXPnvlNTU/PnMAzvrqysvI/b//GRvvtlMztS0lfa2tp2M7PirvNE1M7hO7j7DpLONLMwlUo94+5/TiQS986YMWO2JM/hOfw8dz+pF8/hrZLKi1bjDx4XoUbscPdfcMgBWMsiyEFmNkrSlyV9OQzD9T68ULl7VItUn3d+vimuS+WPPvro9To7O49w96Pa2tq+ambl7p5vu7Fe1+SsJpvNdqZSqQfdvV7SnZlM5gOOyoLxgzjtTDabfUyrbqEtKHV1dcGcOXP2NbOxksaEYZiPPx4kugome5nZL2tqaha4+wx3n5HJZOZyqGJ11NbWDnL3yZJS7j4k4tfmjdx9oplNbG5u/iCVSt3h7reNHDlyFiuzCo4lk8m9gyA4yt2PkjQ4D/chkLSbme0WhuFPU6nUYkkzzKy+vr7++UJpyM8tYE2cOLGsubl5dIS2d0omk1nM8QdgdYwbN25EEASHmdmhbW1t+37kgYpx4GEY3hCn9uq6ze0QScd3dnYeKak034qKX3C9/ZqZfU3SNTU1NXeFYTglk8k8ohz+egbgC89LVUEQTJw7d+5xXSt043MRcR8m6f+Z2f9LpVLPufuUkpKS23nmCj7jWNg5CIJzwjAcr2iuOPwi/SWdYGYnzJ07d2EqlboukUjckMvV0eh5tbW1g8IwPF7S8ZIG5+GPoZ9nsKTvu/v3k8nkHEnXFRcX3zJt2rSlcW7Tzz35NDc3f03/90aUXGsJguBXHIYAPs+ECRP6tbe315rZZEk7xXhXH4nC84W6w9ixYzcvKio6vWtwMbAAummpu9eYWU3XMyanuPv1rMoCIjNRLzGzlLtPMrN93N0KYLe/bGZXdXR0/K6mpmaGpMsL6Rd9fLpDDz20tG/fvhMkna1VtzLFZdeGSvpNNputq6mpuSUMw9/FZUyFVS/S2GijjcaZ2eQwDPfXqpVLsWZmIyVd0tnZ+etUKpUJguDyGTNmPBPHff2i6nlNhLZ1Ks9cAPCZJ6uamj0kTe7o6EiZWUUBXKiuy/d9qK2t3dHdz3X3WknFBdp1qyVdaGZ1qVTqRnf/fSaTeYUjGuh9yWSyv6SJZvYtSVvEaAXomqjseqbJSalU6klJF6TT6T+JlaKFxlKpVK2kX0kaFOP9LOsqVJ+USqVmmtnP6+vrX6L581PXCzVODILg3Ag/L7WnlUs6LgzD4+J6Dv/MAtbo0aMrJB0eke0Ms9nsJRyWAD6p682IP3b3ZAHt9nvl5eV35XGbfTUMwx+FYbgvPfi/+kg628xOS6VSt3Z2dv7sjjvu+DexAD0vmUxuFgTB99z9RK16CDRW2VvS3clk8l9m9pN0On0PkRTE8bCnmf2uq/0LRUKrnun1ja5C1vfr6+sX0hvyw/jx478UhuF33f0USX1jdpvgOp/DU6nUS5Lq0un0HYpBIeszC1hlZWWHdQ2oo+CPM2fOXEAfBPCRAdbwrjcYTVABLA3+hFvy8U06yWRyHzP7mbsfUKArG1ZHsaQTi4qKjq2pqZkahuHPMpnM68QC9Mg5aaOu1VZnu3s5iXw6M9tRqwpZT5vZLylkxXdc1VW4Gl3AMQSSku5+ZE1NzaUtLS0/v/vuu1fQO6Jp/PjxG2az2TOz2ex5kvqSyGfaVtIfUqnUS2b2s/r6+j8ojwtZRZ9zsYrK6isFQXAh/Q6A9N/nMfxM0nnuXlSIGbj79fm0vTU1Nbu6++8k7U8PXm3FXbc1HJNKpX7j7hdmMpkWYgHW3ZgxYwaUlJT8UNIZWnW7BVaDme2uVb/m/yWbzZ47c+bMeaSS/+rq6oK5c+eeI+mXHA//VeLu3ykrK5uQTCa/k8lkphFJdCSTyT5m9v1sNnuOpEoSWW3buns6lUo9kkgkvjl9+vQX8nEnPmvVgkn6akS28fkZM2Y8RX8DUFNTs22fPn3+Jum7ys834HSHJ/Lldedjx47dtKamZqq7/10Ur9ZWhaSfBUHwck1NTZI4gHWbqKdSqVNKSkrmS/o2k/W19rVEIvFCKpW6aMyYMQOII3+NHTt2q7lz5z4o6SKOh0810MxuT6VSf0kmk1sSR85ZKpU63swaJP1AFK/W1gHZbPbZmpqaq4466qgN8m3jP7WAlUwmd5K0aUS28Rr6GFDYkslkIpVK/cDdZ3fdylDIIr/6atKkScWpVOr8oqKi+e4+UYV3i2e3c/etun41u2/s2LFbkQiwxteRfebMmfOMpCmSNiaRdVYs6dySkpK5qVRqHHHkZSHglKKiohclHUAcX+gQM3uxpqbmZKLIjZqaml1TqdTfJd2k6NQp8lnC3U8rLi6eV1NTMyGfNvxTVzCY2aER2b6m4uJilmwCBeyII47oK2maovNSiVz6oKWlJRPxAcYOy5Ytu0HSzjRXj/haUVHR3FQq9bOu2wqzRAJ8ttGjR1eUl5f/WNJ3RDG9J2wq6Q/JZPJP2Wz2tDvuuOM1Ion+uKq0tPQmSWNJY430c/frksnkocXFxSdPmzZtKZH0vGQyWW5mP3H3b2vVw/bRvTZ099tSqdQxnZ2dp+bDC4Q+9ULu7lEpYE2//fbbl9OvgMI0duzYrcrLy/8RpWfy5djt99xzT3MUN2zixIllqVSqzt3/KYpXPa1C0m/M7Ilx48YNIQ7g06VSqUMqKirmSjpfFK96lJkdXlRU9FIymTyaNKKrpqamuqys7O9mRvFq7fv62M7Ozudqa2v3Io2e1fXyn391ncMpXvWsrxUVFb2YTCYnRX1D/+diPmbMmAFdD2nMOXe/mb4EFCZ3H15UVPS4u48gja4TdhBE8vbB2traHVtaWv4l6SdadVsJesceiURidiqVShEF8H9Gjx5dkUqlpkj6i7tzy23v6d/1vKAbkslkH+KIXDFgT3d/UtI2pLHOtgzD8NFUKnU2UXS/rh9FLzOzxyQNJ5Fe09fMrk2lUtOSyWT/yM6HPvkviouL91Y0Kpyvjhw5koe3AwXK3S+TtAVJ/Nc/Z8yY8a+IbZOlUqmzwzD8G4XGnBkgqT6VSl03ceLEMuIAk/TkduXl5f+UdApp5MyJZjY7mUxuRxQRuVibJc3sEUkbkka3KZJ0aSqVunrSpEn8eNd95/Dhzc3Nf5N0lla9WA69b7yZPZdMJiN5R0XwKSe4vSOybem6urqQ/gMULJYKf9x1UdqYo446aoNUKnWXpEslldI8OXdyU1PT47wlCQU+8TnNzP4hVphEQbWZ/a2mpqaWKCLhAq7VPebUpUuX3jdhwoR+RLHO5/CJZjZb0pdJI+cGmdkTNTU1J0Rtwz7teQCRKGCZWT39BgAkSSuLi4sjc04cP3789sXFxf+UdARNEx1mtouZzU6lUrxRCgWl63aTm83sKkmsRIyOSnefXlNT8/tkMsmPUojz9feg9vb2x5PJ5Gaksea63l59tZlNlVRJIpFR5u43Rm2VYfDJziNplwhs1yv19fXP0GcAQJI0IyovtKipqTk8m80+LmkwzRJJG0r6az48hBPoDrW1tQObmppmSTqONKLJ3c8zsz93vVUYiCUz2z4IgkfGjh27OWmsvvHjx2+4bNmy+yWdShqRderSpUvvi8pzsT5WwFq+fPlOWvV2o1y7V5LTVwBAcvco3D5oNTU1P3X3uyWxTD7aiszsmlQqVSeeH4EYq62t3T0Mw2ei8vIhfK5DSktLH04mk5sQBWI8XhtWXFzMG4JXUzKZ/HI2m50tiZXjEWdmB5nZ47W1tTl/PnHwiYNuz4gE9Be6CQBIkl7MZDL/yOUGjBo1qqimpuZGd/+xKIjkzVhD0k9SqdS1dXV1AXEgblKp1GFhGD4saVPSyJsJ0C5m9hSTe8SZu2+VSCQeYiXW50smkwea2aOSeHZn/tguDMO/jRs3LqcvbvpkAevLEQimvaWl5WH6BwBI7j4ll98/ceLEso022qje3SfSGnnplLlz595eWlrKG5IQG6lU6hhJdykadw1gzQxOJBJP1tTUbEsUiLFBxcXFD48fP/5LRPGp5/AxZvZnsaI/H22WSCQeTSaTX87VBnzyV9kovO72ibvvvnsFfQMA1FJcXHx7rr786KOPXq+pqekhMxtLU+S1WjObRgyIycTn25JukURRNn9t4u4PhWFYTRSIK3cf1tnZ+See/fZxyWTyNEkzxQs38tnGZvawu+ekdvTfAtaoUaOKFIHXDrv7o/QJAJDM7A/Tpk1bmovvHjNmzIDOzs77zWwvWiIWDiEC5Luu4tXvxK3McZkA7UgMiPk4bpeysrI0b+FcpaamZrKZXan/XUSD/LOepN1y8cX/7TwbbLDBcEWgEppIJJ6kPwCAZGY5eXh7MpnsX1JScr+kXWkFAFGQSqW+pVXFKwDIJ18zswsLPYRkMjnJ3a8WP0BgHf23gJVIJLaPwPZ0ZrPZp2kWAND8GTNmPJGDAUZ/M/urcvSrCgB8ynnpPEkXkgSAPPXNZDJ5UqHufCqVOsXMrhHFK3SDjy7fi8LDFF/IZDIraRYA0HWSvDe/cOLEiWWS7hHFKwDRmvj8niQA5DMzu6KmpmanAjyHj5d0rSheoZsEHzmohkZge/5JkwCA2js6Om7tzS+sq6sLmpubbzWzfYkfQBQkk8mvS7qKJADEQJm7p5PJZP9C2eFUKnWApKmieIVu9N8ClrsPzvXGuPvzNAkA6K4777zz7d78wpdffvkiSd8gegBRUFNTs6uZ1UsqIg0AMTG06yHmsZdMJreTdIekUpod3emjtxAOyvXGJBIJClgAsOr2wd6cKH7T3c8hdgARmfgMdvd7JVWSBoCYmZBMJmtifg7fzMz+ImkAzY3uFkjSscceWylpoxxviycSiZdoEgAFbvE222zzcG99WW1t7UHuzpu9AERl4lNuZn+QtCFpAIgjM7tq7Nixm8Zx3w499NBSSTMlDaSl0ROKJKm1tXUrM7McH8iv3H777ctpEgAF7vq6urqwN75o7NixW4VhOEPcogP05Phmz87Ozrfjsj99+/Z9oyfjCoJgqrvvRM8BEGPrFxUVXSopFbcd69u37xWSdqeJ0VOKugZXg3K9Ie6+kOb4bHV1dcGcOXN2JAl8hsZMJvMBMeS9ziAIbuqNLxo9enRFUVHRH8Uqh2ZJTWa2wt2XmVlfSQl3L9OqlcnFdEusCzN7ZebMmW+QxBdLpVLfdfeaAo9hqaSVXZ/2rnOS3H19cTsO8t8Hkv4uaa6ZzXf3BjN7JQiClU1NTc133333Ckk64ogj+hYVFfUpLi7u6+6D3X2EmY2QtJ1WvSk5DtfmZDKZ/Homk/lzjM7hZ0g6ucD7+DJJK81spbu3mlm/rnP4AEnrcwpYd0VdgW6a4wVYkrSE5vhsc+bMqTCzZ0gCn+EISfcQQ69ok7Swa3Kx3N2Xm1m2m/7uuTNmzOiViW55efmlknYogPZql/SSpPnuPk/S/K7PKyNHjlz2Ravdksnk+kEQfEnS0DAMq82s2t13NrPtJZVwOADdNvHZW9IvCmBX33L3l7om7y9/5Jz0fiaTWfkF56MSSRsFQbBFGIbDzGyYpG0l7Sppc3oRIsglPS7pXnd/RNLsTCbzhWOmrkLWCklvSmqQdP+H/9+xxx5b2d7evp+7HyRprKTB+RqOmV2RTCYfzmQyLfne0LW1tTuGYXhRAfTpdyS9aGbzwzCcb2bzgiCYn81m3/2ic/ikSZOKly9fvlE2m908CIJh7j5M0rZmtou7b8XpYvV8uAIrCr/AL6E5AERMi7s/JekRM/tXNpudFwTBv1dn8BXxieI4xfcXsqyk5yQ9JOnh0tLSJ2699damT/uDmUzmC/+yTCbzvqT3Jb38yYlkEAQ7ufuBkg6StLd40w6wVrpeK3+b4nk781JJs9z94SAIHqqvr395bf+iTCbTLun1rs/fP5HhJkEQ7Ns1qT9IUhU9CznUKOmWIAhunTFjRrfO8bqu6fd1fb6TTCb3C4Jgort/Q1KfPMtpkJmdK+lX+dzYXUXFaYrnD3sfSHr0I+fwOVpVmF1jU6ZM6ZD0RtfnH584h2/0iXP4cE4jn+7DAtYG7p7rbVlMcwCIgGVmljazdFlZ2ZM33XRTa5x2buzYsZtLmhKzNnN3f0LSzZLu7Co69aiuieTfuz6/mjBhQr+Ojo6vu/s3zOwwSWUcSsDqMbOrFYG3YXfndUTSjCAIbs1ms0/3xo8emUzmP5IyXR/V1NRs6+7j3D1pZiPpZeili/ELQRD8PgzD23vpxz7PZDKPSnp0woQJ53R0dJwm6bvKr1u1vj927Nipd9xxx5v52u5tbW0XSxoRo6683Mwy7n6Luz/ZS+fwdyTd0fXRuHHjRgRBMM7MkiqMOyZW24e3EG4QgRMez4cAkEuPmdnVYRj+MZ1Ot8R0H62oqOgWxeQefDP7t1YVrW5Jp9M5fY5i10tIpkuankwm1zezY7Rqldt2HFrAZ0ulUsdIGh+DXcm6+18l3VxZWfnHXP/4UV9f/5JW3T7909ra2t3DMDypK+c+9Dr0wDxujpl9N5PJ3Jvj6/AFEyZMuLqjo+McSd+TVJEH8fUpLi7+f5JOz9Nz+BhJp8SgG4eSHjKzm5ubm++85557mnO5MTNnzpwn6ZeSfllTU7OTpJPd/WhJ/Qv9fPPhUu0o3EL4Dqd/ADnwpKS6dDr9YAFMFCdLOiAGu7LQ3X/79ttv3zhr1qzOqG1c1wqwyyRdlkwm95F0vpl9XZJxuAH/Z/z48Rtms9l8f2ZKKGlmNpv9cdeEI3JmzJjxtKSnJ0yY8O329vYTzOzb4plZ6B7Nkn4n6VfpdLo9ChvUVcj6eTKZvNHMLpH0jaiH6O4n19bW/ra7b7fsaV23f1+R7+dwd783kUj8eMaMGf+K4gbW19c/K+n0I4444vzS0tITzew8SVsW6knnwxVYG+b6Ie7ZbPZdrgEAetGL7n56JpN5ohB2tra2dmAYhr/J89143sx+ufXWW8/8ooevR0VX/3qitrZ2l2w2+0sz+yqHHvDfsd/lWvW2z3zUbmY3hWH4m0wmkxePweia2F966KGHXtOnT59TzewHkjamJ2ItPdbZ2XncHXfc8e+IXn9fl5Tseu7nFEV79XlxGIbnSzotnzqAmV0oabM87b8dZna7pF+n0+mGfNjgrpcbXDpp0qSrli5derKZ/UjSwEI78Xz4DKy+ud6QlpaW9wUAPa9Z0u/c/VddzzEqCGEYXqn8XXb8lqRvp9Pp27WWD87MtRkzZjwj6ZDa2tpRYRheIp5ngAKXTCa/Lqk2Tzf/niAIzs631RIfuu+++9okXZpMJm/oWo31XUnl9EqsJpf0m7fffvvHUVwF/UnpdHrm2LFjnykqKpohaY8Ib+oJyWTyF12Ft8jrGs+clJcd2P2vYRieOXPmzAX5uP1dD4O/OplM3mRm35T0Q0mVhXICCrr+N9dvDFjZdTEFgJ70rLvvkE6n6wqpeFVTU3OkpDF5uOmhpGuKioq2TqfTtylPi1cfNWPGjFnuvrO7n6VVD3oGCk4ymSw3s6vycNNflXRUOp0+Il+LVx+VyWRWptPpOncfKelueiZWZ87m7qPT6fQP8qF49aE77rjj3wMGDNhP0pUR3szSIAjOzJNzeEkYhtcq/x6N8KaZjc9kMofka/HqE+fwlnQ6/evOzs4R6nqBRyH4sICV61d/NwsAepCZTVmxYsVemUymscAmiiVa9XyKfPNiEAR7pdPp06ZNm7Y0Tm2SyWSymUzmis7Ozu0k/YWjEwV4Pv6W8uv5HaGZXeTu26TT6bvi1h6ZTGZxOp0+Uv+/vTuPk6Oq9gD+O9XdkwVCFkjYFAKyJoDIDoIMCEKAhMyEqu5JmBC3iRugz8cq4PgQBFF8gKiM6BsIyXTVZWZwgkRki6zKIkvIJCwKsoUkLEmGzJLpqvP+mA4iJJBlpvtW9+/7+bzP24Q5fc6t07du37oFTAXAJyJofd5V1S8ZY/4Yx+AbGhp6gyD4jqp+F5b+IKaqM2tra63fSeM4zrcA7BGj8iuA61V1b9/3s6V2Yba0tLwWBIGnqtUAlpV6I7JlBxZ3XxHRQOlV1em+788sx52eIvJtVd09ZmHfqKqH5g8eLln5CcdJIvINAN28VKkcVFdXbw/gvBiFvFxEJvi+/31jzHulXJsgCJpyudw++bcpEn3Q66p6pDHmkbh/EGPMNar6dQChheGN7OnpqbU5f1VVVVur6iUxKvm7qjo5CILvGGNWlvJFaoxpVdV9UOI7am3ZgVU2j/IQUUF1qmqVMWZWOX74qVOnjkTfc/Fx0SUiXw+C4OvGmK4yKZP6vn+Dqh4IoJ2XLJW6ZDJ5GYAtYxLuo7lc7mDf98tmQaelpWWJMeZEAOdbeoNPhfe2iBxvjCmZ7yhjzO9U9cuwcCeWqlp9rlQqlfohgJExKfUTYRgeZIwpm0ekjTHLgyCYnN9p2FuKn9GWHVhcwCKi/rbKcZzj47rVvT+EYXgRgK1jEu5zqnqQ7/s3lmOtjDHtqnoE+EghlbB0Or0PgDNiEu7Pli1b9nlb37A20PfQQRBcqaqnAFjFkVvWugCc6vv+ohL83p0F4CLb4hKRg9LptJUvekmn058B8I2YlPh6VT2iubn5n+XYw40x1ziO8yWU4GPhaxewkkWOIwciov6zRlVPy2azD5drAmpqarZV1VhMMlT1cVU9qpR+3d3EyfTK/A3jtbyEqSRn1H2PnTj2h6nfD4LgnDgdUj1APelPYRgeAeBljt7yvGQBTA2C4KFS/YBBEFwOwLoXSqjqDEub4w8ApGIwbn+Uf2SwrDfJZLPZ+SJyiIgsLqXPtXYSUeztZUkQEfWPUERON8bcVc5JiKLoXABDYxDqfRUVFV80xizn0O074D0IgrPR9/gOUclwXXccgCmWh5lT1a8YY65mxfo0NzcvTCQSh6nqM8xGeRGRX5TiSws+bMSIEd8FYNvZXpn6+nqrFvurq6t3BjDN9nsAADODIKjnFdzH9/1/JBKJI1S1ZM6VXXthFHt1soLDi4j6yXm+75tyTkCMdl/d2tHRMWH27Nl8ROVDgiC4EsDZsPRNSUQbPeF0HNt3X3WKyCRjTCOr9Z+ampqWJpPJLwJ4gtkoG09EUXRBOXzQhoaGXlXNAHjborC2a29vP9ymPKVSqYstv2fvEREvCILf8vL9T/m3eZ8AoCR2U9qyA4sLWETUH/4YBEHZ/3IehuH3YP/uq1ZVzZTjmyE3VBAE16rq95gJirt0Or2HqroWh7gGfef8zGO11q2pqemtZDJ5PICnmY2S1x2GYU05PX5ljHlFRL5pWVin2RJIJpP5tKpOt7iEOVX1fN9v4eW73jG+sru7e0Ip7MRyAEBEuAOLiOLu1d7e3jNQ5jtWJk6cOBTA1ywP8/6hQ4dONcbwDVefPOG4BsAlzATFmaqeBXt3X2n+7ad3s1Ifb86cOe+q6vEAFjEbpUtEftrc3PxCuX1u3/eNqt5uUUin2hJIFEXfhr1nX6mqfqOc3jS4qdra2joAnKCqT8b5c9jyCOFQDimizVL2CwGqOqO1tfXtcs/D0KFDa2HxmwdVdWEymZzc2NjYzct2wwRBcCmA65kJiqNJkyYNA1BrcYjf933/ZlZqwxhjljuOcxKApcxGSXqloqLip2U7mQ7D7wDotCScXfJv/Ssq13WHwOIfRlX1YmPM73jpbnAPXxmG4ckAXo3rZ3DyhS/2IxzD6urqUhxSRJvcvMv9DKHZxph7ORIAVf22xeG9CuCE/LP4tBGWLVv2XQB3MhMUN4MGDfoKgK0sDe9nQRD8glXaONls9mURmQyAP0SUnnNmzZq1ulw/fEtLy79E5Ge2xBNF0ZcsCGMq7P1h9DfGmMt42W70OF+iqpMAvBfH+B1bbn47OjpGcTgRbfIXXDkvCKxyHOdcjgIgk8lUAtjX0vByAGqMMa+zUhtv/vz5OVVNA/gHs0ExIo7j2Lqo/hdV5ds+N5Hv+38F8A1moqQ8N27cuFvLPQmJROJ/Aay0ooGKfNGCGL5jaakeVdWzedluGmPMUwBmIIZHr6w9A6voj91EUcQFLKJNvZAdZ0UZf/zLs9nsGxwFQBRFM2yNTVUvDoLgIVZpsyYbKxOJRDWALmaD4iCTyRypqrtbGNpyVZ3Gc/g2TxAEN4kIH90pESJyZX19fVTuecjvErflsf0ji9zDPwdgfwvLtFJVM+X0ooEB6uHNInJt7O578/+96Ls3VJULWESb0cjL9HO/093d/SuWH6itrd0CQLWNsanqn8ePH/9TVmnzNTU1PQPgHGaC4iCKIhvPvlIROYO7Qfutxmeq6kJmIvbeiKJoNtPQJ5FI/AJ2nIW1bSaTGcse/pF55deMMS9xpPZLjc9V1cfjFPPaBay3LRiI23MIEW2SNcaY98r0s1+bf6NG2evp6akCMMzC0Jbmcrla/qrbf4Ig+BWAu5gJstmMGTMGA3AtDO1q3/fnsUL9wxjTBeAM9D0mTvF1C3ez/FtTU9NbAFotWWA4vBh/t7KyMgmgxsLy3GCMuZWjtN96+Jp8D4/NmYZrF7DeKXYgIrIzhxDRJinX3Vfdqnody99HVW39leyc1tbWZaxQ/6bVcZyvAljFVJCturq6JgIYYVlYL3d1dV3C6vT7DdATAH7CTMR6DnELs/CRe9ObLYljv2L83W233fZ4ANtZVpYlqnoeR2e/9/B2VY3Nd+PaM7DesSCWnTh8iDZJuT4GcZsx5h2WH3Bdd5SIHGthaA8aYzgpHgDZbPZVAPXMBFl8Q3yahTek3507d24nq9P/Ojo6LgPwPDMRS08bYxYwDf9p7733vht9b08uqiiK9mEPf7+Hn2OMWcnR2f+WL1/+CwBPxyHWtW8hXGpBLFzAItq0L5jXyvRz38Tqv/+FfhKApGVh5fJvrlFWaGAsW7bsurhMNqi81NXVpQB8ybKw7vR9/w+szsCYN29ej4icyUzEcg7B62Id8kcftBX9Zt1x9i3CZ3cAnGTZvP8B3/fncGQOjPzbrmMxb1+7A+sVC2LZhUOHaJMmHuW4A2sJeAbQB8fAKRbGdK3v+1xcGeDJhuM432cmyDYrVqw4GnY9PtgtIt9mZQaW7/t/VlWeLxYzURT9hVlYN1W9x4IYdnJdd0gh/+aiRYsOgV2PD/ZGUfRN8EfRAWWMeRCAsT1OBwAcx7FhAWtP13UTHDpEG60cd2D9ia8/71NXV5dS1RMsC2u14zg8D6UAstnsPQDuZibIMpMsi+e3vu//g2UpiPMA8KUd8dED4BGmYd16e3vvA1Ds+aZEUVTQs6JV1bYefktzczPfdloAYRheBKDX5hgdAGhqaloGoKvIsQwGd2ERbcqXTDkuYN3Lyvd59913j4B9ByX/Ov8GHyrEzFbkQmaBLDPBpntQVf0ZS1IY+bOUAmYiNh7Lv0mS1uG2225bAQse1XccZ2wZ9/BIVa/kaCyM5ubmFwA02hzj2jNTFH2H1O1R5ItzPIAXOXTWqQvA8UyDNTeMI1U1sCSWslvAUtX7OArfr3+lZSH1OI7zC1amcHzff8zzvLv4HUE2qK6u3h7AbhaFNMsY8worU9Dv6MtFJA1AmA3r5xDtzMInWgDggCLHULCzoqdOnToyl8vtZ1H+bzXGPMdhWDhhGF6RSCS+AsDKp+OSH/iyeVVEirqAparjAfAgwXXIPy7Fx0Qs4bru8SJ2zMtUtaze+iMi/wyC4HWOwvcdbVl9fp/NZt9gWQreB64SES5gUdElEoljbJqHq+pPWZWCz1kXeJ73ZwAnMBvWf3fwzZGfrOiLJyIyplB/q7e39ygRcSwao+zhBdbc3PxPz/NaAZxmY3zvD07HrWWLRgAAMMJJREFUcWw4G+BzHDIUByJygCWhrDbGvFpOuVfVRRyBfSZMmDAIwGE2lQfAz1mZotww3gXgWWaCij6xdBybFtXn8pf7ouFO3HjgAtYnzzsXWxDG1mXaw+82xjzBUViU73Jre/j7C1hRFNmwhfRQDheKiYMtiWMxyu+NHIs5/PpsueWWBwMYYks8qvogD0ouqt8yBWSBL9gSiIg0shzFMW7cuLsAvMRM2M2SN9FbLZFIvGxBGKMK9YeiKGIPJ2Sz2Ydh6Q+jzgcGiA0n+386k8nswCFDMWDLYms57kbir+lrG7jjHGRZPDezKsWzZs2amwF0MhNULJMmTRqmqntaEs47URTNY1WKo76+PgLwe2bCbrlcroNZ+HiqusqCGIYX4u+4rlshIracf7U6iiIeLVTccXejlfc/H2hgVryaMgxD7sIiq02ZMmVXAJ+yJJyyW8ASkSUche/7rEWxdPf09NzKkhRP/m1JvGGnohk8ePB+sOTgbhGZY4xZw6oU8SbDcW5B+e0Sj1uNuID1CdasWVP0HInIoAKNh70BVFjSw40x5j2OwOJJJpOzAeSs61tr/4eWlpYlAN6xoJEezuFCln/ZW7O1thzPgxIRfpnlRVFk0wJWW34BhYp7fXARkYppf4v64yyWo7iy2ezLAB5nJuzV3d29mln4eMOHD19lQRgFWcBSVfZwel9TU9NbAO637l78Q/970c/BUtUvcriQzSw73LDsDjYMw5C/FgKoq6tLicg4W+IRkVZWxYoJ3+0AupkJKlIfsOXRkzeMMY+yIlZoZgrs1dHRwV2Kn2Ds2LE25Kggu6Is6uHvAvgLR58V3+vW9fAPL2A9Y0FM+9fU1GzD4UK2XseqepwlsSwzxpTd4ZtRFPHXQgArV67cDQX6RW4DaBRF81mV4stvt3+AmaAi9ed9LAnlXlbDDolEgo81E/X/PXup9/C/GGNClt2K7/V5Vl8MIvI3G2IKw/BYDheyUTqd3g/2nH/1WJmWgV9ofV8ou9oSi6q2G2PeZFWscTdTQMUgIrb0pftYDTs0NTUtAMCzK4nYw9nDY8gY8xKAF22KyfnQDdHfLInreA4XspGqnmRRODxXorwnGWOt+SJxHE407BobXMCignNddwiAbS3pSdyBZdHUCdwRR2S9+vp6B8BOlsxj2DPsYtW88j8WsIwxz6PvmdNiOzl/ERHZxqYFLJ7vUd52sSWQKIo40bDI0qVLnwHQyUxQgfvAzrDjDYQv5Q8PJ0tY8oQHEX2MZ555ZgfY8QbCZb7vL2RF7KGqVvVw56PxqQ2PJW3f3t7OtxGSVVzX3Q7AEfb0En2MVSnrL5NdLArnCVbEHvPnz88BeJKZoEJKJpO29CT2I/twvkJkuYqKClt6+N/Rt3OTLBFFkVU9/CO7nCz6laSKw4UscxoKdIjiBlhojFnOkpS17SyJo3P8+PGvsRzW4U08FZSqbm9JKM+zGnYZMmTIU+D5lURWi6KIPZzWad99910Ei3b2r+tm/CFLYqvmcCGbiMhpFoXDM4c4Hre2JJQX6uvrI1bEuvHxHLNABTbKhiBUdTFLYZfGxsZuEfkXM0HEHs4eHj/5ef4LtsTzkQWsrq6uBwD0WBDbLplM5lAOGbJBJpPZAcBRFt2c3sOqlL2RloxFTjQspKr8BZPKsicB4OKthaIoYl2I7DbKkjjYK+xkTV0+soA1d+7cTlV9xJIvu+kcK2TJWDwD9jw+GCYSiftZlbI3woYguFBiJ8dxXmQWqJBEhAtY9HE96R/MApHVPXyEJaGwh9vJmh7urGcA27K7Y1r+tcxExW7qNi2mPjFnzpx3WZXy5brulrDjTTFQ1SWsiH0GDx78JrNABe4FNixgdRljVrIa9omiiD2JiD18Q7BX2MmauqxzActxnLssiW84gEkcL1RMmUzmKFXdy6KQ7mZVylsulxtkSywi0sGK2KexsbEbAG/kqZAGWxAD+xFvfoho0+ZzNswtO40xfOEDe/jHWucCVhiGjwNYYcnF9FWOFyqmKIrqbIrHcZw2VqXsJSyK5T2Ww1pvMQVUZn2JC1iWchyH/YiIPZw9PKZU1Zoevs4FrPzK558tifG4dDq9N4cNFYPrutsB8CwKaclee+31GCtT3gYNGpS06KaEkw17dTIFVMDJrQ19if3IXl1MARF7OHs4e/hm33us7/8hIq2WxCgAzuSYoaIMPpFvwJKzhvL+kH+VKZWxMAyTFsXCyYa9k1EuYFEh2fDrPXeEWiqKIvYjIvZw9vCYchzHmh6+3gWsZDJ5B4AeSybhtZMnTx7BoUOFNGHChEEArHp8UET4+CAhDEOxZraTSPSyItZawxRQAb+fbOhL7EfsR0TUz+sC7OFkUw9f70CdPXv2KlW915I4t6yoqKjjuKFCGjZs2HQA21sUUseqVavuZWVIVW16FKOCFbGTiKSYBSogG/oS+xH7ERFtGht22LCHW8pxHGt6uPMJXzatFuXtvyZOnDiUw4cKwXXdBIDzLAurbd68eT2sDuVyOWu2WEdRNIgVsRYnglQwIvIexzyxNkSxxR5O66Wq1tTmYxewEolEGwBbXmW57eDBg7/O4UMFuTAcJwPgM5Y1jltYGQKAuXPndtnSm1V1GCtircFMAZXZzc9WLIOdRIT9iIg9nD08psIwtKaHf+wCVlNT01JVvceiL79z8ucSEQ0Y13UTqvoDy8JaAuAuVofyFPa8YW40y2GtbZgCKlhTUl3NfkTrE0UR+xGRxUTElh4urIaV48OaHr4hh7XdZFHudhw2bNhMDiEa4Av0DAB7WxZTkzEmZHXoA1ZaEgdvGC1tZQBGMQ1UZj1pZGVlZZKlsI/jOFszC0T2iqLIhh5e4boud2FZSFWt6eEbsoDVCmCFRfm72HXd4RxGNBBmzJgxGMAPLfxSmcXq0IcssSEIEfkUS2GfqqqqUQB4I0+FnNza0JNk1KhRO7IaVo6PMcwCkb1ExIp5ZRRFnFfaOT6s6eGfuIBljOkSkWaL8reN4zjncxjRQOjs7Pw2gJ0sC2uBMeYpVoc+5HVL4vgMS2GfioqKXZkFKuiE0nHesCGOZDLJsW/nzQ/rQmQxVbWihycSCfYKO1lTlw3ZgQURucmyC+y7ruvuxHFE/amqqmoMgIss/EL5NatD62DFRENEuIBlJ9aFCt0LXrckDo59O2+OeVNKZDf2cPo48VrAymazD4rICxYlcLCIXMVxRP0plUpdAWCEZWF19PT08O2DtK6bgTcsiWO3/KO3ZNf42I1ZoALfdLxhSSj7sBpWYk8islh3dzd7OH2c3W0JxNnA/5wC+JVlSfTS6fSXOJaoP2QymUMBnGFhaDe3tbV1sEK0Dq9YEkeyq6trX5bDOp9lCqiQ9txzz+UAuoodRxRFB7Aadqmurt4ZwEhmgshec+fO7QTwFns4fZjruqMAfNqWeDZ0AQtdXV2/A7DKpmSq6vX85Z82V2VlZTIMw19vzPVQKCLyG1aI1iWRSCyyKBxONuzzOaaACqm+vj4C8JwF35ufra+vd1gReySTSfYjonhYbEEPHz9hwoRBLIVV9xxW9fAN/oJva2vrEJHZluVzt66urgs4rGhzjB49+jwRsW5yparzfd9/lhWidQnDcDH6dsfaMFaPYkXsMXXq1JGw6KwCKis2LKxvtXjxYu5AtMuBTAGR/USk3YIwKoYPH34Iq2GPKIqs6uEb+wvVdbbcMH3gxunCdDp9MIcWbYp0Or2HiFxkY2wicjUrROtjjHkPwKuWhHM0K2KPMAxPACDMBBVhTrbYhjiiKKpkNaxyAlNAxB7OHs4e3h82agHL9/1FqnqvZQlNqurvudWQNlZlZWVSVW8CYONjqAuCILidVaJP0G5JHJ9yXXdPlsOaCegpzAKVc09S1WNZCju4rrsduAOLiD2cPTyuPXw4AKuetNiUMwJ+ZmFu9xk2bNj/cIjRxth2220vBnCYpeH9BJbtdiT7iMgCi2KZyIoUX2VlZRLABGaCijKpdJxnLOlHX6ytrd2CFbHCybDwjFEiWmcPt2JeKSJH5g8Op+LX4gQAKavG6cb+A8aYPwF4zML8ft/zvGM4zGhDZDKZI1T1QkvD+4eqBqwSfZIoih61KJxTWZHiGz169DEAOOmjovB9/wUA71oQypCenp7jWRErbn6qmQWieMhms2/AjuMpkiJyEivCHr4uziZ+kMsszG8CwJz8VmWi9XJdd1QURbMBJG2MT1V/aowJWSn6xKaXSPzNonAOd113R1al6BONLzMLVMyvMACPWnItuCxHcVVXV28P4EvMBFGs2DK3ZA8vsqlTp45UVet+oN6kBSzf99sALLAwz9uJyBzXdRMccrQu9fX1jojcDGCspSG+8t57793EStGGyGazrwJ43ZJwEiIyjVUpnsmTJ48AMJmZoGISEStuflS1Kn92BxVJMpmshaU/FhLRetmygDXBdd3RLEfx9Pb2ZmDhWdGb+ky6isjllub6GBHheVi0Tu3t7eej7zwGK6nqD+fNm9fDStFGeNSi8Tud5SieVCp1OoAhzAQVk0WPNg8RkSmsSNEIgBlMAxHnlZs6rRGRGpajiE1cxMoevsmHKkZRZFR1oaX5viCdTmc47OiDPM87CYDNi5vtAGaxUrSRHrboi258JpOpZEkKz3XdhIiczUxQseVyub8CiCwJ51usSHGk0+njAezNTBDFS1dX1+MArPgxXUS+ib7FcCqwTCZzBIBDbIxtkxewjDGhiFxgac5FVf8vnU4fxuFH+Zu7cQDmoO+sNCup6gU8+4o2YdzcaVM8URRxEaUYX+aO4wLYjZmgYmttbX0bwOOWhHOg67pHsipF+W46j1kgip+5c+d2quqDlvSRvVzXPYFVKbwwDM+1ds67Of9wEARzAdxv6WcbrKot1dXVn+IQLG9VVVVjROSPAGw+C+MRY0wbq0UbyxizAMBrFoU00XXdPVmZghLeLJJl5llzcYicw3IUluu6BwI4lpkgiumkQoQ9vLx7+J4iMtHW+JzN/hc4zrnoe+uMjbZPJpPzXNflK8XL9wLcMpVK3Q57D20HAFXVc1kt2gx/siiWhIj8mCUpaJ+bDGB/ZoKsmVw6zjyLwpnkuu7hrEpBbzgvYhaI4ktVberhx3qedxyrUtDv8B+gH9aJBiy+zf0XZLPZvwFotrgG+4jIPNd1t+RwLC91dXUpEbkVwMGWhzrbGPMgK0abcbMwz7KQpvAR7sL1OcdxrmQmyCZ77bXXYwCWWRQSr5ECyff+U5kJovgyxrSLyL8sCukK8CysQvXwz6qq1W8V75eVtTAML4Qlh72txyEiYurq6lIcluXBdd3EypUrZwGw/bnpVblcjruvaLMkk8m7AXRbFJKo6qWszMBbsWLFN1V1d2aCbFJfXx+JiDXn84nIUa7rnsjKDLwoin7OG02i+FPVP1oUzoGu6/KtsoWp+5WwePcV+iu45ubmFwBcZXk9TlyxYoXvum4Fh2Zpy7+N6/eqmo5Bk/hRS0vLElaNNsfs2bNXAfijZWEdxy3fA97rRgO4hJkgSzVZFs/l9fX1DssycNLptCsiRzATRPGnqlb1cBH5cWVlZZKVGdB55Ymwf/NH/62uqerlIvJPyz9vlYi0zpgxYzCHaGmqr693ROR3AKbHINz2kSNHXseqUYneLALA1RMmTBjE0gzYZO5aAFszE2SjpUuX3gVguUXXy+cWLlz4NVZmYEyePHmEql7DTBCVBmPMQ5Y9Rrjn6NGjz2JlBkZtbe0WIvKrOMTq9OMg7wIQh9enn9TZ2Xkrb6pKT2VlZXLRokWNAM6IQbiqqt9qaGjoZeWoPwwdOvSPAFZYFta+w4YN+yGr0//S6fQpADLMBNlq/vz5OQCBTTGJyNWu6+7G6vS/ioqKqwBsz0wQlQyFZT+OisjlU6ZMGc/S9L+enp5LAewSh1j7dSu17/u3q+ofYvC5Tx42bNg813WHc7iWhgkTJgwaM2ZMVlVrYxLyr4wxf2HlqL80NjZ2A2ixMLRzeaB7/6qqqtpaVW9gJsj6SabjzLEspC0A/JaPEvYv13WPBfBVZoKotERRZFsPH5RIJH7PRwn7VyaTORRAbHa39fsXeBiGZwPoiMFnPwbA/ZlMZgcO23ibNm3aVltuueWfAMTlcL+Xu7u7L2DlaADcZGFMCVVtdF13CMvTLySVSt0EgN9dZL1sNvsIgOetuoBEKhcuXHgmq9M/XNcdLSKzwIPbiUqOMWYBgL9bFtYho0ePPo/V6bcePlxV5wBIxCXmfl/Aamlp+Zeq/ncs7gJE9lPVh13XHcfhG0/V1dU7r1mz5gERqYxJyKqqdW1tbR2sHvW3IAjuV9VnLAxtTxG5ghXafJ7nnQvgZGaC4vKdB+B6C+d/l6fT6b1Znv5IpTSCC+pEpXyR/9LCmC7JZDKfY3X6JZcNqrprnGIekC3Uxpjfquq8mKwm7Cwif/U8bzKHcLyk0+nDksnkX0VkvxiFfaMx5i5WjwasqTuOrS8GOCudTn+ZFdp0mUymEsCPmQmKk1Qq1Qj7duYPBfCHqqoqvgRhM3iedw6Ak5gJotI1ZMiQJgBvWRZWRRRFt7muux0rtFn30t8C4MXuXmeA/r0ahmEd7DtQeH2GAWj2PO9CcAt0XCZNZ6jqfQDi1Lj+kUql/pvVo4EURdFsAG/bGJuq3pA/K4U2fpLxmSiKAgA894FiZfbs2asANFrYj3ZPJpOtfKnPJs/DTgJwOTNBVNryZ6w2WBjaTiJy+8SJE4eyShvPdd2jVfUXcYx9wA6xbGlpeQ3Ad2OWi8s8zzM83N1eM2bMGJxOp2/IT4YHxyj0XlWdmp/IEw2Y/Bthf2dpeCkRMel0eg9WasPV1NRsA2AegNHMBsVRGIbXAYhsi0tEjho2bBhfiLCR8o/u+IjRmSlEtBk3yY5zPQAb35x+4JAhQ27mizk2zpQpU/YSkVYAFbEcjwP5Lw+C4CZVbYlbTR3H+Xv+NH6y62LbtbOz80FVrYth+BcaYx5lFakQcrncdQB6LA1vlKrO5aM7G2batGlbhWF4h6ruzmxQXDU3N7+gqnMtDe8Mz/P4YpUN5LruLlEUzQWwJbNBVB6y2ewb6Fu0tvIWsb29/VJWaYN7+I6JROIOACPj+hkGfLWyt7f3qwBeilNSVHXXKIoe9Dyvniu6dkin024ikXgCwIExDP/OIAh+zipSoeR3wN5ocYh7pFKp+6urq7dntdavtrZ2i97e3rkADmY2KO4SicSP0Heou40u9zzvYlbp41VXV3/KcZy7AezIbBCVlzAM/wdAztLwLvQ8jy8L+gRVVVVjROTPAHaJ8+cY8MWZ2267bYWIpAGsiVlukgB+2N7eft+UKVP4y3fxLrStPc+7VVUDACNi+BGW9Pb2Trd40k4lKpfLXQagy+IQxyWTyfuqq6s/xWp9VG1t7RY9PT1/BPAFZoNKQTabfRLAHywO8X94A7R+NTU126ZSqbvi9rYqIuofzc3NL4hIk8UhnpdOp68Dz7NeJ9d1R6dSqXsAjIv7ZynI7iLf9x8TkfNimqMvJBKJpz3PO891XT7rX0Ce501MpVLPAJgS04/QCyDT2tq6jNWkQmtpaVkiIr+zPMw9U6nUg+l0+jOs2L9VVVVt3d3d/WcARzMbVEpU9RJYeBYWb4A+3pQpU3aNougBVd2L2SAqX1EU2bwLC6r6Hc/zfs0nqP5TJpMZKyJ/AbBPKXyeghXX9/1rANwW0zwNAXCFiDycyWQO4mUwsFzX3cnzvNsBtAHYIa6fQ0TODILgflaUijgGfwK7d2FBVXdW1fnpdHofVgxwXXfPioqKR0XkCGaDSo0xZoGqWj0XXHsDVFlZyTd+9t34HJpIJP7Kc/iIyBjzIoDZloc5c9GiRY18w+z788r9oyh6GMDepfKZCrk6qd3d3dNVdWGM83VIFEWPptPpm2tqarblJdHvF9gQz/POE5FnAZwc84/zG9/3+WYjKqpsNvuGiFwVg1A/pap/9Tzv9HKul+d5x4jIQ3xEh0rcebD3JRPv3wCNGTPmvkwms0M5F8rzvClRFN0LvgGViPJyudxFAFbbHKOq1g4bNuyB6urqncu8h58kIvcDKKkzZwu6va6tra0DwGQA78Q4Z6KqtWEYLvY87/szZswYzFa2+Tl1XTctIosBXAFgWMw/z0OqejbLSjaIougKEflXDELdAsCsdDp9s+u6Q8qwB54N4E4AfDsjlbT8L/j/G4NQj4yi6CnXdY8vtxpVVlYm8+eBGQBDOWqJaK2WlpbXVPUnMQj14GQy+UQ6nZ5QjvfWnuedB2BuCdxXf0TBnw81xrzoOI4Hi5+f3UAjAPyss7PzhXQ6PbOuri7Flrbx0un0BM/zHheRLICdSuAjvayqpxlj1rC6ZMnNYheA8+MSr6rWArg/k8mMLYf6VFVVbe26bpuI/C8Afo9QWeju7r4MwJIYhDpaROZ5nndhuZyp4rrujmPGjLkHfTvleBYYEX3EFlts8XMAL8Ug1K1V9XbP8y4tl7Osq6qqxniedyf6NoWU5PdWUT5UNpu9B8B3SySHn1LV36xYsWJROp3+suu6FWxrGzRBOt7zvAdU9Q4AB5TIx3o7DMMJxpg3WWGyie/7WQB/iUu8InJQFEULPc+rL+We6rruyalU6mkROYWjlMpJW1tbh4jEZWE9AeCy9vb2R9Pp9MGlXJd0Ou2KyNPg20+J6GM0NjZ2q+r3YxKuA+AiEXk8nU4fVuo9PJVKPQugpHcOF21VLgiC6wFcX0K5/Iyq/l5EXnJd95xp06Ztxfb2kZu1hOu6ac/znhCRPwM4soQ+XheAU5ubmxez0mQjVT0TQJx2Bg4F8EMAj3me9/lSqkX+17EmEbkdwI4cnVSOfN+fBSBOLzo5UFUf9jzvF6U2x8tkMp/2PO+PqhqAjzET0QYwxrQCuCNGIe+vqg+l0+lfTZ06dWQp1aK6unp7z/Na8j285M8sLOq2snHjxp2FvufrS8kOIvLT3t7eVzzPu2bKlCnjy73B1dTUbON53rki8kL+UcEDSuwjRiJyehAED/HrjCyeaCwA8OO4xS0i+wF4IJ1O31hVVTUmzjVwXbfC87z/TqVSzwPIcFRSmVNV/SqAzhjFnATw3d7e3kWu66YR80fsamtrt0in0z+KomgxgJM4JIloY+RyuZkAVsYoZEdVv5nL5Ran0+npcX80PP8CtAuTyeRzAKrKZdwVtWj19fVRR0dHrareU4K5HQ7grEQi8azneQ+m0+npEydOLJuDMOvr651MJlPped6sMAxfA3AlgF1K9OOe5ft+C7/GyHYjRoy4QlWfjGHooqpfTaVS//Q874qamppt4tYPPc/zRKQdwFX57weismeMeVFVL4xh6DuISNZ13Sdc152EmC1k1dXVpVzX/WpPT8/zqnoJeFA7EW2ClpaW1wD8VwxDH6OqN7W3tz/tuu5pcevh+RdtnJ5/AdplKMGD2j9OstgBzJs3r2fSpElVgwcPvg/AgSWa58+r6ueHDBnyK8/z5gLwOzo65s2bN6+n1D6o67r7O44ztb29vQbAp0r9AlLVc40x14MoBhoaGnprampmhGH4GIA4ni21BYDzwjA8O51OmyiKrjDGtNt8k7hy5cqa9vb28wHszRFI9FHjx4+/rr29vRoxPHdJRD4H4A+e5z2vqr8C0JB/cYaVamtrt+ju7v7aihUr/ktEduLoI6LNFQTB713XPU1E4vi2v31ExHie96Kq/nLw4ME3zpo1a7WtwU6YMGHQVlttlVbVHwDYo1zHXNKGINra2jqqqqpOSqVSD5R4MbZA32MjmWHDhq30PO8OVZ2Xy+XubG1tXRbHD1RZWZkcPXr0FxzHmaSqkwDsoqrlcv1cbIy5il9dFCdNTU3PeJ53KYBLY/wxBqtqrYhM8zzvLhFpHDJkyG2NjY3dNgRXXV29czKZ/PKKFSu+ijJYyCfaHPX19ZHrul8VkScBbBnTj7FH/k2iF6bT6VsA/J/v+8/aElxNTc1+YRh+uaenZ7qIjOKoI6L+lEgkZkZR9DSAuJ4ttZuI/G9PT88lnufd4jhOYzabteaJBdd1x4nIlwGcoaqjy328JW0JpLW1dZnruseKyL0ojxXF4QBqRKQmlUpFHzjY/KEoih42xlj5PHF9fb2zaNGifVX1WFU9VkS+AGCrMlq0AgCIyGW+7/8YRDE0bty4y9vb248GcFzMP4oD4ARVPaGzs3OF53ltqnpbd3f3nXPnzi3ouTo1NTXbRFF0UhRF00TkOJToq4uJBoIx5kXP8+oAzIn5Rxmjqv8F4L88z3sKQIuItBZjMct13d0cxzlFVWvDMDyAo4yIBko2m33V87wzAPwB8T4bcBSAs6IoOsvzvGdFpCWKolZjzFOFDiSTyYwNw/AUAKeLyKEcZf+WtCkYY8zrmUzmmCiK7gWwZxnVwQFwsKoeDAAiErmu+6yIPAzgaQALUqnUgtmzZ68qZFD19fXOggULxiYSif0AHKKqh7S3tx+E/PktIlKWF42IXOX7/kVsHxRX9fX1UVVV1bRUKvUkgB1K5GONADBdRKYPGTKk2/O8RwDcq6oPVFRUPNnf/dN13SEicoCqHiUip4RheBiARLn2RaLNFQRBk+d5XwDwjRL5SPuj761X/+N53qsA7gNwbxiGf9t3332fr6+vj/q5J20nIgeLSKWqngJgj3L7cZGIitrD56bT6Z+p6jkl8pH2UdV9ROQSz/PeAHAvgPvCMPyb4ziLjTFhf/6xqqqqMclk8mDHcY5W1ZOjKBrHOeW6JW0LKJvNvlFdXX1MKpW6V1X3KtO6OPk3b+239v/Q29sLz/NeAvCiiLwURdFLAF5KJBKvqupba9asebu1tfXtjfkjM2bMGLxq1aqRqVRqawBjoyj6tIh8Gn2Hre/V3t6+VyKRGLz2P8+LCABwie/7lzINFHetra3LPM+rAXCPjd8Fm2kwgGMAHCMi6O3tjdLp9POq+qyIvKiqLwB4PZFILMnlcssAdH1412tlZWVy++233zqKolFRFG0NYCcR2VlExkZRdICIfBZAin2RqP8MHTr0e6tXrz40f7ZUKfk0gOkApicSCbS3t3e4rvuUiDwH4AVV/SeAN6MoWjpo0KC33n333c4Pn5Pquu6WAEYlEomtoyjafm1PUtXdARyS/xvgohURFcvw4cN/sGLFiiMAfL7EPtoOAE4HcHoikQCA9zzPe1pEFqvqCyLyzyiKlgBYnkqlllVUVHR9+FiL/BmEW6Nvl9d2+R4+FsBuAA4GMJY9fMNYedPS0tKyxHXdY/KPE/Lg23/bBfkzptbeNEVR3w94qVQKnudFAN4WkY78BbAawJq1/7CIbAGgQlUHARjZ2dk5NJlMvn+h8EbsY0WqerYx5pdMBZWKIAju9zzvIgBXlPhHdfI/iOz1wYlBGIbv9z3P8z7yD4Vh+JHe+MH+S0T9q7Gxsdt1XQ/Ao4jvWSobYpiIHAXgqA/2mEQigVwuh2HDhq2zJ31w3scbHSKyTUNDQ291dXUmmUw+AWBMCX/ULZF/SduH54a5XA65XO4jPbynp4fzx/6a1NsamDHmTVU9EsBDLNNG1XO0qu6qqrsC2Bd9b3Y8EMCBqrpX/v++I/jK5I0RisjXuHhFpSgIgisB3MRMEJEl878XAUzGB36AIyKieGhpaXnNcZyTAXQyGzQQrD5k1hjzzqBBg04AcAdLRUXSqarVvu//H1NBpWrEiBFfR9+z/URERRcEwf0i8g1mgogofrLZ7OOqegaAiNmg/mb9W5JmzZq1WlUnAbiR5aICWyIilcaYNqaCSllDQ0OvqroAnmM2iMgG+R+OrmQmiIjixxhzq6pewkxQf3NicgGEQRDUicgVLBkVyNOO4xzq+/5jTAWVyUTjnfybq5YxG0Rkg3Hjxl0oIj4zQUQUy7nlZSLyO2aC+pMTo1jV9/0LAEwF0MXS0QC6U1WPzmazrzIVVGYTjRdV9TgAbzMbRFRs9fX10fDhw2sBcCc0EVEMRVE0U0TmMBPUX5y4BRwEQZOqVgJ4g+WjfqYAfqqqJxtjVjIdVI6MMQvyi1jvMhtEVGwfeMSZ56ESEcVvXhlGUTQdgGE2qD84Mb0QHs3lcgcB+CtLSP1klap6QRCcZ4wJmQ4q88nGU6p6MoAOZoOILOhJa1T1NFWdz2wQEcWuh4eqejqAPzIbtLmcuAbe0tKyZOjQoccA+C3LSJvpaVU90BhzK1NB9P5k4xEApwDgbkQisqEndfX09EwCcB+zQUQUux6+hrtpqT84cQ6+sbGxOwiCOlXN8CaLNtH/qerhxpgXmQqi/xQEwf2O4xwDYCmzEXuLmAKKu7a2to6hQ4eeBKCV2Yi9bhH5J9NAVD6MMV0jRoyYDGA2sxF7vQCKcv/slMjF4Odyuc+q6sMcS7SBVorI6UEQfMUYw5cCEK1HNpt9UlUPB/APZiO27svlcl9iGqgUNDY2dud/xecO/PhaAeAEAHzTM1GZaWho6A2CoFZErmY2Ymu1iJwqIn8pxh93SiWLLS0t/wJwDICfo+8wbqL1uUtVx/u+z9V/og1gjHlJVY8G8CyzETtNqnpiLpfjLmUqpZ4UBkEwE8BPmY3YeV1VvxAEwf1MBVHZUt/3vw/gEt63x85Sx3Eqfd+fV6wAnFLKpjFmTRAE/w3gKADPcXzRh3QDOH/cuHEnGmNeZzqINqq/vp7ficVHd+Lj2nHjxp1ujFnDVFAp3gAFQXCeiJwOgDup42GRqh5hjFnAVBBREASXAsgA6GQ2YuElEflCNpt9vJhBOCV6MTykqp8DcCUAvlGOoKoPiMgBQRBcWV9fHzEjRBvPGPPeuHHjThORy8BfzGzWKyJnBUFwNvsdlTrf92c7jnMcgDeZDavdpapHGmNeYSqI6AP37YGIHAXgVWbDavf39vYe5vv+88UOxCnVDBtjuoIgOF9VjxKRxRxzZetdVZ1pjDna930eYky0merr6yPf9y8SkTSA1cyIdZar6om+71/HVFC5yGazD6vqQQAeZTasowCuVNUJxph3mA4i+jDf9/+eSCQOUNX5zIZ9RKRhxIgRx7W2ti6zIR6n1BNujHkkiqIDANSDW8zLzS2quqcxpgHcLULU35MNIyIHA3iK2bDGQ47j7G+MuZepoHJjjHl96NChR6Nv9z13HtqhQ1W9IAjON8bwiQgiWq+mpqa3li9ffjyAH7GHW6NbVb/s+/7MhoaGXluCcsoh8/ndWD9yHGcceH5LyVPVJ1W1MgiCWmPMcmaEaGD4vr9o6NChh4vIL8FF4qISkV+q6rHZbPYNZoPKVWNjY3cQBOeLyKkA+P1fXO2qerAx5lamgog2xPz583NBENSj7y2lnM8Ud175QiKRONQY02hbbE45FSKbzb4cBEG1qn5RVRdyaJacJao6E8DBxpi/MB1Ehblh9H3/TBE5ETyDphiWquqpvu+fycPaifr4vn97b2/vPgDuYDYKTkWkYdCgQYcYY/hCJSLaaEEQ3J1IJD4LoI3ZKE4Pj6LogKampmdsDNApx6oYY+4dOXLk51T1W+DqbinoBPBjVd3DGNPAbepERblh/LOqjheRBmajcF9nvb29440xnOARfUhra+uyIAhOEZEzALzNjBTEywC+6Pv+zFmzZvGMRCLaZE1NTW8FQXCqiHjgjtpCeVNEJvm+P9MY856tQTrlWp2GhoZeY8yvOzo6ds3v2lnGMRs7a0SkwXGc3YMguNjmC42oHBhj3vF9f6bjOMcAeJ4ZGTArANQGQeC1trbyxpxo/dT3/ZtVdR8RmcV0DBwRmdXd3b1fEAT3MRtE1F983zfJZHLP/A+kPK5iAKfxqjre9/3bbQ/UKfdKzZs3r8cY06CqewD4MYBVHL/W6wZwneM4u/i+P5NnvhDZJZvNzh80aNABAH4GoJcZ6TcRgBtVdY8gCG5hOog2cFZuzJu+708HMAl9u4So/yxwHOcY3/ent7W1dTAdRNTf5syZ867v+zNV9QQReYEZ6T8ishjAiUEQeHF5U6zDsr0/uVkZBMHFa9as2VlVLwDPcrHReyJyjaruFgTBWVy4IrLXrFmzVgdBcE4ul9s9v/OBv5ptBlV9XEQ+HwTB1/lyCqJNEwTBXFXdM7/zntfR5lmhqt9dtmzZAdlsdj7TQUQFuF+/a/jw4ePzPXwpM7JZVgP40apVq/YPguDOOAWeZO3+02233bYCwBWu617tOE5GVc8HsDczU1RvArhBVa8NguAdpoMoPlpaWv4FYHomk/lNGIZXicgRzMpGWQLgAmPMzeAiIFF/3ACtAdBQVVXVnEqlLgLwLQAVzMwGi0TkRsdxftDU1PQW00FEhdTQ0NALoMF1XV9ELgBwFoAhzMwGUwA3q+r5xphYbtjhAtbHT3Burq+vv6W9vX0SgJkAvgTuWivc1aX6OIBfjBw50uSbFRHFVDabfRjAka7rTgRwoYgcyqx8rKUArho0aNBveBgyUf/Lnx/3Pdd1r3Uc53xVPQPAIGZmvUIR8QH82Pf9RUwHERX5Xn0lgPMzmcz1qnquqn4FwFBmZr0iAC2JROJSW98uuKG4gPUJ6uvrIwC3AbjNdd0dReR0AN8G8GlmZ0CszE+QbgiC4O9MB1FJ0fwb89pc1z0SwHkicjIAYWretxzAz7u6uq6bO3duJ9NBNOA3QS8BmFlVVXVxKpX6FoCzAYxgZv7jpqc5DMNLmpubFzMdRGSTbDb7KoAza2pqfhSG4XcAnAlgFDPz7x6uqnc4jvND3/dL4t6aC1gbN8l5HcCVdXV1V69YsWKSqtaKyIngL3b9cWHdJyK/Gzp0aGtjY2M3U0JU8v30QQAPuq57oIicBcBFeW8Bf1FVfwmgwRjTxRFCVFitra3LANRPnTr1mlwu9w0R+Zqq7lrGKekEMEdErvJ9n2+VJSKr5R9prp82bdrVvb29XwdQB2CPMk5JNwA/DMOrmpubF5bSB+MC1ibIP87WDKDZdd3hjuOcGkWRKyInAEgxQxskAvCIqppEImF4IDtReTLGPAHgjGnTpp25Zs2ajIjMBHBAGfXBe0WkIYqiFmNMyBFBVFxz5sx5F8BP0Hce6ucdx6lV1VqUyQK7iLygqr/r7e29Mf+YJRFRbMyePXsVgJ8D+Lnrugc6jlOnqqejfB4v/AeA36rq70v1pT9cwNr8m6+VAG4GcLPruqMdx6mOougUETkGwBbM0H/IqeqDjuO0iEgzF62I6EMTjgYADel0+mAAX1PVGgDDSvDjvgLgZsdxGvJb34nIPrp2p2hNTc0PcrncdBH5GkrzxT7dAG53HOc32Wz2XvCFEURUGvfpTwCYOXXq1PNzuVwtgK8B2LcEP2oPgHmqesP48eP/nD8CqWRxAat/L5LlAG4AcENlZWVy9OjRh4nIKQCOA3BgmablTRG5C8Dcnp6eu/JveSQiWi/f9x8D8NiMGTPO7uzsPBLARACnAdghxh/rFQC3qaoxxjzEG0Si+Mg/mnI1gKunTJmyq+M4E0XEBXAE4nuGX7eq3u04jkkmk7flf0QgIio5+Z211wK49kM9/HDE9wVt7/fwKIr+kN9UA2NMydeTC1gDZP78+TkAD+b/C5lMZmwYhkeJyOdV9UgRGYfSPLj4JQAPicgjURTdY4x5jqOBiDZF/jy8uwHcXV9f/72FCxceKiKnApgE+3dBhAD+LiL35HecPs6KEsVfc3PzPwFcA+Ca/Mt9JgKYDKAS9p+J+pqI3AdgbkVFxR18wykRlXkP3y7fw08FcCzsf1R8iYjcp6q3d3d3397W1tZRjjXkAlaBZLPZlwG8DGAWALiuO8pxnCMAHKaq+6FvO+PYmH2stwA8IyJPAXiot7f3kZaWliWsdukSEV9Vny1mDIMGDXqLlSg/+e3Qj+T/63zXdbcDcLiIHAHgMAAHARhcxBBDAE8BmC8i85PJ5P027WgYNGhQD4DzC/k3oyj6qyUf/+cAti7awAhD7mwpUfmX+/wGwG9mzJgxuLOz88B8P/p8/r9vX+QQ3wBwn4jMj6JovjHmRctS2ATgyQL+PatekCEivwbQVswYKisro/nz5/Ni/vj5h3qed34xY1BVHrsyMD38TQC/BfBb13UrHMc5QFUPR9/u2sMB7FjkEN9cO6/M93DbNoY0A3ihgH8vB/DV5VZxXXc4+hay9hWRfVR1FxEZC2CXIt6Y5UTkdVV9WUReVNWFABao6rP5i56IqOjq6upSq1atOiAMwwNEZHdV3d1xnN3ybxGr6Oc/9yqA9nwvXJhIJJ5dvXp1+9y5cztZCSJaK5PJjFXVw1R1r3xf2g3Abuj/V7y/B6BdRBao6kJVfTaRSCzkWaNERJvVwz8dRdHha3t4vn/vjv7/UWy1qi4SkQVr55e5XG5hS0vLa6zCR3EBKyaqq6u3TyQSY/MLWqNFZGtV3Tp/AW0DYBsR2QoAVHWL/A2bABiR/1d0I//Lk4isAhBGUdQF4B0ReVtE3lbVt1X1LRFZ5jjOv8Iw/Nfy5ctfzT8OSUQUO67rJgDsJCJjRWSbKIpGisgIAMMBjBCREaqaAtAlIt0f+EdDVV0mIssAvC4iywG8EYbhUmNMFzNLRJvRl0YlEondVXU7VR2hqiPyfWltb9pSRCIAKz/0j65U1SUiskxV31DVpblcbinfFkhEVDhTp04dGYbhbug7m3X4Ovr4Onu4qnao6hv5e+0lvb29b1ZUVCzNn7NIG+j/AWzBO2EYbU+QAAAAJXRFWHRkYXRlOmNyZWF0ZQAyMDIwLTA1LTI3VDEwOjI5OjQwKzAwOjAwpu/+fQAAACV0RVh0ZGF0ZTptb2RpZnkAMjAyMC0wNS0yN1QxMDoyOTo0MCswMDowMNeyRsEAAAAASUVORK5CYII=;" vertex="1" parent="2">
                    <mxGeometry x="622" y="26" width="78.46" height="80" as="geometry"/>
                </mxCell>
                <mxCell id="18" value="" style="dashed=0;outlineConnect=0;html=1;align=center;labelPosition=center;verticalLabelPosition=bottom;verticalAlign=top;shape=mxgraph.weblogos.github;fontSize=22;fontColor=#000000;" parent="1" vertex="1">
                    <mxGeometry x="1032" y="165" width="75" height="75" as="geometry"/>
                </mxCell>
                <mxCell id="31" style="edgeStyle=none;html=1;entryX=1;entryY=0.75;entryDx=0;entryDy=0;fontSize=22;fontColor=#000000;strokeColor=#000000;strokeWidth=2;" parent="1" source="19" target="2" edge="1">
                    <mxGeometry relative="1" as="geometry"/>
                </mxCell>
                <mxCell id="19" value="" style="shape=image;verticalLabelPosition=bottom;labelBackgroundColor=#ffffff;verticalAlign=top;aspect=fixed;imageAspect=0;image=https://johansiebens.dev/uploads/2020-08-23/argocd-logo.png;" parent="1" vertex="1">
                    <mxGeometry x="1026" y="472" width="97.59" height="147.67" as="geometry"/>
                </mxCell>
                <mxCell id="21" value="" style="shape=flexArrow;endArrow=classic;html=1;fontSize=22;fontColor=#000000;strokeColor=#000000;strokeWidth=2;endWidth=36.666666666666664;endSize=8.666666666666666;entryX=0.005;entryY=0.63;entryDx=0;entryDy=0;entryPerimeter=0;" parent="1" target="7" edge="1">
                    <mxGeometry width="50" height="50" relative="1" as="geometry">
                        <mxPoint x="97" y="231" as="sourcePoint"/>
                        <mxPoint x="244" y="240" as="targetPoint"/>
                    </mxGeometry>
                </mxCell>
                <mxCell id="22" value="External&lt;br&gt;Traffic" style="text;html=1;strokeColor=none;fillColor=none;align=center;verticalAlign=middle;whiteSpace=wrap;rounded=0;fontSize=22;fontColor=#000000;" parent="1" vertex="1">
                    <mxGeometry x="147" y="270" width="60" height="30" as="geometry"/>
                </mxCell>
                <mxCell id="26" value="Code/IAC&lt;br&gt;Commit" style="text;html=1;strokeColor=none;fillColor=none;align=center;verticalAlign=middle;whiteSpace=wrap;rounded=0;fontSize=22;fontColor=#000000;" parent="1" vertex="1">
                    <mxGeometry x="1039.5" y="259" width="60" height="30" as="geometry"/>
                </mxCell>
                <mxCell id="27" value="" style="shape=flexArrow;endArrow=classic;html=1;fontSize=22;fontColor=#000000;strokeColor=#000000;strokeWidth=2;endWidth=54.049586776859506;endSize=12.454545454545453;width=27.27272727272727;" parent="1" edge="1">
                    <mxGeometry width="50" height="50" relative="1" as="geometry">
                        <mxPoint x="1073.89" y="318" as="sourcePoint"/>
                        <mxPoint x="1073.89" y="444" as="targetPoint"/>
                    </mxGeometry>
                </mxCell>
                <mxCell id="28" value="GitOps&lt;br&gt;Engine&lt;br&gt;(Sync cluster resources)" style="text;html=1;strokeColor=none;fillColor=none;align=center;verticalAlign=middle;whiteSpace=wrap;rounded=0;fontSize=22;fontColor=#000000;" parent="1" vertex="1">
                    <mxGeometry x="1044.79" y="678" width="60" height="30" as="geometry"/>
                </mxCell>
                <mxCell id="37" value="" style="sketch=0;points=[[0,0,0],[0.25,0,0],[0.5,0,0],[0.75,0,0],[1,0,0],[0,1,0],[0.25,1,0],[0.5,1,0],[0.75,1,0],[1,1,0],[0,0.25,0],[0,0.5,0],[0,0.75,0],[1,0.25,0],[1,0.5,0],[1,0.75,0]];outlineConnect=0;fontColor=#232F3E;gradientColor=#F54749;gradientDirection=north;fillColor=#C7131F;strokeColor=#ffffff;dashed=0;verticalLabelPosition=bottom;verticalAlign=top;align=center;html=1;fontSize=12;fontStyle=0;aspect=fixed;shape=mxgraph.aws4.resourceIcon;resIcon=mxgraph.aws4.identity_and_access_management;" vertex="1" parent="1">
                    <mxGeometry x="121" y="472" width="78" height="78" as="geometry"/>
                </mxCell>
                <mxCell id="38" style="edgeStyle=none;html=1;exitX=0.005;exitY=0.63;exitDx=0;exitDy=0;exitPerimeter=0;fontSize=22;fontColor=#000000;strokeColor=#000000;strokeWidth=2;" edge="1" parent="1" source="9" target="37">
                    <mxGeometry relative="1" as="geometry"/>
                </mxCell>
                <mxCell id="39" value="Pods use IAM Roles for Service Account for AWS AuthN" style="text;html=1;strokeColor=none;fillColor=none;align=center;verticalAlign=middle;whiteSpace=wrap;rounded=0;fontSize=22;fontColor=#000000;" vertex="1" parent="1">
                    <mxGeometry x="47" y="592" width="188" height="30" as="geometry"/>
                </mxCell>
            </root>
        </mxGraphModel>
    </diagram>
</mxfile>
